<?xml version="1.0" encoding="utf-8"?>
<!DOCTYPE score-partwise  PUBLIC "-//Recordare//DTD MusicXML 3.1 Partwise//EN" "http://www.musicxml.org/dtds/partwise.dtd">
<score-partwise version="3.1">
  <movement-title>Five Foot Two, Eyes Of Blue </movement-title>
  <identification>
    <creator type="composer">Ray Henderson</creator>
    <creator>Joseph Widow Young, Sam M. Lewis</creator>
    <encoding>
      <encoding-date>2022-11-09</encoding-date>
      <software>music21 v.8.1.0</software>
      <software>Music21</software>
      <supports attribute="new-system" element="print" type="yes" value="yes" />
      <supports attribute="new-page" element="print" type="yes" value="yes" />
    </encoding>
  </identification>
  <defaults>
    <scaling>
      <millimeters>210</millimeters>
      <tenths>1190</tenths>
    </scaling>
    <page-layout>
      <page-height>1683</page-height>
      <page-width>1190</page-width>
      <page-margins>
        <left-margin>56</left-margin>
        <right-margin>56</right-margin>
        <top-margin>56</top-margin>
        <bottom-margin>113</bottom-margin>
      </page-margins>
    </page-layout>
    <system-layout>
      <system-margins>
        <left-margin>21</left-margin>
        <right-margin>0</right-margin>
      </system-margins>
      <system-distance>82</system-distance>
    </system-layout>
  </defaults>
  <credit page="1">
    <credit-words default-x="595" default-y="1628" font-family="Plantin MT Std" font-size="22.1889" halign="center" valign="middle">Five foot two, eyes of blue,</credit-words>
  </credit>
  <credit page="1">
    <credit-words default-x="595" default-y="1590" font-family="Plantin MT Std" font-size="14.0634" halign="center" valign="middle">(has anybody seen my girl?)</credit-words>
  </credit>
  <credit page="1">
    <credit-words default-x="1134" default-y="1579" font-family="Plantin MT Std" font-size="11.0944" halign="center" valign="middle">Ray H</credit-words>
  </credit>
  <credit page="1">
    <credit-words default-x="56" default-y="1579" font-family="Plantin MT Std" font-size="11.0944" halign="center" valign="middle">Joe Young</credit-words>
  </credit>
  <credit page="1">
    <credit-words default-x="595" default-y="113" font-family="Plantin MT Std" font-size="10.1569" halign="center" valign="middle">All Rights Reserved</credit-words>
  </credit>
  <part-list>
    <part-group number="1" type="start">
      <group-symbol>brace</group-symbol>
      <group-barline>yes</group-barline>
    </part-group>
    <part-group number="2" type="start">
      <group-symbol>brace</group-symbol>
      <group-barline>yes</group-barline>
    </part-group>
    <score-part id="P1">
      <part-name>P1</part-name>
    </score-part>
    <part-group number="1" type="stop" />
    <part-group number="2" type="stop" />
  </part-list>
  <!--=========================== Part 1 ===========================-->
  <part id="P1">
    <!--========================= Measure 1 ==========================-->
    <measure number="1" width="294">
      <print new-page="yes">
        <system-layout>
          <system-margins>
            <left-margin>19</left-margin>
            <right-margin>0</right-margin>
          </system-margins>
          <top-system-distance>186</top-system-distance>
        </system-layout>
        <staff-layout number="1" />
      </print>
      <attributes>
        <divisions>10080</divisions>
        <key color="#000000">
          <fifths>0</fifths>
          <mode>major</mode>
        </key>
        <time color="#000000" halign="left" valign="top">
          <beats>4</beats>
          <beat-type>4</beat-type>
        </time>
        <clef color="#000000">
          <sign>G</sign>
          <line>2</line>
        </clef>
        <staff-details print-object="yes" />
      </attributes>
      <harmony color="#000000" default-y="25">
        <root>
          <root-step>C</root-step>
        </root>
        <kind>major</kind>
      </harmony>
      <note color="#000000">
        <pitch>
          <step>E</step>
          <octave>4</octave>
        </pitch>
        <duration>10080</duration>
        <type>quarter</type>
        <stem>up</stem>
        <notehead color="#000000" parentheses="no">normal</notehead>
        <lyric name="1" number="1">
          <syllabic>single</syllabic>
          <text>five</text>
        </lyric>
      </note>
      <note color="#000000">
        <pitch>
          <step>G</step>
          <octave>4</octave>
        </pitch>
        <duration>10080</duration>
        <type>quarter</type>
        <stem>up</stem>
        <notehead color="#000000" parentheses="no">normal</notehead>
        <lyric name="1" number="1">
          <syllabic>single</syllabic>
          <text>foot</text>
        </lyric>
      </note>
      <note color="#000000">
        <pitch>
          <step>E</step>
          <octave>4</octave>
        </pitch>
        <duration>10080</duration>
        <type>quarter</type>
        <stem>up</stem>
        <notehead color="#000000" parentheses="no">normal</notehead>
        <lyric name="1" number="1">
          <syllabic>single</syllabic>
          <text>two,</text>
        </lyric>
      </note>
      <note>
        <rest />
        <duration>10080</duration>
        <type>quarter</type>
      </note>
    </measure>
    <!--========================= Measure 2 ==========================-->
    <measure number="2" width="258">
      <harmony color="#000000" default-y="25">
        <root>
          <root-step>E</root-step>
        </root>
        <kind>dominant</kind>
      </harmony>
      <note color="#000000">
        <pitch>
          <step>E</step>
          <octave>4</octave>
        </pitch>
        <duration>10080</duration>
        <type>quarter</type>
        <stem>up</stem>
        <notehead color="#000000" parentheses="no">normal</notehead>
        <lyric name="1" number="1">
          <syllabic>single</syllabic>
          <text>eyes</text>
        </lyric>
      </note>
      <note color="#000000">
        <pitch>
          <step>G</step>
          <alter>1</alter>
          <octave>4</octave>
        </pitch>
        <duration>10080</duration>
        <type>quarter</type>
        <accidental>sharp</accidental>
        <stem>up</stem>
        <notehead color="#000000" parentheses="no">normal</notehead>
        <lyric name="1" number="1">
          <syllabic>single</syllabic>
          <text>of</text>
        </lyric>
      </note>
      <note color="#000000">
        <pitch>
          <step>E</step>
          <octave>4</octave>
        </pitch>
        <duration>10080</duration>
        <type>quarter</type>
        <stem>up</stem>
        <notehead color="#000000" parentheses="no">normal</notehead>
        <lyric name="1" number="1">
          <syllabic>single</syllabic>
          <text>blue</text>
        </lyric>
      </note>
      <note>
        <rest />
        <duration>5040</duration>
        <type>eighth</type>
      </note>
      <note color="#000000">
        <pitch>
          <step>E</step>
          <octave>4</octave>
        </pitch>
        <duration>5040</duration>
        <type>eighth</type>
        <stem>up</stem>
        <notehead color="#000000" parentheses="no">normal</notehead>
        <lyric name="1" number="1">
          <syllabic>single</syllabic>
          <text>but</text>
        </lyric>
      </note>
    </measure>
    <!--========================= Measure 3 ==========================-->
    <measure number="3" width="237">
      <harmony color="#000000" default-y="25">
        <root>
          <root-step>A</root-step>
        </root>
        <kind>dominant</kind>
      </harmony>
      <note color="#000000">
        <pitch>
          <step>E</step>
          <octave>4</octave>
        </pitch>
        <duration>10080</duration>
        <type>quarter</type>
        <stem>up</stem>
        <notehead color="#000000" parentheses="no">normal</notehead>
        <lyric name="1" number="1">
          <syllabic>single</syllabic>
          <text>oh!</text>
        </lyric>
      </note>
      <note color="#000000">
        <pitch>
          <step>A</step>
          <octave>4</octave>
        </pitch>
        <duration>10080</duration>
        <type>quarter</type>
        <stem>up</stem>
        <notehead color="#000000" parentheses="no">normal</notehead>
        <lyric name="1" number="1">
          <syllabic>single</syllabic>
          <text>what</text>
        </lyric>
      </note>
      <note color="#000000">
        <pitch>
          <step>E</step>
          <octave>4</octave>
        </pitch>
        <duration>10080</duration>
        <type>quarter</type>
        <stem>up</stem>
        <notehead color="#000000" parentheses="no">normal</notehead>
        <lyric name="1" number="1">
          <syllabic>single</syllabic>
          <text>those</text>
        </lyric>
      </note>
      <note>
        <rest />
        <duration>10080</duration>
        <type>quarter</type>
      </note>
    </measure>
    <!--========================= Measure 4 ==========================-->
    <measure number="4" width="267">
      <note color="#000000">
        <pitch>
          <step>E</step>
          <octave>4</octave>
        </pitch>
        <duration>10080</duration>
        <type>quarter</type>
        <stem>up</stem>
        <notehead color="#000000" parentheses="no">normal</notehead>
        <lyric name="1" number="1">
          <syllabic>single</syllabic>
          <text>foot</text>
        </lyric>
      </note>
      <note color="#000000">
        <pitch>
          <step>A</step>
          <octave>4</octave>
        </pitch>
        <duration>5040</duration>
        <type>eighth</type>
        <stem>up</stem>
        <notehead color="#000000" parentheses="no">normal</notehead>
        <beam number="1">begin</beam>
        <lyric name="1" number="1">
          <syllabic>single</syllabic>
          <text>could</text>
        </lyric>
      </note>
      <note color="#000000">
        <pitch>
          <step>E</step>
          <octave>4</octave>
        </pitch>
        <duration>5040</duration>
        <tie type="start" />
        <type>eighth</type>
        <stem>up</stem>
        <notehead color="#000000" parentheses="no">normal</notehead>
        <beam number="1">end</beam>
        <notations>
          <tied type="start" />
        </notations>
        <lyric name="1" number="1">
          <syllabic>single</syllabic>
          <text>do</text>
        </lyric>
      </note>
      <note color="#000000">
        <pitch>
          <step>E</step>
          <octave>4</octave>
        </pitch>
        <duration>10080</duration>
        <tie type="stop" />
        <type>quarter</type>
        <stem>up</stem>
        <notehead color="#000000" parentheses="no">normal</notehead>
        <notations>
          <tied type="stop" />
        </notations>
      </note>
      <note color="#000000">
        <pitch>
          <step>A</step>
          <octave>4</octave>
        </pitch>
        <duration>10080</duration>
        <type>quarter</type>
        <stem>up</stem>
        <notehead color="#000000" parentheses="no">normal</notehead>
        <lyric name="1" number="1">
          <syllabic>single</syllabic>
          <text>has</text>
        </lyric>
      </note>
    </measure>
    <!--========================= Measure 5 ==========================-->
    <measure number="5" width="367">
      <print new-system="yes">
        <system-layout>
          <system-margins>
            <left-margin>22</left-margin>
            <right-margin>0</right-margin>
          </system-margins>
          <system-distance>104</system-distance>
        </system-layout>
        <staff-layout number="1" />
      </print>
      <attributes>
        <staff-details print-object="yes" />
      </attributes>
      <harmony color="#000000" default-y="25">
        <root>
          <root-step>D</root-step>
        </root>
        <kind>dominant</kind>
      </harmony>
      <note color="#000000">
        <pitch>
          <step>C</step>
          <octave>5</octave>
        </pitch>
        <duration>10080</duration>
        <type>quarter</type>
        <stem>down</stem>
        <notehead color="#000000" parentheses="no">normal</notehead>
        <lyric name="1" number="1">
          <syllabic>begin</syllabic>
          <text>an</text>
        </lyric>
      </note>
      <note color="#000000">
        <pitch>
          <step>A</step>
          <octave>4</octave>
        </pitch>
        <duration>10080</duration>
        <type>quarter</type>
        <stem>up</stem>
        <notehead color="#000000" parentheses="no">normal</notehead>
        <lyric name="1" number="1">
          <syllabic>middle</syllabic>
          <text>y</text>
        </lyric>
      </note>
      <note color="#000000">
        <pitch>
          <step>C</step>
          <octave>5</octave>
        </pitch>
        <duration>10080</duration>
        <type>quarter</type>
        <stem>down</stem>
        <notehead color="#000000" parentheses="no">normal</notehead>
        <lyric name="1" number="1">
          <syllabic>middle</syllabic>
          <text>bod</text>
        </lyric>
      </note>
      <note color="#000000">
        <pitch>
          <step>A</step>
          <octave>4</octave>
        </pitch>
        <duration>10080</duration>
        <type>quarter</type>
        <stem>up</stem>
        <notehead color="#000000" parentheses="no">normal</notehead>
        <lyric name="1" number="1">
          <syllabic>end</syllabic>
          <text>y</text>
        </lyric>
      </note>
    </measure>
    <!--========================= Measure 6 ==========================-->
    <measure number="6" width="277">
      <harmony color="#000000" default-y="25">
        <root>
          <root-step>G</root-step>
        </root>
        <kind>dominant</kind>
      </harmony>
      <note color="#000000">
        <pitch>
          <step>G</step>
          <octave>4</octave>
        </pitch>
        <duration>20160</duration>
        <type>half</type>
        <stem>up</stem>
        <notehead color="#000000" parentheses="no">normal</notehead>
        <lyric name="1" number="1">
          <syllabic>single</syllabic>
          <text>seen</text>
        </lyric>
      </note>
      <note color="#000000">
        <pitch>
          <step>A</step>
          <octave>4</octave>
        </pitch>
        <duration>20160</duration>
        <type>half</type>
        <stem>up</stem>
        <notehead color="#000000" parentheses="no">normal</notehead>
        <lyric name="1" number="1">
          <syllabic>single</syllabic>
          <text>my</text>
        </lyric>
      </note>
    </measure>
    <!--========================= Measure 7 ==========================-->
    <measure number="7" width="196">
      <harmony color="#000000" default-y="25">
        <root>
          <root-step>C</root-step>
        </root>
        <kind>major</kind>
      </harmony>
      <note color="#000000">
        <pitch>
          <step>E</step>
          <octave>4</octave>
        </pitch>
        <duration>40320</duration>
        <type>whole</type>
        <stem>up</stem>
        <notehead color="#000000" parentheses="no">normal</notehead>
        <lyric name="1" number="1">
          <syllabic>single</syllabic>
          <text>girl?</text>
        </lyric>
      </note>
    </measure>
    <!--========================= Measure 8 ==========================-->
    <measure number="8" width="214">
      <harmony color="#000000" default-y="25">
        <root>
          <root-step>D</root-step>
        </root>
        <kind>minor-seventh</kind>
      </harmony>
      <note>
        <rest measure="yes" />
        <duration>40320</duration>
      </note>
    </measure>
    <!--========================= Measure 9 ==========================-->
    <measure number="9" width="282">
      <print new-system="yes">
        <system-layout>
          <system-margins>
            <left-margin>22</left-margin>
            <right-margin>0</right-margin>
          </system-margins>
          <system-distance>104</system-distance>
        </system-layout>
        <staff-layout number="1" />
      </print>
      <attributes>
        <staff-details print-object="yes" />
      </attributes>
      <harmony color="#000000" default-y="25">
        <root>
          <root-step>C</root-step>
        </root>
        <kind>major</kind>
      </harmony>
      <note color="#000000">
        <pitch>
          <step>E</step>
          <octave>4</octave>
        </pitch>
        <duration>10080</duration>
        <type>quarter</type>
        <stem>up</stem>
        <notehead color="#000000" parentheses="no">normal</notehead>
        <lyric name="1" number="1">
          <syllabic>single</syllabic>
          <text>turned</text>
        </lyric>
      </note>
      <note color="#000000">
        <pitch>
          <step>G</step>
          <octave>4</octave>
        </pitch>
        <duration>10080</duration>
        <type>quarter</type>
        <stem>up</stem>
        <notehead color="#000000" parentheses="no">normal</notehead>
        <lyric name="1" number="1">
          <syllabic>single</syllabic>
          <text>up</text>
        </lyric>
      </note>
      <note color="#000000">
        <pitch>
          <step>E</step>
          <octave>4</octave>
        </pitch>
        <duration>10080</duration>
        <type>quarter</type>
        <stem>up</stem>
        <notehead color="#000000" parentheses="no">normal</notehead>
        <lyric name="1" number="1">
          <syllabic>single</syllabic>
          <text>nose,</text>
        </lyric>
      </note>
      <note>
        <rest />
        <duration>10080</duration>
        <type>quarter</type>
      </note>
    </measure>
    <!--========================= Measure 10 =========================-->
    <measure number="10" width="258">
      <harmony color="#000000" default-y="25">
        <root>
          <root-step>E</root-step>
        </root>
        <kind>dominant</kind>
      </harmony>
      <note color="#000000">
        <pitch>
          <step>E</step>
          <octave>4</octave>
        </pitch>
        <duration>10080</duration>
        <type>quarter</type>
        <stem>up</stem>
        <notehead color="#000000" parentheses="no">normal</notehead>
        <lyric name="1" number="1">
          <syllabic>single</syllabic>
          <text>turned</text>
        </lyric>
      </note>
      <note color="#000000">
        <pitch>
          <step>G</step>
          <alter>1</alter>
          <octave>4</octave>
        </pitch>
        <duration>10080</duration>
        <type>quarter</type>
        <accidental>sharp</accidental>
        <stem>up</stem>
        <notehead color="#000000" parentheses="no">normal</notehead>
        <lyric name="1" number="1">
          <syllabic>single</syllabic>
          <text>down</text>
        </lyric>
      </note>
      <note color="#000000">
        <pitch>
          <step>E</step>
          <octave>4</octave>
        </pitch>
        <duration>10080</duration>
        <type>quarter</type>
        <stem>up</stem>
        <notehead color="#000000" parentheses="no">normal</notehead>
        <lyric name="1" number="1">
          <syllabic>single</syllabic>
          <text>hose,</text>
        </lyric>
      </note>
      <note>
        <rest />
        <duration>10080</duration>
        <type>quarter</type>
      </note>
    </measure>
    <!--========================= Measure 11 =========================-->
    <measure number="11" width="240">
      <harmony color="#000000" default-y="25">
        <root>
          <root-step>A</root-step>
        </root>
        <kind>dominant</kind>
      </harmony>
      <note color="#000000">
        <pitch>
          <step>E</step>
          <octave>4</octave>
        </pitch>
        <duration>10080</duration>
        <type>quarter</type>
        <stem>up</stem>
        <notehead color="#000000" parentheses="no">normal</notehead>
        <lyric name="1" number="1">
          <syllabic>begin</syllabic>
          <text>nev</text>
        </lyric>
      </note>
      <note color="#000000">
        <pitch>
          <step>A</step>
          <octave>4</octave>
        </pitch>
        <duration>10080</duration>
        <type>quarter</type>
        <stem>up</stem>
        <notehead color="#000000" parentheses="no">normal</notehead>
        <lyric name="1" number="1">
          <syllabic>end</syllabic>
          <text>er</text>
        </lyric>
      </note>
      <note color="#000000">
        <pitch>
          <step>E</step>
          <octave>4</octave>
        </pitch>
        <duration>10080</duration>
        <type>quarter</type>
        <stem>up</stem>
        <notehead color="#000000" parentheses="no">normal</notehead>
        <lyric name="1" number="1">
          <syllabic>single</syllabic>
          <text>had</text>
        </lyric>
      </note>
      <note>
        <rest />
        <duration>10080</duration>
        <type>quarter</type>
      </note>
    </measure>
    <!--========================= Measure 12 =========================-->
    <measure number="12" width="274">
      <note color="#000000">
        <pitch>
          <step>E</step>
          <octave>4</octave>
        </pitch>
        <duration>10080</duration>
        <type>quarter</type>
        <stem>up</stem>
        <notehead color="#000000" parentheses="no">normal</notehead>
        <lyric name="1" number="1">
          <syllabic>begin</syllabic>
          <text>oth</text>
        </lyric>
      </note>
      <note color="#000000">
        <pitch>
          <step>A</step>
          <octave>4</octave>
        </pitch>
        <duration>5040</duration>
        <type>eighth</type>
        <stem>up</stem>
        <notehead color="#000000" parentheses="no">normal</notehead>
        <beam number="1">begin</beam>
        <lyric name="1" number="1">
          <syllabic>end</syllabic>
          <text>er</text>
        </lyric>
      </note>
      <note color="#000000">
        <pitch>
          <step>E</step>
          <octave>4</octave>
        </pitch>
        <duration>5040</duration>
        <tie type="start" />
        <type>eighth</type>
        <stem>up</stem>
        <notehead color="#000000" parentheses="no">normal</notehead>
        <beam number="1">end</beam>
        <notations>
          <tied type="start" />
        </notations>
        <lyric name="1" number="1">
          <syllabic>single</syllabic>
          <text>beaus,</text>
        </lyric>
      </note>
      <note color="#000000">
        <pitch>
          <step>E</step>
          <octave>4</octave>
        </pitch>
        <duration>10080</duration>
        <tie type="stop" />
        <type>quarter</type>
        <stem>up</stem>
        <notehead color="#000000" parentheses="no">normal</notehead>
        <notations>
          <tied type="stop" />
        </notations>
      </note>
      <note color="#000000">
        <pitch>
          <step>A</step>
          <octave>4</octave>
        </pitch>
        <duration>10080</duration>
        <type>quarter</type>
        <stem>up</stem>
        <notehead color="#000000" parentheses="no">normal</notehead>
        <lyric name="1" number="1">
          <syllabic>single</syllabic>
          <text>has</text>
        </lyric>
      </note>
    </measure>
    <!--========================= Measure 13 =========================-->
    <measure number="13" width="335">
      <print new-system="yes">
        <system-layout>
          <system-margins>
            <left-margin>22</left-margin>
            <right-margin>0</right-margin>
          </system-margins>
          <system-distance>116</system-distance>
        </system-layout>
        <staff-layout number="1" />
      </print>
      <attributes>
        <staff-details print-object="yes" />
      </attributes>
      <harmony color="#000000" default-y="25">
        <root>
          <root-step>D</root-step>
        </root>
        <kind>dominant</kind>
      </harmony>
      <note color="#000000">
        <pitch>
          <step>C</step>
          <octave>5</octave>
        </pitch>
        <duration>10080</duration>
        <type>quarter</type>
        <stem>down</stem>
        <notehead color="#000000" parentheses="no">normal</notehead>
        <lyric name="1" number="1">
          <syllabic>begin</syllabic>
          <text>an</text>
        </lyric>
      </note>
      <note color="#000000">
        <pitch>
          <step>A</step>
          <octave>4</octave>
        </pitch>
        <duration>10080</duration>
        <type>quarter</type>
        <stem>up</stem>
        <notehead color="#000000" parentheses="no">normal</notehead>
        <lyric name="1" number="1">
          <syllabic>middle</syllabic>
          <text>y</text>
        </lyric>
      </note>
      <note color="#000000">
        <pitch>
          <step>C</step>
          <octave>5</octave>
        </pitch>
        <duration>10080</duration>
        <type>quarter</type>
        <stem>down</stem>
        <notehead color="#000000" parentheses="no">normal</notehead>
        <lyric name="1" number="1">
          <syllabic>middle</syllabic>
          <text>bod</text>
        </lyric>
      </note>
      <note color="#000000">
        <pitch>
          <step>A</step>
          <octave>4</octave>
        </pitch>
        <duration>10080</duration>
        <type>quarter</type>
        <stem>up</stem>
        <notehead color="#000000" parentheses="no">normal</notehead>
        <lyric name="1" number="1">
          <syllabic>end</syllabic>
          <text>y</text>
        </lyric>
      </note>
    </measure>
    <!--========================= Measure 14 =========================-->
    <measure number="14" width="250">
      <harmony color="#000000" default-y="25">
        <root>
          <root-step>G</root-step>
        </root>
        <kind>dominant</kind>
      </harmony>
      <note color="#000000">
        <pitch>
          <step>G</step>
          <octave>4</octave>
        </pitch>
        <duration>20160</duration>
        <type>half</type>
        <stem>up</stem>
        <notehead color="#000000" parentheses="no">normal</notehead>
        <lyric name="1" number="1">
          <syllabic>single</syllabic>
          <text>seen</text>
        </lyric>
      </note>
      <note color="#000000">
        <pitch>
          <step>E</step>
          <octave>4</octave>
        </pitch>
        <duration>20160</duration>
        <type>half</type>
        <stem>up</stem>
        <notehead color="#000000" parentheses="no">normal</notehead>
        <lyric name="1" number="1">
          <syllabic>single</syllabic>
          <text>my</text>
        </lyric>
      </note>
    </measure>
    <!--========================= Measure 15 =========================-->
    <measure number="15" width="177">
      <harmony color="#000000" default-y="25">
        <root>
          <root-step>C</root-step>
        </root>
        <kind>major</kind>
      </harmony>
      <note color="#000000">
        <pitch>
          <step>C</step>
          <octave>4</octave>
        </pitch>
        <duration>40320</duration>
        <tie type="start" />
        <type>whole</type>
        <stem>up</stem>
        <notehead color="#000000" parentheses="no">normal</notehead>
        <notations>
          <tied type="start" />
        </notations>
        <lyric name="1" number="1">
          <syllabic>single</syllabic>
          <text>girl?</text>
        </lyric>
      </note>
    </measure>
    <!--========================= Measure 16 =========================-->
    <measure number="16" width="292">
      <note color="#000000">
        <pitch>
          <step>C</step>
          <octave>4</octave>
        </pitch>
        <duration>10080</duration>
        <type>quarter</type>
        <stem>up</stem>
        <notehead color="#000000" parentheses="no">normal</notehead>
      </note>
      <direction>
        <direction-type>
          <words default-y="27" enclosure="none" font-size="12.032" justify="left">N.C.</words>
        </direction-type>
      </direction>
      <note color="#000000">
        <pitch>
          <step>E</step>
          <octave>4</octave>
        </pitch>
        <duration>10080</duration>
        <type>quarter</type>
        <stem>up</stem>
        <notehead color="#000000" parentheses="no">normal</notehead>
        <lyric name="1" number="1">
          <syllabic>single</syllabic>
          <text>how</text>
        </lyric>
      </note>
      <note color="#000000">
        <pitch>
          <step>E</step>
          <alter>-1</alter>
          <octave>4</octave>
        </pitch>
        <duration>10080</duration>
        <type>quarter</type>
        <accidental>flat</accidental>
        <stem>up</stem>
        <notehead color="#000000" parentheses="no">normal</notehead>
        <lyric name="1" number="1">
          <syllabic>single</syllabic>
          <text>if</text>
        </lyric>
      </note>
      <note color="#000000">
        <pitch>
          <step>E</step>
          <alter>0</alter>
          <octave>4</octave>
        </pitch>
        <duration>10080</duration>
        <type>quarter</type>
        <accidental>natural</accidental>
        <stem>up</stem>
        <notehead color="#000000" parentheses="no">normal</notehead>
        <lyric name="1" number="1">
          <syllabic>single</syllabic>
          <text>you</text>
        </lyric>
      </note>
    </measure>
    <!--========================= Measure 17 =========================-->
    <measure number="17" width="331">
      <print new-system="yes">
        <system-layout>
          <system-margins>
            <left-margin>22</left-margin>
            <right-margin>0</right-margin>
          </system-margins>
          <system-distance>116</system-distance>
        </system-layout>
        <staff-layout number="1" />
      </print>
      <attributes>
        <staff-details print-object="yes" />
      </attributes>
      <harmony color="#000000" default-y="25">
        <root>
          <root-step>E</root-step>
        </root>
        <kind>dominant</kind>
      </harmony>
      <note color="#000000">
        <pitch>
          <step>B</step>
          <octave>4</octave>
        </pitch>
        <duration>10080</duration>
        <type>quarter</type>
        <stem>down</stem>
        <notehead color="#000000" parentheses="no">normal</notehead>
        <lyric name="1" number="1">
          <syllabic>single</syllabic>
          <text>run</text>
        </lyric>
      </note>
      <note color="#000000">
        <pitch>
          <step>C</step>
          <octave>5</octave>
        </pitch>
        <duration>10080</duration>
        <type>quarter</type>
        <stem>down</stem>
        <notehead color="#000000" parentheses="no">normal</notehead>
        <lyric name="1" number="1">
          <syllabic>begin</syllabic>
          <text>in</text>
        </lyric>
      </note>
      <note color="#000000">
        <pitch>
          <step>B</step>
          <octave>4</octave>
        </pitch>
        <duration>10080</duration>
        <type>quarter</type>
        <stem>down</stem>
        <notehead color="#000000" parentheses="no">normal</notehead>
        <lyric name="1" number="1">
          <syllabic>end</syllabic>
          <text>to</text>
        </lyric>
      </note>
      <note>
        <rest />
        <duration>5040</duration>
        <type>eighth</type>
      </note>
      <note color="#000000">
        <pitch>
          <step>E</step>
          <octave>4</octave>
        </pitch>
        <duration>5040</duration>
        <type>eighth</type>
        <stem>up</stem>
        <notehead color="#000000" parentheses="no">normal</notehead>
        <lyric name="1" number="1">
          <syllabic>single</syllabic>
          <text>a</text>
        </lyric>
      </note>
    </measure>
    <!--========================= Measure 18 =========================-->
    <measure number="18" width="261">
      <note color="#000000">
        <pitch>
          <step>B</step>
          <octave>4</octave>
        </pitch>
        <duration>10080</duration>
        <type>quarter</type>
        <stem>down</stem>
        <notehead color="#000000" parentheses="no">normal</notehead>
        <lyric name="1" number="1">
          <syllabic>single</syllabic>
          <text>five</text>
        </lyric>
      </note>
      <note color="#000000">
        <pitch>
          <step>C</step>
          <octave>5</octave>
        </pitch>
        <duration>10080</duration>
        <type>quarter</type>
        <stem>down</stem>
        <notehead color="#000000" parentheses="no">normal</notehead>
        <lyric name="1" number="1">
          <syllabic>single</syllabic>
          <text>foot</text>
        </lyric>
      </note>
      <note color="#000000">
        <pitch>
          <step>B</step>
          <octave>4</octave>
        </pitch>
        <duration>10080</duration>
        <type>quarter</type>
        <stem>down</stem>
        <notehead color="#000000" parentheses="no">normal</notehead>
        <lyric name="1" number="1">
          <syllabic>single</syllabic>
          <text>two</text>
        </lyric>
      </note>
      <note>
        <rest />
        <duration>10080</duration>
        <type>quarter</type>
      </note>
    </measure>
    <!--========================= Measure 19 =========================-->
    <measure number="19" width="261">
      <harmony color="#000000" default-y="25">
        <root>
          <root-step>A</root-step>
        </root>
        <kind>dominant</kind>
      </harmony>
      <note color="#000000">
        <pitch>
          <step>B</step>
          <octave>4</octave>
        </pitch>
        <duration>10080</duration>
        <type>quarter</type>
        <stem>down</stem>
        <notehead color="#000000" parentheses="no">normal</notehead>
        <lyric name="1" number="1">
          <syllabic>begin</syllabic>
          <text>cov</text>
        </lyric>
      </note>
      <note color="#000000">
        <pitch>
          <step>A</step>
          <octave>4</octave>
        </pitch>
        <duration>10080</duration>
        <type>quarter</type>
        <stem>up</stem>
        <notehead color="#000000" parentheses="no">normal</notehead>
        <lyric name="1" number="1">
          <syllabic>end</syllabic>
          <text>ered</text>
        </lyric>
      </note>
      <note color="#000000">
        <pitch>
          <step>B</step>
          <octave>4</octave>
        </pitch>
        <duration>10080</duration>
        <type>quarter</type>
        <stem>down</stem>
        <notehead color="#000000" parentheses="no">normal</notehead>
        <lyric name="1" number="1">
          <syllabic>single</syllabic>
          <text>with</text>
        </lyric>
      </note>
      <note color="#000000">
        <pitch>
          <step>A</step>
          <octave>4</octave>
        </pitch>
        <duration>10080</duration>
        <tie type="start" />
        <type>quarter</type>
        <stem>up</stem>
        <notehead color="#000000" parentheses="no">normal</notehead>
        <notations>
          <tied type="start" />
        </notations>
        <lyric name="1" number="1">
          <syllabic>single</syllabic>
          <text>fur,</text>
        </lyric>
      </note>
    </measure>
    <!--========================= Measure 20 =========================-->
    <measure number="20" width="200">
      <note color="#000000">
        <pitch>
          <step>A</step>
          <octave>4</octave>
        </pitch>
        <duration>30240</duration>
        <type>half</type>
        <dot />
        <stem>up</stem>
        <notehead color="#000000" parentheses="no">normal</notehead>
      </note>
      <note>
        <rest />
        <duration>10080</duration>
        <type>quarter</type>
      </note>
    </measure>
    <!--========================= Measure 21 =========================-->
    <measure number="21" width="311">
      <print new-system="yes">
        <system-layout>
          <system-margins>
            <left-margin>22</left-margin>
            <right-margin>0</right-margin>
          </system-margins>
          <system-distance>112</system-distance>
        </system-layout>
        <staff-layout number="1" />
      </print>
      <attributes>
        <staff-details print-object="yes" />
      </attributes>
      <harmony color="#000000" default-y="25">
        <root>
          <root-step>D</root-step>
        </root>
        <kind>dominant</kind>
      </harmony>
      <note color="#000000">
        <pitch>
          <step>A</step>
          <octave>4</octave>
        </pitch>
        <duration>10080</duration>
        <type>quarter</type>
        <stem>up</stem>
        <notehead color="#000000" parentheses="no">normal</notehead>
        <lyric name="1" number="1">
          <syllabic>begin</syllabic>
          <text>dia</text>
        </lyric>
      </note>
      <note color="#000000">
        <pitch>
          <step>B</step>
          <octave>4</octave>
        </pitch>
        <duration>10080</duration>
        <type>quarter</type>
        <stem>down</stem>
        <notehead color="#000000" parentheses="no">normal</notehead>
        <lyric name="1" number="1">
          <syllabic>end</syllabic>
          <text>mond</text>
        </lyric>
      </note>
      <note color="#000000">
        <pitch>
          <step>A</step>
          <octave>4</octave>
        </pitch>
        <duration>10080</duration>
        <type>quarter</type>
        <stem>up</stem>
        <notehead color="#000000" parentheses="no">normal</notehead>
        <lyric name="1" number="1">
          <syllabic>single</syllabic>
          <text>rings,</text>
        </lyric>
      </note>
      <note>
        <rest />
        <duration>5040</duration>
        <type>eighth</type>
      </note>
      <note color="#000000">
        <pitch>
          <step>D</step>
          <octave>4</octave>
        </pitch>
        <duration>5040</duration>
        <type>eighth</type>
        <stem>up</stem>
        <notehead color="#000000" parentheses="no">normal</notehead>
        <lyric name="1" number="1">
          <syllabic>single</syllabic>
          <text>and</text>
        </lyric>
      </note>
    </measure>
    <!--========================= Measure 22 =========================-->
    <measure number="22" width="248">
      <note color="#000000">
        <pitch>
          <step>A</step>
          <octave>4</octave>
        </pitch>
        <duration>10080</duration>
        <type>quarter</type>
        <stem>up</stem>
        <notehead color="#000000" parentheses="no">normal</notehead>
        <lyric name="1" number="1">
          <syllabic>single</syllabic>
          <text>all</text>
        </lyric>
      </note>
      <note color="#000000">
        <pitch>
          <step>B</step>
          <octave>4</octave>
        </pitch>
        <duration>10080</duration>
        <type>quarter</type>
        <stem>down</stem>
        <notehead color="#000000" parentheses="no">normal</notehead>
        <lyric name="1" number="1">
          <syllabic>single</syllabic>
          <text>those</text>
        </lyric>
      </note>
      <note color="#000000">
        <pitch>
          <step>A</step>
          <octave>4</octave>
        </pitch>
        <duration>10080</duration>
        <type>quarter</type>
        <stem>up</stem>
        <notehead color="#000000" parentheses="no">normal</notehead>
        <lyric name="1" number="1">
          <syllabic>single</syllabic>
          <text>things,</text>
        </lyric>
      </note>
      <note>
        <rest />
        <duration>10080</duration>
        <type>quarter</type>
      </note>
    </measure>
    <!--========================= Measure 23 =========================-->
    <measure number="23" width="235">
      <harmony color="#000000" default-y="25">
        <root>
          <root-step>G</root-step>
        </root>
        <kind>dominant</kind>
      </harmony>
      <note color="#000000">
        <pitch>
          <step>B</step>
          <octave>4</octave>
        </pitch>
        <duration>10080</duration>
        <type>quarter</type>
        <stem>down</stem>
        <notehead color="#000000" parentheses="no">normal</notehead>
        <lyric name="1" number="1">
          <syllabic>begin</syllabic>
          <text>bet</text>
        </lyric>
      </note>
      <note color="#000000">
        <pitch>
          <step>D</step>
          <octave>5</octave>
        </pitch>
        <duration>10080</duration>
        <type>quarter</type>
        <stem>down</stem>
        <notehead color="#000000" parentheses="no">normal</notehead>
        <lyric name="1" number="1">
          <syllabic>end</syllabic>
          <text>cha</text>
        </lyric>
      </note>
      <note color="#000000">
        <pitch>
          <step>B</step>
          <octave>4</octave>
        </pitch>
        <duration>10080</duration>
        <type>quarter</type>
        <stem>down</stem>
        <notehead color="#000000" parentheses="no">normal</notehead>
        <lyric name="1" number="1">
          <syllabic>single</syllabic>
          <text>life</text>
        </lyric>
      </note>
      <note color="#000000">
        <pitch>
          <step>G</step>
          <octave>4</octave>
        </pitch>
        <duration>10080</duration>
        <type>quarter</type>
        <stem>up</stem>
        <notehead color="#000000" parentheses="no">normal</notehead>
        <lyric name="1" number="1">
          <syllabic>single</syllabic>
          <text>it</text>
        </lyric>
      </note>
    </measure>
    <!--========================= Measure 24 =========================-->
    <measure number="24" width="260">
      <note color="#000000">
        <pitch>
          <step>F</step>
          <octave>4</octave>
        </pitch>
        <duration>5040</duration>
        <type>eighth</type>
        <stem>up</stem>
        <notehead color="#000000" parentheses="no">normal</notehead>
        <lyric name="1" number="1">
          <syllabic>begin</syllabic>
          <text>is</text>
        </lyric>
      </note>
      <note color="#000000">
        <pitch>
          <step>E</step>
          <octave>4</octave>
        </pitch>
        <duration>10080</duration>
        <type>quarter</type>
        <stem>up</stem>
        <notehead color="#000000" parentheses="no">normal</notehead>
        <lyric name="1" number="1">
          <syllabic>end</syllabic>
          <text>nt</text>
        </lyric>
      </note>
      <note color="#000000">
        <pitch>
          <step>D</step>
          <octave>4</octave>
        </pitch>
        <duration>5040</duration>
        <tie type="start" />
        <type>eighth</type>
        <stem>up</stem>
        <notehead color="#000000" parentheses="no">normal</notehead>
        <notations>
          <tied type="start" />
        </notations>
        <lyric name="1" number="1">
          <syllabic>single</syllabic>
          <text>her</text>
        </lyric>
      </note>
      <note color="#000000">
        <pitch>
          <step>D</step>
          <octave>4</octave>
        </pitch>
        <duration>10080</duration>
        <tie type="stop" />
        <type>quarter</type>
        <stem>up</stem>
        <notehead color="#000000" parentheses="no">normal</notehead>
        <notations>
          <tied type="stop" />
        </notations>
      </note>
      <note color="#000000">
        <pitch>
          <step>E</step>
          <alter>-1</alter>
          <octave>4</octave>
        </pitch>
        <duration>10080</duration>
        <type>quarter</type>
        <accidental>flat</accidental>
        <stem>up</stem>
        <notehead color="#000000" parentheses="no">normal</notehead>
        <lyric name="1" number="1">
          <syllabic>single</syllabic>
          <text>but</text>
        </lyric>
      </note>
    </measure>
    <!--========================= Measure 25 =========================-->
    <measure number="25" width="287">
      <print new-system="yes">
        <system-layout>
          <system-margins>
            <left-margin>22</left-margin>
            <right-margin>0</right-margin>
          </system-margins>
          <system-distance>114</system-distance>
        </system-layout>
        <staff-layout number="1" />
      </print>
      <attributes>
        <staff-details print-object="yes" />
      </attributes>
      <harmony color="#000000" default-y="25">
        <root>
          <root-step>C</root-step>
        </root>
        <kind>major</kind>
      </harmony>
      <note color="#000000">
        <pitch>
          <step>E</step>
          <octave>4</octave>
        </pitch>
        <duration>10080</duration>
        <type>quarter</type>
        <stem>up</stem>
        <notehead color="#000000" parentheses="no">normal</notehead>
        <lyric name="1" number="1">
          <syllabic>single</syllabic>
          <text>could</text>
        </lyric>
      </note>
      <note color="#000000">
        <pitch>
          <step>G</step>
          <octave>4</octave>
        </pitch>
        <duration>10080</duration>
        <type>quarter</type>
        <stem>up</stem>
        <notehead color="#000000" parentheses="no">normal</notehead>
        <lyric name="1" number="1">
          <syllabic>single</syllabic>
          <text>she</text>
        </lyric>
      </note>
      <note color="#000000">
        <pitch>
          <step>E</step>
          <octave>4</octave>
        </pitch>
        <duration>10080</duration>
        <type>quarter</type>
        <stem>up</stem>
        <notehead color="#000000" parentheses="no">normal</notehead>
        <lyric name="1" number="1">
          <syllabic>single</syllabic>
          <text>love,</text>
        </lyric>
      </note>
      <note>
        <rest />
        <duration>10080</duration>
        <type>quarter</type>
      </note>
    </measure>
    <!--========================= Measure 26 =========================-->
    <measure number="26" width="245">
      <harmony color="#000000" default-y="25">
        <root>
          <root-step>E</root-step>
        </root>
        <kind>dominant</kind>
      </harmony>
      <note color="#000000">
        <pitch>
          <step>E</step>
          <octave>4</octave>
        </pitch>
        <duration>10080</duration>
        <type>quarter</type>
        <stem>up</stem>
        <notehead color="#000000" parentheses="no">normal</notehead>
        <lyric name="1" number="1">
          <syllabic>single</syllabic>
          <text>could</text>
        </lyric>
      </note>
      <note color="#000000">
        <pitch>
          <step>G</step>
          <alter>1</alter>
          <octave>4</octave>
        </pitch>
        <duration>10080</duration>
        <type>quarter</type>
        <accidental>sharp</accidental>
        <stem>up</stem>
        <notehead color="#000000" parentheses="no">normal</notehead>
        <lyric name="1" number="1">
          <syllabic>single</syllabic>
          <text>she</text>
        </lyric>
      </note>
      <note color="#000000">
        <pitch>
          <step>E</step>
          <octave>4</octave>
        </pitch>
        <duration>10080</duration>
        <type>quarter</type>
        <stem>up</stem>
        <notehead color="#000000" parentheses="no">normal</notehead>
        <lyric name="1" number="1">
          <syllabic>single</syllabic>
          <text>woo?</text>
        </lyric>
      </note>
      <note>
        <rest />
        <duration>10080</duration>
        <type>quarter</type>
      </note>
    </measure>
    <!--========================= Measure 27 =========================-->
    <measure number="27" width="246">
      <harmony color="#000000" default-y="25">
        <root>
          <root-step>A</root-step>
        </root>
        <kind>dominant</kind>
      </harmony>
      <note color="#000000">
        <pitch>
          <step>E</step>
          <octave>4</octave>
        </pitch>
        <duration>10080</duration>
        <type>quarter</type>
        <stem>up</stem>
        <notehead color="#000000" parentheses="no">normal</notehead>
        <lyric name="1" number="1">
          <syllabic>single</syllabic>
          <text>could</text>
        </lyric>
      </note>
      <note color="#000000">
        <pitch>
          <step>A</step>
          <octave>4</octave>
        </pitch>
        <duration>10080</duration>
        <type>quarter</type>
        <stem>up</stem>
        <notehead color="#000000" parentheses="no">normal</notehead>
        <lyric name="1" number="1">
          <syllabic>single</syllabic>
          <text>she,</text>
        </lyric>
      </note>
      <note color="#000000">
        <pitch>
          <step>E</step>
          <octave>4</octave>
        </pitch>
        <duration>10080</duration>
        <type>quarter</type>
        <stem>up</stem>
        <notehead color="#000000" parentheses="no">normal</notehead>
        <lyric name="1" number="1">
          <syllabic>single</syllabic>
          <text>would</text>
        </lyric>
      </note>
      <note color="#000000">
        <pitch>
          <step>A</step>
          <octave>4</octave>
        </pitch>
        <duration>10080</duration>
        <type>quarter</type>
        <stem>up</stem>
        <notehead color="#000000" parentheses="no">normal</notehead>
        <lyric name="1" number="1">
          <syllabic>single</syllabic>
          <text>she,</text>
        </lyric>
      </note>
    </measure>
    <!--========================= Measure 28 =========================-->
    <measure number="28" width="275">
      <note color="#000000">
        <pitch>
          <step>E</step>
          <octave>4</octave>
        </pitch>
        <duration>10080</duration>
        <type>quarter</type>
        <stem>up</stem>
        <notehead color="#000000" parentheses="no">normal</notehead>
        <lyric name="1" number="1">
          <syllabic>single</syllabic>
          <text>could</text>
        </lyric>
      </note>
      <note color="#000000">
        <pitch>
          <step>A</step>
          <octave>4</octave>
        </pitch>
        <duration>5040</duration>
        <type>eighth</type>
        <stem>up</stem>
        <notehead color="#000000" parentheses="no">normal</notehead>
        <beam number="1">begin</beam>
        <lyric name="1" number="1">
          <syllabic>single</syllabic>
          <text>she</text>
        </lyric>
      </note>
      <note color="#000000">
        <pitch>
          <step>E</step>
          <octave>4</octave>
        </pitch>
        <duration>5040</duration>
        <tie type="start" />
        <type>eighth</type>
        <stem>up</stem>
        <notehead color="#000000" parentheses="no">normal</notehead>
        <beam number="1">end</beam>
        <notations>
          <tied type="start" />
        </notations>
        <lyric name="1" number="1">
          <syllabic>single</syllabic>
          <text>coo?</text>
        </lyric>
      </note>
      <note color="#000000">
        <pitch>
          <step>E</step>
          <octave>4</octave>
        </pitch>
        <duration>10080</duration>
        <tie type="stop" />
        <type>quarter</type>
        <stem>up</stem>
        <notehead color="#000000" parentheses="no">normal</notehead>
        <notations>
          <tied type="stop" />
        </notations>
      </note>
      <note color="#000000">
        <pitch>
          <step>A</step>
          <octave>4</octave>
        </pitch>
        <duration>10080</duration>
        <type>quarter</type>
        <stem>up</stem>
        <notehead color="#000000" parentheses="no">normal</notehead>
        <lyric name="1" number="1">
          <syllabic>single</syllabic>
          <text>has</text>
        </lyric>
      </note>
    </measure>
    <!--========================= Measure 29 =========================-->
    <measure number="29" width="343">
      <print new-system="yes">
        <system-layout>
          <system-margins>
            <left-margin>22</left-margin>
            <right-margin>0</right-margin>
          </system-margins>
          <system-distance>117</system-distance>
        </system-layout>
        <staff-layout number="1" />
      </print>
      <attributes>
        <staff-details print-object="yes" />
      </attributes>
      <harmony color="#000000" default-y="25">
        <root>
          <root-step>D</root-step>
        </root>
        <kind>dominant</kind>
      </harmony>
      <note color="#000000">
        <pitch>
          <step>C</step>
          <octave>5</octave>
        </pitch>
        <duration>10080</duration>
        <type>quarter</type>
        <stem>down</stem>
        <notehead color="#000000" parentheses="no">normal</notehead>
        <lyric name="1" number="1">
          <syllabic>begin</syllabic>
          <text>an</text>
        </lyric>
      </note>
      <note color="#000000">
        <pitch>
          <step>A</step>
          <octave>4</octave>
        </pitch>
        <duration>10080</duration>
        <type>quarter</type>
        <stem>up</stem>
        <notehead color="#000000" parentheses="no">normal</notehead>
        <lyric name="1" number="1">
          <syllabic>middle</syllabic>
          <text>y</text>
        </lyric>
      </note>
      <note color="#000000">
        <pitch>
          <step>C</step>
          <octave>5</octave>
        </pitch>
        <duration>10080</duration>
        <type>quarter</type>
        <stem>down</stem>
        <notehead color="#000000" parentheses="no">normal</notehead>
        <lyric name="1" number="1">
          <syllabic>middle</syllabic>
          <text>bod</text>
        </lyric>
      </note>
      <note color="#000000">
        <pitch>
          <step>A</step>
          <octave>4</octave>
        </pitch>
        <duration>10080</duration>
        <type>quarter</type>
        <stem>up</stem>
        <notehead color="#000000" parentheses="no">normal</notehead>
        <lyric name="1" number="1">
          <syllabic>end</syllabic>
          <text>y</text>
        </lyric>
      </note>
    </measure>
    <!--========================= Measure 30 =========================-->
    <measure number="30" width="257">
      <harmony color="#000000" default-y="25">
        <root>
          <root-step>G</root-step>
        </root>
        <kind>dominant</kind>
      </harmony>
      <note color="#000000">
        <pitch>
          <step>G</step>
          <octave>4</octave>
        </pitch>
        <duration>20160</duration>
        <type>half</type>
        <stem>up</stem>
        <notehead color="#000000" parentheses="no">normal</notehead>
        <lyric name="1" number="1">
          <syllabic>single</syllabic>
          <text>seen</text>
        </lyric>
      </note>
      <note color="#000000">
        <pitch>
          <step>A</step>
          <octave>4</octave>
        </pitch>
        <duration>20160</duration>
        <type>half</type>
        <stem>up</stem>
        <notehead color="#000000" parentheses="no">normal</notehead>
        <lyric name="1" number="1">
          <syllabic>single</syllabic>
          <text>my</text>
        </lyric>
      </note>
    </measure>
    <!--========================= Measure 31 =========================-->
    <measure number="31" width="182">
      <harmony color="#000000" default-y="25">
        <root>
          <root-step>C</root-step>
        </root>
        <kind>major</kind>
      </harmony>
      <note color="#000000">
        <pitch>
          <step>C</step>
          <octave>5</octave>
        </pitch>
        <duration>40320</duration>
        <tie type="start" />
        <type>whole</type>
        <stem>down</stem>
        <notehead color="#000000" parentheses="no">normal</notehead>
        <notations>
          <tied type="start" />
        </notations>
        <lyric name="1" number="1">
          <syllabic>single</syllabic>
          <text>girl?</text>
        </lyric>
      </note>
    </measure>
    <!--========================= Measure 32 =========================-->
    <measure number="32" width="272">
      <note color="#000000">
        <pitch>
          <step>C</step>
          <octave>5</octave>
        </pitch>
        <duration>20160</duration>
        <type>half</type>
        <stem>down</stem>
        <notehead color="#000000" parentheses="no">normal</notehead>
      </note>
      <note>
        <rest />
        <duration>20160</duration>
        <type>half</type>
      </note>
      <barline location="right">
        <bar-style>light-heavy</bar-style>
      </barline>
    </measure>
  </part>
</score-partwise>