<?xml version="1.0" encoding="utf-8"?>
<!DOCTYPE score-partwise  PUBLIC "-//Recordare//DTD MusicXML 3.1 Partwise//EN" "http://www.musicxml.org/dtds/partwise.dtd">
<score-partwise version="3.1">
  <movement-title>They All Laughed</movement-title>
  <identification>
    <creator type="composer">George Gershwin</creator>
    <creator>Ira Gershwin</creator>
    <encoding>
      <encoding-date>2022-11-09</encoding-date>
      <software>music21 v.8.1.0</software>
      <software>Music21</software>
    </encoding>
  </identification>
  <defaults>
    <scaling>
      <millimeters>7.056</millimeters>
      <tenths>40</tenths>
    </scaling>
    <page-layout>
      <page-height>1683.67</page-height>
      <page-width>1190.48</page-width>
      <page-margins>
        <left-margin>56.6893</left-margin>
        <right-margin>56.6893</right-margin>
        <top-margin>28.3447</top-margin>
        <bottom-margin>28.3447</bottom-margin>
      </page-margins>
    </page-layout>
  </defaults>
  <credit page="1">
    <credit-words default-x="595.238" default-y="1655.33" font-size="24" halign="center" valign="top">They All Laughed</credit-words>
  </credit>
  <part-list>
    <score-part id="P1">
      <part-name>Voice</part-name>
      <part-abbreviation>Ch</part-abbreviation>
      <score-instrument id="I4010f7554f1889fa68974a3114de3366">
        <instrument-name>Voice</instrument-name>
        <instrument-abbreviation>Ch</instrument-abbreviation>
      </score-instrument>
      <midi-instrument id="I4010f7554f1889fa68974a3114de3366">
        <midi-channel>1</midi-channel>
        <midi-program>53</midi-program>
      </midi-instrument>
    </score-part>
  </part-list>
  <!--=========================== Part 1 ===========================-->
  <part id="P1">
    <!--========================= Measure 1 ==========================-->
    <measure number="1" width="332.86">
      <print>
        <system-layout>
          <system-margins>
            <left-margin>69.92</left-margin>
            <right-margin>0</right-margin>
          </system-margins>
          <top-system-distance>192.33</top-system-distance>
        </system-layout>
      </print>
      <attributes>
        <divisions>10080</divisions>
        <key>
          <fifths>0</fifths>
          <mode>major</mode>
        </key>
        <time symbol="cut">
          <beats>2</beats>
          <beat-type>2</beat-type>
        </time>
        <clef>
          <sign>G</sign>
          <line>2</line>
        </clef>
      </attributes>
      <barline location="left">
        <repeat direction="forward" />
      </barline>
      <harmony>
        <root>
          <root-step>C</root-step>
        </root>
        <kind>major</kind>
      </harmony>
      <note>
        <rest />
        <duration>5040</duration>
        <type>eighth</type>
      </note>
      <note>
        <pitch>
          <step>G</step>
          <octave>4</octave>
        </pitch>
        <duration>5040</duration>
        <type>eighth</type>
        <stem>up</stem>
        <lyric name="1" number="1">
          <syllabic>single</syllabic>
          <text>They</text>
        </lyric>
        <lyric name="2" number="2">
          <syllabic>single</syllabic>
          <text>They</text>
        </lyric>
      </note>
      <note>
        <pitch>
          <step>A</step>
          <octave>4</octave>
        </pitch>
        <duration>10080</duration>
        <type>quarter</type>
        <stem>up</stem>
        <lyric name="1" number="1">
          <syllabic>single</syllabic>
          <text>all</text>
        </lyric>
        <lyric name="2" number="2">
          <syllabic>single</syllabic>
          <text>all</text>
        </lyric>
      </note>
      <harmony>
        <root>
          <root-step>A</root-step>
        </root>
        <kind text="m">minor</kind>
      </harmony>
      <note>
        <pitch>
          <step>C</step>
          <octave>5</octave>
        </pitch>
        <duration>10080</duration>
        <type>quarter</type>
        <stem>up</stem>
        <lyric name="1" number="1">
          <syllabic>single</syllabic>
          <text>laughed</text>
        </lyric>
        <lyric name="2" number="2">
          <syllabic>single</syllabic>
          <text>laughed</text>
        </lyric>
      </note>
      <note>
        <pitch>
          <step>D</step>
          <octave>5</octave>
        </pitch>
        <duration>10080</duration>
        <type>quarter</type>
        <stem>up</stem>
        <lyric name="1" number="1">
          <syllabic>single</syllabic>
          <text>at</text>
        </lyric>
        <lyric name="2" number="2">
          <syllabic>single</syllabic>
          <text>at</text>
        </lyric>
      </note>
    </measure>
    <!--========================= Measure 2 ==========================-->
    <measure number="2" width="277.48">
      <harmony>
        <root>
          <root-step>D</root-step>
        </root>
        <kind text="m7">minor-seventh</kind>
      </harmony>
      <note>
        <pitch>
          <step>E</step>
          <octave>5</octave>
        </pitch>
        <duration>7560</duration>
        <type>eighth</type>
        <dot />
        <stem>up</stem>
        <beam number="1">begin</beam>
        <lyric name="1" number="1">
          <syllabic>begin</syllabic>
          <text>Chris</text>
        </lyric>
        <lyric name="2" number="2">
          <syllabic>begin</syllabic>
          <text>Rock</text>
        </lyric>
      </note>
      <note>
        <pitch>
          <step>E</step>
          <octave>5</octave>
        </pitch>
        <duration>2520</duration>
        <type>16th</type>
        <stem>up</stem>
        <beam number="1">continue</beam>
        <lyric name="1" number="1">
          <syllabic>middle</syllabic>
          <text>to</text>
        </lyric>
        <lyric name="2" number="2">
          <syllabic>begin</syllabic>
          <text>er</text>
        </lyric>
      </note>
      <note>
        <pitch>
          <step>D</step>
          <octave>5</octave>
        </pitch>
        <duration>7560</duration>
        <type>eighth</type>
        <dot />
        <stem>up</stem>
        <beam number="1">continue</beam>
        <lyric name="1" number="1">
          <syllabic>end</syllabic>
          <text>pher</text>
        </lyric>
        <lyric name="2" number="2">
          <syllabic>middle</syllabic>
          <text>fel</text>
        </lyric>
      </note>
      <note>
        <pitch>
          <step>C</step>
          <octave>5</octave>
        </pitch>
        <duration>2520</duration>
        <type>16th</type>
        <stem>up</stem>
        <beam number="1">end</beam>
        <lyric name="1" number="1">
          <syllabic>begin</syllabic>
          <text>Col</text>
        </lyric>
        <lyric name="2" number="2">
          <syllabic>end</syllabic>
          <text>ler</text>
        </lyric>
      </note>
      <harmony>
        <root>
          <root-step>G</root-step>
        </root>
        <kind text="7">dominant</kind>
      </harmony>
      <note>
        <pitch>
          <step>D</step>
          <octave>5</octave>
        </pitch>
        <duration>5040</duration>
        <type>eighth</type>
        <stem>up</stem>
        <lyric name="1" number="1">
          <syllabic>middle</syllabic>
          <text>um</text>
        </lyric>
        <lyric name="2" number="2">
          <syllabic>begin</syllabic>
          <text>Cen</text>
        </lyric>
      </note>
      <note>
        <pitch>
          <step>E</step>
          <octave>5</octave>
        </pitch>
        <duration>15120</duration>
        <type>quarter</type>
        <dot />
        <stem>down</stem>
        <lyric name="1" number="1">
          <syllabic>end</syllabic>
          <text>bus</text>
        </lyric>
        <lyric name="2" number="2">
          <syllabic>end</syllabic>
          <text>ter,</text>
        </lyric>
      </note>
    </measure>
    <!--========================= Measure 3 ==========================-->
    <measure number="3" width="396.83">
      <harmony>
        <root>
          <root-step>D</root-step>
        </root>
        <kind text="m7">minor-seventh</kind>
      </harmony>
      <note>
        <pitch>
          <step>E</step>
          <octave>5</octave>
        </pitch>
        <duration>7560</duration>
        <type>eighth</type>
        <dot />
        <stem>up</stem>
        <beam number="1">begin</beam>
        <lyric name="1" number="1">
          <syllabic>single</syllabic>
          <text>when</text>
        </lyric>
        <lyric name="2" number="2">
          <syllabic>single</syllabic>
          <text>now</text>
        </lyric>
      </note>
      <note>
        <pitch>
          <step>E</step>
          <octave>5</octave>
        </pitch>
        <duration>2520</duration>
        <type>16th</type>
        <stem>up</stem>
        <beam number="1">continue</beam>
        <lyric name="1" number="1">
          <syllabic>single</syllabic>
          <text>he</text>
        </lyric>
        <lyric name="2" number="2">
          <syllabic>single</syllabic>
          <text>they're</text>
        </lyric>
      </note>
      <note>
        <pitch>
          <step>D</step>
          <octave>5</octave>
        </pitch>
        <duration>7560</duration>
        <type>eighth</type>
        <dot />
        <stem>up</stem>
        <beam number="1">continue</beam>
        <lyric name="1" number="1">
          <syllabic>single</syllabic>
          <text>said</text>
        </lyric>
        <lyric name="2" number="2">
          <syllabic>begin</syllabic>
          <text>fight</text>
        </lyric>
      </note>
      <note>
        <pitch>
          <step>C</step>
          <octave>5</octave>
        </pitch>
        <duration>2520</duration>
        <type>16th</type>
        <stem>up</stem>
        <beam number="1">end</beam>
        <lyric name="1" number="1">
          <syllabic>single</syllabic>
          <text>the</text>
        </lyric>
        <lyric name="2" number="2">
          <syllabic>end</syllabic>
          <text>in'</text>
        </lyric>
      </note>
      <harmony>
        <root>
          <root-step>G</root-step>
          <root-alter>0</root-alter>
        </root>
        <kind text="7b9">dominant</kind>
        <degree>
          <degree-value>9</degree-value>
          <degree-alter>-1</degree-alter>
          <degree-type>add</degree-type>
        </degree>
      </harmony>
      <note>
        <pitch>
          <step>D</step>
          <octave>5</octave>
        </pitch>
        <duration>5040</duration>
        <type>eighth</type>
        <stem>up</stem>
        <lyric name="1" number="1">
          <syllabic>single</syllabic>
          <text>world</text>
        </lyric>
        <lyric name="2" number="2">
          <syllabic>single</syllabic>
          <text>to</text>
        </lyric>
      </note>
      <note>
        <pitch>
          <step>E</step>
          <octave>5</octave>
        </pitch>
        <duration>10080</duration>
        <type>quarter</type>
        <stem>down</stem>
        <lyric name="1" number="1">
          <syllabic>single</syllabic>
          <text>was</text>
        </lyric>
        <lyric name="2" number="2">
          <syllabic>single</syllabic>
          <text>get</text>
        </lyric>
      </note>
      <note>
        <pitch>
          <step>G</step>
          <alter>0</alter>
          <octave>4</octave>
        </pitch>
        <duration>5040</duration>
        <tie type="start" />
        <type>eighth</type>
        <accidental>natural</accidental>
        <stem>up</stem>
        <notations>
          <tied type="start" />
        </notations>
        <lyric name="1" number="1">
          <syllabic>single</syllabic>
          <text>round.</text>
        </lyric>
        <lyric name="2" number="2">
          <syllabic>single</syllabic>
          <text>in.</text>
        </lyric>
      </note>
    </measure>
    <!--========================= Measure 4 ==========================-->
    <measure number="4" width="239.05">
      <print new-system="yes">
        <system-layout>
          <system-margins>
            <left-margin>47.28</left-margin>
            <right-margin>0</right-margin>
          </system-margins>
          <system-distance>143.69</system-distance>
        </system-layout>
      </print>
      <harmony>
        <root>
          <root-step>C</root-step>
        </root>
        <kind>major</kind>
      </harmony>
      <harmony relative-x="1200">
        <root>
          <root-step>E</root-step>
          <root-alter>-1</root-alter>
        </root>
        <kind text="7">dominant</kind>
      </harmony>
      <harmony relative-x="2900">
        <root>
          <root-step>D</root-step>
        </root>
        <kind text="7">dominant</kind>
      </harmony>
      <harmony relative-x="4600">
        <root>
          <root-step>G</root-step>
        </root>
        <kind text="7">dominant</kind>
      </harmony>
      <note>
        <pitch>
          <step>G</step>
          <octave>4</octave>
        </pitch>
        <duration>40320</duration>
        <tie type="stop" />
        <type>whole</type>
        <notations>
          <tied type="stop" />
        </notations>
      </note>
    </measure>
    <!--========================= Measure 5 ==========================-->
    <measure number="5" width="349.44">
      <harmony>
        <root>
          <root-step>C</root-step>
        </root>
        <kind>major</kind>
      </harmony>
      <note>
        <rest />
        <duration>5040</duration>
        <type>eighth</type>
      </note>
      <note>
        <pitch>
          <step>G</step>
          <octave>4</octave>
        </pitch>
        <duration>5040</duration>
        <type>eighth</type>
        <stem>up</stem>
        <lyric name="1" number="1">
          <syllabic>single</syllabic>
          <text>They</text>
        </lyric>
        <lyric name="2" number="2">
          <syllabic>single</syllabic>
          <text>They</text>
        </lyric>
      </note>
      <note>
        <pitch>
          <step>A</step>
          <octave>4</octave>
        </pitch>
        <duration>10080</duration>
        <type>quarter</type>
        <stem>up</stem>
        <lyric name="1" number="1">
          <syllabic>single</syllabic>
          <text>all</text>
        </lyric>
        <lyric name="2" number="2">
          <syllabic>single</syllabic>
          <text>all</text>
        </lyric>
      </note>
      <harmony>
        <root>
          <root-step>A</root-step>
        </root>
        <kind text="m">minor</kind>
      </harmony>
      <note>
        <pitch>
          <step>C</step>
          <octave>5</octave>
        </pitch>
        <duration>10080</duration>
        <type>quarter</type>
        <stem>up</stem>
        <lyric name="1" number="1">
          <syllabic>single</syllabic>
          <text>laughed</text>
        </lyric>
        <lyric name="2" number="2">
          <syllabic>single</syllabic>
          <text>laughed</text>
        </lyric>
      </note>
      <note>
        <pitch>
          <step>D</step>
          <octave>5</octave>
        </pitch>
        <duration>10080</duration>
        <type>quarter</type>
        <stem>up</stem>
        <lyric name="1" number="1">
          <syllabic>single</syllabic>
          <text>when</text>
        </lyric>
        <lyric name="2" number="2">
          <syllabic>single</syllabic>
          <text>at</text>
        </lyric>
      </note>
    </measure>
    <!--========================= Measure 6 ==========================-->
    <measure number="6" width="441.33">
      <harmony>
        <root>
          <root-step>D</root-step>
        </root>
        <kind text="m7">minor-seventh</kind>
      </harmony>
      <note>
        <pitch>
          <step>E</step>
          <octave>5</octave>
        </pitch>
        <duration>7560</duration>
        <type>eighth</type>
        <dot />
        <stem>up</stem>
        <beam number="1">begin</beam>
        <lyric name="1" number="1">
          <syllabic>begin</syllabic>
          <text>Ed</text>
        </lyric>
        <lyric name="2" number="2">
          <syllabic>begin</syllabic>
          <text>Whit</text>
        </lyric>
      </note>
      <note>
        <pitch>
          <step>E</step>
          <octave>5</octave>
        </pitch>
        <duration>2520</duration>
        <type>16th</type>
        <stem>up</stem>
        <beam number="1">continue</beam>
        <lyric name="1" number="1">
          <syllabic>middle</syllabic>
          <text>i</text>
        </lyric>
        <lyric name="2" number="2">
          <syllabic>end</syllabic>
          <text>ney</text>
        </lyric>
      </note>
      <note>
        <pitch>
          <step>D</step>
          <octave>5</octave>
        </pitch>
        <duration>7560</duration>
        <type>eighth</type>
        <dot />
        <stem>up</stem>
        <beam number="1">continue</beam>
        <lyric name="1" number="1">
          <syllabic>end</syllabic>
          <text>son</text>
        </lyric>
        <lyric name="2" number="2">
          <syllabic>single</syllabic>
          <text>and</text>
        </lyric>
      </note>
      <note>
        <pitch>
          <step>C</step>
          <octave>5</octave>
        </pitch>
        <duration>2520</duration>
        <type>16th</type>
        <stem>up</stem>
        <beam number="1">end</beam>
        <lyric name="1" number="1">
          <syllabic>begin</syllabic>
          <text>re</text>
        </lyric>
        <lyric name="2" number="2">
          <syllabic>single</syllabic>
          <text>his</text>
        </lyric>
      </note>
      <harmony>
        <root>
          <root-step>G</root-step>
        </root>
        <kind text="7">dominant</kind>
      </harmony>
      <note>
        <pitch>
          <step>D</step>
          <octave>5</octave>
        </pitch>
        <duration>5040</duration>
        <type>eighth</type>
        <stem>up</stem>
        <lyric name="1" number="1">
          <syllabic>middle</syllabic>
          <text>cord</text>
        </lyric>
        <lyric name="2" number="2">
          <syllabic>begin</syllabic>
          <text>cot</text>
        </lyric>
      </note>
      <note>
        <pitch>
          <step>E</step>
          <octave>5</octave>
        </pitch>
        <duration>10080</duration>
        <type>quarter</type>
        <stem>down</stem>
        <lyric name="1" number="1">
          <syllabic>end</syllabic>
          <text>ed</text>
        </lyric>
        <lyric name="2" number="2">
          <syllabic>end</syllabic>
          <text>ton</text>
        </lyric>
      </note>
      <note>
        <pitch>
          <step>C</step>
          <octave>5</octave>
        </pitch>
        <duration>5040</duration>
        <tie type="start" />
        <type>eighth</type>
        <stem>up</stem>
        <notations>
          <tied type="start" />
        </notations>
        <lyric name="1" number="1">
          <syllabic>single</syllabic>
          <text>sound.</text>
        </lyric>
        <lyric name="2" number="2">
          <syllabic>single</syllabic>
          <text>gin.</text>
        </lyric>
      </note>
    </measure>
    <!--========================= Measure 7 ==========================-->
    <measure number="7" width="221.42">
      <print new-system="yes">
        <system-layout>
          <system-margins>
            <left-margin>47.28</left-margin>
            <right-margin>0</right-margin>
          </system-margins>
          <system-distance>143.69</system-distance>
        </system-layout>
      </print>
      <harmony>
        <root>
          <root-step>C</root-step>
        </root>
        <kind text="6">major-sixth</kind>
      </harmony>
      <harmony relative-x="2700">
        <root>
          <root-step>A</root-step>
        </root>
        <kind text="m7">minor-seventh</kind>
      </harmony>
      <note>
        <pitch>
          <step>C</step>
          <octave>5</octave>
        </pitch>
        <duration>40320</duration>
        <tie type="stop" />
        <tie type="start" />
        <type>whole</type>
        <notations>
          <tied type="stop" />
          <tied type="start" />
        </notations>
      </note>
    </measure>
    <!--========================= Measure 8 ==========================-->
    <measure number="8" width="176">
      <harmony>
        <root>
          <root-step>D</root-step>
        </root>
        <kind text="m7">minor-seventh</kind>
      </harmony>
      <note>
        <pitch>
          <step>C</step>
          <octave>5</octave>
        </pitch>
        <duration>30240</duration>
        <tie type="stop" />
        <type>half</type>
        <dot />
        <stem>up</stem>
        <notations>
          <tied type="stop" />
        </notations>
      </note>
      <harmony>
        <root>
          <root-step>G</root-step>
        </root>
        <kind text="7">dominant</kind>
      </harmony>
      <note>
        <rest />
        <duration>10080</duration>
        <type>quarter</type>
      </note>
    </measure>
    <!--========================= Measure 9 ==========================-->
    <measure number="9" width="289.24">
      <harmony>
        <root>
          <root-step>C</root-step>
        </root>
        <kind>major</kind>
      </harmony>
      <note>
        <rest />
        <duration>5040</duration>
        <type>eighth</type>
      </note>
      <note>
        <pitch>
          <step>G</step>
          <octave>4</octave>
        </pitch>
        <duration>5040</duration>
        <type>eighth</type>
        <stem>up</stem>
        <lyric name="1" number="1">
          <syllabic>single</syllabic>
          <text>They</text>
        </lyric>
        <lyric name="2" number="2">
          <syllabic>single</syllabic>
          <text>They</text>
        </lyric>
      </note>
      <note>
        <pitch>
          <step>A</step>
          <octave>4</octave>
        </pitch>
        <duration>10080</duration>
        <type>quarter</type>
        <stem>up</stem>
        <lyric name="1" number="1">
          <syllabic>single</syllabic>
          <text>all</text>
        </lyric>
        <lyric name="2" number="2">
          <syllabic>single</syllabic>
          <text>all</text>
        </lyric>
      </note>
      <harmony>
        <root>
          <root-step>A</root-step>
        </root>
        <kind text="m">minor</kind>
      </harmony>
      <note>
        <pitch>
          <step>C</step>
          <octave>5</octave>
        </pitch>
        <duration>10080</duration>
        <type>quarter</type>
        <stem>up</stem>
        <lyric name="1" number="1">
          <syllabic>single</syllabic>
          <text>laughed</text>
        </lyric>
        <lyric name="2" number="2">
          <syllabic>single</syllabic>
          <text>laughed</text>
        </lyric>
      </note>
      <note>
        <pitch>
          <step>D</step>
          <octave>5</octave>
        </pitch>
        <duration>10080</duration>
        <type>quarter</type>
        <stem>up</stem>
        <lyric name="1" number="1">
          <syllabic>single</syllabic>
          <text>at</text>
        </lyric>
        <lyric name="2" number="2">
          <syllabic>single</syllabic>
          <text>at</text>
        </lyric>
      </note>
    </measure>
    <!--========================= Measure 10 =========================-->
    <measure number="10" width="343.16">
      <harmony>
        <root>
          <root-step>D</root-step>
        </root>
        <kind text="m7">minor-seventh</kind>
      </harmony>
      <note>
        <pitch>
          <step>E</step>
          <octave>5</octave>
        </pitch>
        <duration>7560</duration>
        <type>eighth</type>
        <dot />
        <stem>up</stem>
        <beam number="1">begin</beam>
        <lyric name="1" number="1">
          <syllabic>begin</syllabic>
          <text>Wil</text>
        </lyric>
        <lyric name="2" number="2">
          <syllabic>begin</syllabic>
          <text>Ful</text>
        </lyric>
      </note>
      <note>
        <pitch>
          <step>E</step>
          <octave>5</octave>
        </pitch>
        <duration>2520</duration>
        <type>16th</type>
        <stem>up</stem>
        <beam number="1">continue</beam>
        <lyric name="1" number="1">
          <syllabic>end</syllabic>
          <text>bur</text>
        </lyric>
        <lyric name="2" number="2">
          <syllabic>end</syllabic>
          <text>ton</text>
        </lyric>
      </note>
      <note>
        <pitch>
          <step>D</step>
          <octave>5</octave>
        </pitch>
        <duration>7560</duration>
        <type>eighth</type>
        <dot />
        <stem>up</stem>
        <beam number="1">continue</beam>
        <lyric name="1" number="1">
          <syllabic>single</syllabic>
          <text>and</text>
        </lyric>
        <lyric name="2" number="2">
          <syllabic>single</syllabic>
          <text>and</text>
        </lyric>
      </note>
      <note>
        <pitch>
          <step>C</step>
          <octave>5</octave>
        </pitch>
        <duration>2520</duration>
        <type>16th</type>
        <stem>up</stem>
        <beam number="1">end</beam>
        <lyric name="1" number="1">
          <syllabic>single</syllabic>
          <text>his</text>
        </lyric>
        <lyric name="2" number="2">
          <syllabic>single</syllabic>
          <text>his</text>
        </lyric>
      </note>
      <harmony>
        <root>
          <root-step>G</root-step>
        </root>
        <kind text="7">dominant</kind>
      </harmony>
      <note>
        <pitch>
          <step>D</step>
          <octave>5</octave>
        </pitch>
        <duration>5040</duration>
        <type>eighth</type>
        <stem>up</stem>
        <lyric name="1" number="1">
          <syllabic>begin</syllabic>
          <text>broht</text>
        </lyric>
        <lyric name="2" number="2">
          <syllabic>begin</syllabic>
          <text>steam</text>
        </lyric>
      </note>
      <note>
        <pitch>
          <step>E</step>
          <octave>5</octave>
        </pitch>
        <duration>15120</duration>
        <type>quarter</type>
        <dot />
        <stem>down</stem>
        <lyric name="1" number="1">
          <syllabic>end</syllabic>
          <text>er,</text>
        </lyric>
        <lyric name="2" number="2">
          <syllabic>end</syllabic>
          <text>boat,</text>
        </lyric>
      </note>
    </measure>
    <!--========================= Measure 11 =========================-->
    <measure number="11" width="520.23">
      <print new-system="yes">
        <system-layout>
          <system-margins>
            <left-margin>47.28</left-margin>
            <right-margin>0</right-margin>
          </system-margins>
          <system-distance>143.69</system-distance>
        </system-layout>
      </print>
      <harmony>
        <root>
          <root-step>F</root-step>
          <root-alter>1</root-alter>
        </root>
        <kind text="7b9">dominant</kind>
        <degree>
          <degree-value>9</degree-value>
          <degree-alter>-1</degree-alter>
          <degree-type>add</degree-type>
        </degree>
      </harmony>
      <note>
        <pitch>
          <step>G</step>
          <octave>5</octave>
        </pitch>
        <duration>7560</duration>
        <type>eighth</type>
        <dot />
        <stem>down</stem>
        <beam number="1">begin</beam>
        <lyric name="1" number="1">
          <syllabic>single</syllabic>
          <text>when</text>
        </lyric>
        <lyric name="2" number="2">
          <syllabic>begin</syllabic>
          <text>Her</text>
        </lyric>
      </note>
      <note>
        <pitch>
          <step>G</step>
          <octave>5</octave>
        </pitch>
        <duration>2520</duration>
        <type>16th</type>
        <stem>down</stem>
        <beam number="1">continue</beam>
        <lyric name="1" number="1">
          <syllabic>single</syllabic>
          <text>they</text>
        </lyric>
        <lyric name="2" number="2">
          <syllabic>single</syllabic>
          <text>shey</text>
        </lyric>
      </note>
      <note>
        <pitch>
          <step>F</step>
          <alter>1</alter>
          <octave>5</octave>
        </pitch>
        <duration>7560</duration>
        <type>eighth</type>
        <dot />
        <accidental>sharp</accidental>
        <stem>down</stem>
        <beam number="1">continue</beam>
        <lyric name="1" number="1">
          <syllabic>single</syllabic>
          <text>said</text>
        </lyric>
        <lyric name="2" number="2">
          <syllabic>single</syllabic>
          <text>and</text>
        </lyric>
      </note>
      <note>
        <pitch>
          <step>E</step>
          <octave>5</octave>
        </pitch>
        <duration>2520</duration>
        <type>16th</type>
        <stem>down</stem>
        <beam number="1">end</beam>
        <lyric name="1" number="1">
          <syllabic>single</syllabic>
          <text>that</text>
        </lyric>
        <lyric name="2" number="2">
          <syllabic>single</syllabic>
          <text>his</text>
        </lyric>
      </note>
      <harmony>
        <root>
          <root-step>B</root-step>
          <root-alter>0</root-alter>
        </root>
        <kind text="7b9">dominant</kind>
        <degree>
          <degree-value>9</degree-value>
          <degree-alter>-1</degree-alter>
          <degree-type>add</degree-type>
        </degree>
      </harmony>
      <note>
        <pitch>
          <step>F</step>
          <alter>0</alter>
          <octave>5</octave>
        </pitch>
        <duration>5040</duration>
        <type>eighth</type>
        <accidental>natural</accidental>
        <stem>down</stem>
        <lyric name="1" number="1">
          <syllabic>single</syllabic>
          <text>man</text>
        </lyric>
        <lyric name="2" number="2">
          <syllabic>begin</syllabic>
          <text>choc'</text>
        </lyric>
      </note>
      <note>
        <pitch>
          <step>G</step>
          <octave>5</octave>
        </pitch>
        <duration>10080</duration>
        <type>quarter</type>
        <stem>down</stem>
        <lyric name="1" number="1">
          <syllabic>single</syllabic>
          <text>could</text>
        </lyric>
        <lyric name="2" number="2">
          <syllabic>end</syllabic>
          <text>late</text>
        </lyric>
      </note>
      <note>
        <pitch>
          <step>B</step>
          <octave>4</octave>
        </pitch>
        <duration>5040</duration>
        <tie type="start" />
        <type>eighth</type>
        <stem>up</stem>
        <notations>
          <tied type="start" />
        </notations>
        <lyric name="1" number="1">
          <syllabic>single</syllabic>
          <text>fly.</text>
        </lyric>
        <lyric name="2" number="2">
          <syllabic>single</syllabic>
          <text>bar.</text>
        </lyric>
      </note>
    </measure>
    <!--========================= Measure 12 =========================-->
    <measure number="12" width="153.56">
      <harmony>
        <root>
          <root-step>E</root-step>
          <root-alter>0</root-alter>
        </root>
        <kind text="m7">minor-seventh</kind>
      </harmony>
      <harmony relative-x="3500">
        <root>
          <root-step>A</root-step>
        </root>
        <kind text="7">dominant</kind>
      </harmony>
      <note>
        <pitch>
          <step>B</step>
          <octave>4</octave>
        </pitch>
        <duration>40320</duration>
        <tie type="stop" />
        <type>whole</type>
        <notations>
          <tied type="stop" />
        </notations>
      </note>
    </measure>
    <!--========================= Measure 13 =========================-->
    <measure number="13" width="356.03">
      <harmony>
        <root>
          <root-step>G</root-step>
        </root>
        <kind text="6">major-sixth</kind>
      </harmony>
      <note>
        <pitch>
          <step>E</step>
          <octave>5</octave>
        </pitch>
        <duration>10080</duration>
        <type>quarter</type>
        <stem>down</stem>
        <lyric name="1" number="1">
          <syllabic>single</syllabic>
          <text>They</text>
        </lyric>
        <lyric name="2" number="2">
          <syllabic>single</syllabic>
          <text>Ford</text>
        </lyric>
      </note>
      <note>
        <pitch>
          <step>D</step>
          <octave>5</octave>
        </pitch>
        <duration>7560</duration>
        <type>eighth</type>
        <dot />
        <stem>up</stem>
        <beam number="1">begin</beam>
        <lyric name="1" number="1">
          <syllabic>single</syllabic>
          <text>told</text>
        </lyric>
        <lyric name="2" number="2">
          <syllabic>single</syllabic>
          <text>and</text>
        </lyric>
      </note>
      <note>
        <pitch>
          <step>C</step>
          <alter>1</alter>
          <octave>5</octave>
        </pitch>
        <duration>2520</duration>
        <type>16th</type>
        <accidental>sharp</accidental>
        <stem>up</stem>
        <beam number="1">end</beam>
        <lyric name="1" number="1">
          <syllabic>begin</syllabic>
          <text>Mar</text>
        </lyric>
        <lyric name="2" number="2">
          <syllabic>single</syllabic>
          <text>his</text>
        </lyric>
      </note>
      <note>
        <pitch>
          <step>D</step>
          <octave>5</octave>
        </pitch>
        <duration>5040</duration>
        <type>eighth</type>
        <stem>up</stem>
        <lyric name="1" number="1">
          <syllabic>middle</syllabic>
          <text>con</text>
        </lyric>
        <lyric name="2" number="2">
          <syllabic>begin</syllabic>
          <text>Liz</text>
        </lyric>
      </note>
      <note>
        <pitch>
          <step>E</step>
          <octave>5</octave>
        </pitch>
        <duration>15120</duration>
        <type>quarter</type>
        <dot />
        <stem>down</stem>
        <lyric name="1" number="1">
          <syllabic>end</syllabic>
          <text>i</text>
        </lyric>
        <lyric name="2" number="2">
          <syllabic>end</syllabic>
          <text>zie</text>
        </lyric>
      </note>
    </measure>
    <!--========================= Measure 14 =========================-->
    <measure number="14" width="424.77">
      <print new-system="yes">
        <system-layout>
          <system-margins>
            <left-margin>47.28</left-margin>
            <right-margin>0</right-margin>
          </system-margins>
          <system-distance>143.69</system-distance>
        </system-layout>
      </print>
      <harmony>
        <root>
          <root-step>D</root-step>
        </root>
        <kind text="7">dominant</kind>
      </harmony>
      <note>
        <pitch>
          <step>E</step>
          <octave>5</octave>
        </pitch>
        <duration>7560</duration>
        <type>eighth</type>
        <dot />
        <stem>up</stem>
        <beam number="1">begin</beam>
        <lyric name="1" number="1">
          <syllabic>begin</syllabic>
          <text>wire</text>
        </lyric>
        <lyric name="2" number="2">
          <syllabic>single</syllabic>
          <text>kept</text>
        </lyric>
      </note>
      <note>
        <pitch>
          <step>F</step>
          <alter>0</alter>
          <octave>5</octave>
        </pitch>
        <duration>2520</duration>
        <type>16th</type>
        <accidental>natural</accidental>
        <stem>up</stem>
        <beam number="1">continue</beam>
        <lyric name="1" number="1">
          <syllabic>end</syllabic>
          <text>less</text>
        </lyric>
        <lyric name="2" number="2">
          <syllabic>single</syllabic>
          <text>the</text>
        </lyric>
      </note>
      <note>
        <pitch>
          <step>D</step>
          <octave>5</octave>
        </pitch>
        <duration>7560</duration>
        <type>eighth</type>
        <dot />
        <stem>up</stem>
        <beam number="1">continue</beam>
        <lyric name="1" number="1">
          <syllabic>single</syllabic>
          <text>was</text>
        </lyric>
        <lyric name="2" number="2">
          <syllabic>begin</syllabic>
          <text>laugh</text>
        </lyric>
      </note>
      <note>
        <pitch>
          <step>C</step>
          <alter>1</alter>
          <octave>5</octave>
        </pitch>
        <duration>2520</duration>
        <type>16th</type>
        <accidental>sharp</accidental>
        <stem>up</stem>
        <beam number="1">end</beam>
        <lyric name="1" number="1">
          <syllabic>single</syllabic>
          <text>a</text>
        </lyric>
        <lyric name="2" number="2">
          <syllabic>end</syllabic>
          <text>ter</text>
        </lyric>
      </note>
      <note>
        <pitch>
          <step>D</step>
          <octave>5</octave>
        </pitch>
        <duration>5040</duration>
        <type>eighth</type>
        <stem>up</stem>
        <lyric name="1" number="1">
          <syllabic>begin</syllabic>
          <text>phon</text>
        </lyric>
        <lyric name="2" number="2">
          <syllabic>begin</syllabic>
          <text>bus</text>
        </lyric>
      </note>
      <note>
        <pitch>
          <step>E</step>
          <octave>5</octave>
        </pitch>
        <duration>15120</duration>
        <type>quarter</type>
        <dot />
        <stem>down</stem>
        <lyric name="1" number="1">
          <syllabic>single</syllabic>
          <text>y;</text>
        </lyric>
        <lyric name="2" number="2">
          <syllabic>single</syllabic>
          <text>y;</text>
        </lyric>
      </note>
    </measure>
    <!--========================= Measure 15 =========================-->
    <measure number="15" width="297.22">
      <harmony>
        <root>
          <root-step>G</root-step>
        </root>
        <kind text="7">dominant</kind>
      </harmony>
      <note>
        <pitch>
          <step>D</step>
          <octave>5</octave>
        </pitch>
        <duration>10080</duration>
        <type>quarter</type>
        <stem>up</stem>
        <lyric name="1" number="1">
          <syllabic>single</syllabic>
          <text>it's</text>
        </lyric>
        <lyric name="2" number="2">
          <syllabic>single</syllabic>
          <text>that's</text>
        </lyric>
      </note>
      <note>
        <pitch>
          <step>E</step>
          <octave>5</octave>
        </pitch>
        <duration>10080</duration>
        <type>quarter</type>
        <stem>down</stem>
        <lyric name="1" number="1">
          <syllabic>single</syllabic>
          <text>the</text>
        </lyric>
        <lyric name="2" number="2">
          <syllabic>single</syllabic>
          <text>how</text>
        </lyric>
      </note>
      <note>
        <pitch>
          <step>F</step>
          <octave>5</octave>
        </pitch>
        <duration>10080</duration>
        <type>quarter</type>
        <stem>down</stem>
        <lyric name="1" number="1">
          <syllabic>single</syllabic>
          <text>same</text>
        </lyric>
        <lyric name="2" number="2">
          <syllabic>begin</syllabic>
          <text>peop</text>
        </lyric>
      </note>
      <note>
        <pitch>
          <step>E</step>
          <octave>5</octave>
        </pitch>
        <duration>10080</duration>
        <type>quarter</type>
        <stem>down</stem>
        <lyric name="1" number="1">
          <syllabic>single</syllabic>
          <text>old</text>
        </lyric>
        <lyric name="2" number="2">
          <syllabic>end</syllabic>
          <text>le</text>
        </lyric>
      </note>
    </measure>
    <!--========================= Measure 16 =========================-->
    <measure number="16" width="307.83">
      <note>
        <pitch>
          <step>D</step>
          <octave>5</octave>
        </pitch>
        <duration>10080</duration>
        <type>quarter</type>
        <stem>up</stem>
        <lyric name="1" number="1">
          <syllabic>single</syllabic>
          <text>cry.</text>
        </lyric>
        <lyric name="2" number="2">
          <syllabic>single</syllabic>
          <text>are.</text>
        </lyric>
      </note>
      <note>
        <pitch>
          <step>G</step>
          <octave>5</octave>
        </pitch>
        <duration>10080</duration>
        <type>quarter</type>
        <stem>down</stem>
        <lyric name="1" number="1">
          <syllabic>single</syllabic>
          <text>They</text>
        </lyric>
        <lyric name="2" number="2">
          <syllabic>single</syllabic>
          <text>They</text>
        </lyric>
      </note>
      <note>
        <pitch>
          <step>G</step>
          <octave>5</octave>
        </pitch>
        <duration>10080</duration>
        <type>quarter</type>
        <stem>down</stem>
        <lyric name="1" number="1">
          <syllabic>single</syllabic>
          <text>laughed</text>
        </lyric>
        <lyric name="2" number="2">
          <syllabic>single</syllabic>
          <text>laughed</text>
        </lyric>
      </note>
      <note>
        <pitch>
          <step>G</step>
          <octave>5</octave>
        </pitch>
        <duration>10080</duration>
        <type>quarter</type>
        <stem>down</stem>
        <lyric name="1" number="1">
          <syllabic>single</syllabic>
          <text>at</text>
        </lyric>
        <lyric name="2" number="2">
          <syllabic>single</syllabic>
          <text>at</text>
        </lyric>
      </note>
    </measure>
    <!--========================= Measure 17 =========================-->
    <measure number="17" width="361.7">
      <print new-system="yes">
        <system-layout>
          <system-margins>
            <left-margin>47.28</left-margin>
            <right-margin>0</right-margin>
          </system-margins>
          <system-distance>143.69</system-distance>
        </system-layout>
      </print>
      <harmony>
        <root>
          <root-step>C</root-step>
        </root>
        <kind text="7">dominant</kind>
      </harmony>
      <note>
        <pitch>
          <step>G</step>
          <octave>5</octave>
        </pitch>
        <duration>20160</duration>
        <tie type="start" />
        <type>half</type>
        <stem>down</stem>
        <notations>
          <tied type="start" />
        </notations>
        <lyric name="1" number="1">
          <syllabic>single</syllabic>
          <text>me</text>
        </lyric>
        <lyric name="2" number="2">
          <syllabic>single</syllabic>
          <text>me</text>
        </lyric>
      </note>
      <note>
        <pitch>
          <step>G</step>
          <octave>5</octave>
        </pitch>
        <duration>5040</duration>
        <tie type="stop" />
        <type>eighth</type>
        <stem>down</stem>
        <notations>
          <tied type="stop" />
        </notations>
      </note>
      <note>
        <pitch>
          <step>E</step>
          <octave>5</octave>
        </pitch>
        <duration>10080</duration>
        <type>quarter</type>
        <stem>down</stem>
        <lyric name="1" number="1">
          <syllabic>begin</syllabic>
          <text>want</text>
        </lyric>
        <lyric name="2" number="2">
          <syllabic>begin</syllabic>
          <text>want</text>
        </lyric>
      </note>
      <note>
        <pitch>
          <step>C</step>
          <octave>5</octave>
        </pitch>
        <duration>5040</duration>
        <type>eighth</type>
        <stem>up</stem>
        <lyric name="1" number="1">
          <syllabic>end</syllabic>
          <text>ing</text>
        </lyric>
        <lyric name="2" number="2">
          <syllabic>end</syllabic>
          <text>ing</text>
        </lyric>
      </note>
    </measure>
    <!--========================= Measure 18 =========================-->
    <measure number="18" width="361.33">
      <note>
        <pitch>
          <step>D</step>
          <octave>5</octave>
        </pitch>
        <duration>20160</duration>
        <tie type="start" />
        <type>half</type>
        <stem>up</stem>
        <notations>
          <tied type="start" />
        </notations>
        <lyric name="1" number="1">
          <syllabic>single</syllabic>
          <text>you,</text>
        </lyric>
        <lyric name="2" number="2">
          <syllabic>single</syllabic>
          <text>you.</text>
        </lyric>
      </note>
      <note>
        <pitch>
          <step>D</step>
          <octave>5</octave>
        </pitch>
        <duration>7560</duration>
        <tie type="stop" />
        <type>eighth</type>
        <dot />
        <stem>down</stem>
        <beam number="1">begin</beam>
        <notations>
          <tied type="stop" />
        </notations>
      </note>
      <note>
        <pitch>
          <step>E</step>
          <octave>5</octave>
        </pitch>
        <duration>2520</duration>
        <type>16th</type>
        <stem>down</stem>
        <beam number="1">continue</beam>
        <lyric name="1" number="1">
          <syllabic>single</syllabic>
          <text>said</text>
        </lyric>
        <lyric name="2" number="2">
          <syllabic>single</syllabic>
          <text>said</text>
        </lyric>
      </note>
      <note>
        <pitch>
          <step>F</step>
          <octave>5</octave>
        </pitch>
        <duration>7560</duration>
        <type>eighth</type>
        <dot />
        <stem>down</stem>
        <beam number="1">continue</beam>
        <lyric name="1" number="1">
          <syllabic>single</syllabic>
          <text>I</text>
        </lyric>
        <lyric name="2" number="2">
          <syllabic>single</syllabic>
          <text>it</text>
        </lyric>
      </note>
      <note>
        <pitch>
          <step>F</step>
          <alter>1</alter>
          <octave>5</octave>
        </pitch>
        <duration>2520</duration>
        <type>16th</type>
        <accidental>sharp</accidental>
        <stem>down</stem>
        <beam number="1">end</beam>
        <lyric name="1" number="1">
          <syllabic>single</syllabic>
          <text>was</text>
        </lyric>
        <lyric name="2" number="2">
          <syllabic>single</syllabic>
          <text>would</text>
        </lyric>
      </note>
    </measure>
    <!--========================= Measure 19 =========================-->
    <measure number="19" width="306.79">
      <note>
        <pitch>
          <step>G</step>
          <octave>5</octave>
        </pitch>
        <duration>10080</duration>
        <type>quarter</type>
        <stem>down</stem>
        <lyric name="1" number="1">
          <syllabic>begin</syllabic>
          <text>reach</text>
        </lyric>
        <lyric name="2" number="2">
          <syllabic>single</syllabic>
          <text>be</text>
        </lyric>
      </note>
      <note>
        <pitch>
          <step>A</step>
          <octave>5</octave>
        </pitch>
        <duration>10080</duration>
        <type>quarter</type>
        <stem>down</stem>
        <lyric name="1" number="1">
          <syllabic>end</syllabic>
          <text>ing</text>
        </lyric>
        <lyric name="2" number="2">
          <syllabic>begin</syllabic>
          <text>hel</text>
        </lyric>
      </note>
      <note>
        <pitch>
          <step>G</step>
          <octave>5</octave>
        </pitch>
        <duration>10080</duration>
        <type>quarter</type>
        <stem>down</stem>
        <lyric name="1" number="1">
          <syllabic>single</syllabic>
          <text>for</text>
        </lyric>
        <lyric name="2" number="2">
          <syllabic>single</syllabic>
          <text>lo,</text>
        </lyric>
      </note>
      <harmony>
        <root>
          <root-step>E</root-step>
        </root>
        <kind text="7">dominant</kind>
      </harmony>
      <note>
        <pitch>
          <step>E</step>
          <octave>5</octave>
        </pitch>
        <duration>10080</duration>
        <type>quarter</type>
        <stem>down</stem>
        <lyric name="1" number="1">
          <syllabic>single</syllabic>
          <text>the</text>
        </lyric>
        <lyric name="2" number="2">
          <syllabic>begin</syllabic>
          <text>good</text>
        </lyric>
      </note>
    </measure>
    <!--========================= Measure 20 =========================-->
    <measure number="20" width="361.99">
      <print new-system="yes">
        <system-layout>
          <system-margins>
            <left-margin>47.28</left-margin>
            <right-margin>0</right-margin>
          </system-margins>
          <system-distance>143.69</system-distance>
        </system-layout>
      </print>
      <harmony>
        <root>
          <root-step>A</root-step>
        </root>
        <kind text="7#5">augmented-seventh</kind>
      </harmony>
      <note>
        <pitch>
          <step>F</step>
          <octave>5</octave>
        </pitch>
        <duration>30240</duration>
        <type>half</type>
        <dot />
        <stem>down</stem>
        <lyric name="1" number="1">
          <syllabic>single</syllabic>
          <text>moon.</text>
        </lyric>
        <lyric name="2" number="2">
          <syllabic>end</syllabic>
          <text>bye.</text>
        </lyric>
      </note>
      <note>
        <pitch>
          <step>E</step>
          <octave>5</octave>
        </pitch>
        <duration>10080</duration>
        <type>quarter</type>
        <stem>down</stem>
        <lyric name="1" number="1">
          <syllabic>single</syllabic>
          <text>But</text>
        </lyric>
        <lyric name="2" number="2">
          <syllabic>single</syllabic>
          <text>But</text>
        </lyric>
      </note>
    </measure>
    <!--========================= Measure 21 =========================-->
    <measure number="21" width="343.39">
      <harmony>
        <root>
          <root-step>D</root-step>
        </root>
        <kind text="7">dominant</kind>
      </harmony>
      <note>
        <pitch>
          <step>A</step>
          <octave>5</octave>
        </pitch>
        <duration>20160</duration>
        <tie type="start" />
        <type>half</type>
        <stem>down</stem>
        <notations>
          <tied type="start" />
        </notations>
        <lyric name="1" number="1">
          <syllabic>single</syllabic>
          <text>oh,</text>
        </lyric>
        <lyric name="2" number="2">
          <syllabic>single</syllabic>
          <text>oh</text>
        </lyric>
      </note>
      <note>
        <pitch>
          <step>A</step>
          <octave>5</octave>
        </pitch>
        <duration>5040</duration>
        <tie type="stop" />
        <type>eighth</type>
        <stem>down</stem>
        <notations>
          <tied type="stop" />
        </notations>
      </note>
      <note>
        <pitch>
          <step>F</step>
          <alter>1</alter>
          <octave>5</octave>
        </pitch>
        <duration>10080</duration>
        <type>quarter</type>
        <accidental>sharp</accidental>
        <stem>down</stem>
        <lyric name="1" number="1">
          <syllabic>single</syllabic>
          <text>you</text>
        </lyric>
        <lyric name="2" number="2">
          <syllabic>single</syllabic>
          <text>you</text>
        </lyric>
      </note>
      <note>
        <pitch>
          <step>D</step>
          <octave>5</octave>
        </pitch>
        <duration>5040</duration>
        <type>eighth</type>
        <stem>up</stem>
        <lyric name="1" number="1">
          <syllabic>single</syllabic>
          <text>came</text>
        </lyric>
        <lyric name="2" number="2">
          <syllabic>single</syllabic>
          <text>came</text>
        </lyric>
      </note>
    </measure>
    <!--========================= Measure 22 =========================-->
    <measure number="22" width="324.45">
      <note>
        <pitch>
          <step>E</step>
          <octave>5</octave>
        </pitch>
        <duration>20160</duration>
        <tie type="start" />
        <type>half</type>
        <stem>down</stem>
        <notations>
          <tied type="start" />
        </notations>
        <lyric name="1" number="1">
          <syllabic>single</syllabic>
          <text>through</text>
        </lyric>
        <lyric name="2" number="2">
          <syllabic>single</syllabic>
          <text>through</text>
        </lyric>
      </note>
      <note>
        <pitch>
          <step>E</step>
          <octave>5</octave>
        </pitch>
        <duration>5040</duration>
        <tie type="stop" />
        <type>eighth</type>
        <stem>down</stem>
        <notations>
          <tied type="stop" />
        </notations>
      </note>
      <note>
        <pitch>
          <step>D</step>
          <octave>5</octave>
        </pitch>
        <duration>10080</duration>
        <type>quarter</type>
        <stem>up</stem>
        <lyric name="1" number="1">
          <syllabic>single</syllabic>
          <text>now</text>
        </lyric>
        <lyric name="2" number="2">
          <syllabic>single</syllabic>
          <text>now</text>
        </lyric>
      </note>
      <note>
        <pitch>
          <step>E</step>
          <octave>5</octave>
        </pitch>
        <duration>5040</duration>
        <type>eighth</type>
        <stem>down</stem>
        <lyric name="1" number="1">
          <syllabic>single</syllabic>
          <text>they'll</text>
        </lyric>
        <lyric name="2" number="2">
          <syllabic>single</syllabic>
          <text>they're</text>
        </lyric>
      </note>
    </measure>
    <!--========================= Measure 23 =========================-->
    <measure number="23" width="417.91">
      <print new-system="yes">
        <system-layout>
          <system-margins>
            <left-margin>47.28</left-margin>
            <right-margin>0</right-margin>
          </system-margins>
          <system-distance>143.69</system-distance>
        </system-layout>
      </print>
      <note>
        <pitch>
          <step>F</step>
          <octave>5</octave>
        </pitch>
        <duration>10080</duration>
        <type>quarter</type>
        <stem>down</stem>
        <lyric name="1" number="1">
          <syllabic>single</syllabic>
          <text>have</text>
        </lyric>
        <lyric name="2" number="2">
          <syllabic>begin</syllabic>
          <text>eat</text>
        </lyric>
      </note>
      <note>
        <pitch>
          <step>A</step>
          <octave>5</octave>
        </pitch>
        <duration>10080</duration>
        <type>quarter</type>
        <stem>down</stem>
        <lyric name="1" number="1">
          <syllabic>single</syllabic>
          <text>to</text>
        </lyric>
        <lyric name="2" number="2">
          <syllabic>single</syllabic>
          <text>ing</text>
        </lyric>
      </note>
      <note>
        <pitch>
          <step>A</step>
          <octave>4</octave>
        </pitch>
        <duration>10080</duration>
        <type>quarter</type>
        <stem>up</stem>
        <lyric name="1" number="1">
          <syllabic>single</syllabic>
          <text>change</text>
        </lyric>
        <lyric name="2" number="2">
          <syllabic>begin</syllabic>
          <text>humb</text>
        </lyric>
      </note>
      <note>
        <pitch>
          <step>C</step>
          <octave>5</octave>
        </pitch>
        <duration>10080</duration>
        <type>quarter</type>
        <stem>up</stem>
        <lyric name="1" number="1">
          <syllabic>single</syllabic>
          <text>their</text>
        </lyric>
        <lyric name="2" number="2">
          <syllabic>end</syllabic>
          <text>le</text>
        </lyric>
      </note>
    </measure>
    <!--========================= Measure 24 =========================-->
    <measure number="24" width="206.33">
      <harmony>
        <root>
          <root-step>G</root-step>
          <root-alter>1</root-alter>
        </root>
        <kind text="7">dominant</kind>
      </harmony>
      <harmony relative-x="3700">
        <root>
          <root-step>G</root-step>
          <root-alter>0</root-alter>
        </root>
        <kind text="7">dominant</kind>
      </harmony>
      <note>
        <pitch>
          <step>D</step>
          <octave>5</octave>
        </pitch>
        <duration>40320</duration>
        <type>whole</type>
        <lyric name="1" number="1">
          <syllabic>single</syllabic>
          <text>tune.</text>
        </lyric>
        <lyric name="2" number="2">
          <syllabic>single</syllabic>
          <text>pie.</text>
        </lyric>
      </note>
    </measure>
    <!--========================= Measure 25 =========================-->
    <measure number="25" width="405.58">
      <harmony>
        <root>
          <root-step>C</root-step>
        </root>
        <kind>major</kind>
      </harmony>
      <note>
        <rest />
        <duration>5040</duration>
        <type>eighth</type>
      </note>
      <note>
        <pitch>
          <step>G</step>
          <octave>4</octave>
        </pitch>
        <duration>5040</duration>
        <type>eighth</type>
        <stem>up</stem>
        <lyric name="1" number="1">
          <syllabic>single</syllabic>
          <text>They</text>
        </lyric>
        <lyric name="2" number="2">
          <syllabic>single</syllabic>
          <text>They</text>
        </lyric>
      </note>
      <note>
        <pitch>
          <step>A</step>
          <octave>4</octave>
        </pitch>
        <duration>10080</duration>
        <type>quarter</type>
        <stem>up</stem>
        <lyric name="1" number="1">
          <syllabic>single</syllabic>
          <text>all</text>
        </lyric>
        <lyric name="2" number="2">
          <syllabic>single</syllabic>
          <text>all</text>
        </lyric>
      </note>
      <harmony>
        <root>
          <root-step>A</root-step>
        </root>
        <kind text="m">minor</kind>
      </harmony>
      <note>
        <pitch>
          <step>C</step>
          <octave>5</octave>
        </pitch>
        <duration>10080</duration>
        <type>quarter</type>
        <stem>up</stem>
        <lyric name="1" number="1">
          <syllabic>single</syllabic>
          <text>said</text>
        </lyric>
        <lyric name="2" number="2">
          <syllabic>single</syllabic>
          <text>said</text>
        </lyric>
      </note>
      <note>
        <pitch>
          <step>D</step>
          <octave>5</octave>
        </pitch>
        <duration>10080</duration>
        <type>quarter</type>
        <stem>up</stem>
        <lyric name="1" number="1">
          <syllabic>single</syllabic>
          <text>we</text>
        </lyric>
        <lyric name="2" number="2">
          <syllabic>single</syllabic>
          <text>we'd</text>
        </lyric>
      </note>
    </measure>
    <!--========================= Measure 26 =========================-->
    <measure number="26" width="369.98">
      <print new-page="yes">
        <system-layout>
          <system-margins>
            <left-margin>47.28</left-margin>
            <right-margin>0</right-margin>
          </system-margins>
          <top-system-distance>70</top-system-distance>
        </system-layout>
      </print>
      <harmony>
        <root>
          <root-step>D</root-step>
        </root>
        <kind text="m7">minor-seventh</kind>
      </harmony>
      <note>
        <pitch>
          <step>E</step>
          <octave>5</octave>
        </pitch>
        <duration>7560</duration>
        <type>eighth</type>
        <dot />
        <stem>up</stem>
        <beam number="1">begin</beam>
        <lyric name="1" number="1">
          <syllabic>begin</syllabic>
          <text>nev</text>
        </lyric>
        <lyric name="2" number="2">
          <syllabic>begin</syllabic>
          <text>nev</text>
        </lyric>
      </note>
      <note>
        <pitch>
          <step>E</step>
          <octave>5</octave>
        </pitch>
        <duration>2520</duration>
        <type>16th</type>
        <stem>up</stem>
        <beam number="1">continue</beam>
        <lyric name="1" number="1">
          <syllabic>end</syllabic>
          <text>er</text>
        </lyric>
        <lyric name="2" number="2">
          <syllabic>end</syllabic>
          <text>er</text>
        </lyric>
      </note>
      <note>
        <pitch>
          <step>D</step>
          <octave>5</octave>
        </pitch>
        <duration>7560</duration>
        <type>eighth</type>
        <dot />
        <stem>up</stem>
        <beam number="1">continue</beam>
        <lyric name="1" number="1">
          <syllabic>single</syllabic>
          <text>would</text>
        </lyric>
        <lyric name="2" number="2">
          <syllabic>single</syllabic>
          <text>get</text>
        </lyric>
      </note>
      <note>
        <pitch>
          <step>C</step>
          <octave>5</octave>
        </pitch>
        <duration>2520</duration>
        <type>16th</type>
        <stem>up</stem>
        <beam number="1">end</beam>
        <lyric name="1" number="1">
          <syllabic>single</syllabic>
          <text>be</text>
        </lyric>
        <lyric name="2" number="2">
          <syllabic>begin</syllabic>
          <text>to</text>
        </lyric>
      </note>
      <harmony>
        <root>
          <root-step>G</root-step>
        </root>
        <kind text="7">dominant</kind>
      </harmony>
      <note>
        <pitch>
          <step>D</step>
          <octave>5</octave>
        </pitch>
        <duration>5040</duration>
        <type>eighth</type>
        <stem>up</stem>
        <lyric name="1" number="1">
          <syllabic>begin</syllabic>
          <text>hap</text>
        </lyric>
        <lyric name="2" number="2">
          <syllabic>middle</syllabic>
          <text>geth</text>
        </lyric>
      </note>
      <note>
        <pitch>
          <step>E</step>
          <octave>5</octave>
        </pitch>
        <duration>15120</duration>
        <type>quarter</type>
        <dot />
        <stem>down</stem>
        <lyric name="1" number="1">
          <syllabic>single</syllabic>
          <text>py,</text>
        </lyric>
        <lyric name="2" number="2">
          <syllabic>end</syllabic>
          <text>er;</text>
        </lyric>
      </note>
    </measure>
    <!--========================= Measure 27 =========================-->
    <measure number="27" width="321.58">
      <harmony>
        <root>
          <root-step>E</root-step>
        </root>
        <kind text="7">dominant</kind>
      </harmony>
      <note>
        <pitch>
          <step>F</step>
          <octave>5</octave>
        </pitch>
        <duration>5040</duration>
        <type>eighth</type>
        <stem>down</stem>
        <lyric name="1" number="1">
          <syllabic>single</syllabic>
          <text>they</text>
        </lyric>
        <lyric name="2" number="2">
          <syllabic>begin</syllabic>
          <text>dar</text>
        </lyric>
      </note>
      <note>
        <pitch>
          <step>E</step>
          <octave>5</octave>
        </pitch>
        <duration>10080</duration>
        <type>quarter</type>
        <stem>down</stem>
        <lyric name="1" number="1">
          <syllabic>single</syllabic>
          <text>laughed</text>
        </lyric>
        <lyric name="2" number="2">
          <syllabic>end</syllabic>
          <text>ling.</text>
        </lyric>
      </note>
      <note>
        <pitch>
          <step>D</step>
          <octave>5</octave>
        </pitch>
        <duration>5040</duration>
        <type>eighth</type>
        <stem>up</stem>
        <lyric name="1" number="1">
          <syllabic>single</syllabic>
          <text>at</text>
        </lyric>
        <lyric name="2" number="2">
          <syllabic>single</syllabic>
          <text>let's</text>
        </lyric>
      </note>
      <harmony>
        <root>
          <root-step>A</root-step>
        </root>
        <kind text="7">dominant</kind>
      </harmony>
      <note>
        <pitch>
          <step>E</step>
          <octave>5</octave>
        </pitch>
        <duration>10080</duration>
        <type>quarter</type>
        <stem>down</stem>
        <lyric name="1" number="1">
          <syllabic>single</syllabic>
          <text>us</text>
        </lyric>
        <lyric name="2" number="2">
          <syllabic>single</syllabic>
          <text>take</text>
        </lyric>
      </note>
      <note>
        <pitch>
          <step>F</step>
          <octave>5</octave>
        </pitch>
        <duration>10080</duration>
        <type>quarter</type>
        <stem>down</stem>
        <lyric name="1" number="1">
          <syllabic>single</syllabic>
          <text>and</text>
        </lyric>
        <lyric name="2" number="2">
          <syllabic>single</syllabic>
          <text>a</text>
        </lyric>
      </note>
    </measure>
    <!--========================= Measure 28 =========================-->
    <measure number="28" width="163.35">
      <harmony>
        <root>
          <root-step>D</root-step>
        </root>
        <kind text="7">dominant</kind>
      </harmony>
      <note>
        <pitch>
          <step>E</step>
          <octave>5</octave>
        </pitch>
        <duration>30240</duration>
        <type>half</type>
        <dot />
        <stem>down</stem>
        <lyric name="1" number="1">
          <syllabic>single</syllabic>
          <text>how!</text>
        </lyric>
        <lyric name="2" number="2">
          <syllabic>single</syllabic>
          <text>bow.</text>
        </lyric>
      </note>
      <note>
        <pitch>
          <step>D</step>
          <octave>5</octave>
        </pitch>
        <duration>10080</duration>
        <type>quarter</type>
        <stem>up</stem>
        <lyric name="1" number="1">
          <syllabic>single</syllabic>
          <text>But</text>
        </lyric>
        <lyric name="2" number="2">
          <syllabic>single</syllabic>
          <text>For</text>
        </lyric>
      </note>
    </measure>
    <!--========================= Measure 29 =========================-->
    <measure number="29" width="174.91">
      <harmony>
        <root>
          <root-step>C</root-step>
        </root>
        <kind>major</kind>
      </harmony>
      <note>
        <pitch>
          <step>G</step>
          <octave>5</octave>
        </pitch>
        <duration>10080</duration>
        <type>quarter</type>
        <stem>down</stem>
        <lyric name="1" number="1">
          <syllabic>single</syllabic>
          <text>ho,</text>
        </lyric>
        <lyric name="2" number="2">
          <syllabic>single</syllabic>
          <text>ho,</text>
        </lyric>
      </note>
      <note>
        <pitch>
          <step>G</step>
          <octave>5</octave>
        </pitch>
        <duration>10080</duration>
        <type>quarter</type>
        <stem>down</stem>
        <lyric name="1" number="1">
          <syllabic>single</syllabic>
          <text>ho,</text>
        </lyric>
        <lyric name="2" number="2">
          <syllabic>single</syllabic>
          <text>ho.</text>
        </lyric>
      </note>
      <harmony>
        <root>
          <root-step>A</root-step>
        </root>
        <kind text="7">dominant</kind>
      </harmony>
      <note>
        <pitch>
          <step>G</step>
          <octave>5</octave>
        </pitch>
        <duration>20160</duration>
        <type>half</type>
        <stem>down</stem>
        <lyric name="1" number="1">
          <syllabic>single</syllabic>
          <text>ho,</text>
        </lyric>
        <lyric name="2" number="2">
          <syllabic>single</syllabic>
          <text>ho,</text>
        </lyric>
      </note>
    </measure>
    <!--========================= Measure 30 =========================-->
    <measure number="30" width="374.85">
      <print new-system="yes">
        <system-layout>
          <system-margins>
            <left-margin>47.28</left-margin>
            <right-margin>0</right-margin>
          </system-margins>
          <system-distance>131.36</system-distance>
        </system-layout>
      </print>
      <harmony>
        <root>
          <root-step>D</root-step>
        </root>
        <kind text="m7">minor-seventh</kind>
      </harmony>
      <note>
        <pitch>
          <step>A</step>
          <octave>5</octave>
        </pitch>
        <duration>5040</duration>
        <type>eighth</type>
        <stem>down</stem>
        <lyric name="1" number="1">
          <syllabic>single</syllabic>
          <text>who's</text>
        </lyric>
        <lyric name="2" number="2">
          <syllabic>single</syllabic>
          <text>who's</text>
        </lyric>
      </note>
      <note>
        <pitch>
          <step>A</step>
          <octave>5</octave>
        </pitch>
        <duration>10080</duration>
        <type>quarter</type>
        <stem>down</stem>
        <lyric name="1" number="1">
          <syllabic>single</syllabic>
          <text>got</text>
        </lyric>
        <lyric name="2" number="2">
          <syllabic>single</syllabic>
          <text>got</text>
        </lyric>
      </note>
      <note>
        <pitch>
          <step>A</step>
          <octave>5</octave>
        </pitch>
        <duration>5040</duration>
        <type>eighth</type>
        <stem>down</stem>
        <lyric name="1" number="1">
          <syllabic>single</syllabic>
          <text>the</text>
        </lyric>
        <lyric name="2" number="2">
          <syllabic>single</syllabic>
          <text>the</text>
        </lyric>
      </note>
      <harmony>
        <root>
          <root-step>G</root-step>
        </root>
        <kind text="7">dominant</kind>
      </harmony>
      <note>
        <pitch>
          <step>E</step>
          <octave>5</octave>
        </pitch>
        <duration>10080</duration>
        <type>quarter</type>
        <stem>down</stem>
        <lyric name="1" number="1">
          <syllabic>single</syllabic>
          <text>last</text>
        </lyric>
        <lyric name="2" number="2">
          <syllabic>single</syllabic>
          <text>last</text>
        </lyric>
      </note>
      <note>
        <pitch>
          <step>E</step>
          <octave>5</octave>
        </pitch>
        <duration>10080</duration>
        <type>quarter</type>
        <stem>down</stem>
        <lyric name="1" number="1">
          <syllabic>single</syllabic>
          <text>laugh</text>
        </lyric>
        <lyric name="2" number="2">
          <syllabic>single</syllabic>
          <text>laugh</text>
        </lyric>
      </note>
    </measure>
    <!--========================= Measure 31 =========================-->
    <measure number="31" width="212.01">
      <harmony>
        <root>
          <root-step>C</root-step>
        </root>
        <kind>major</kind>
      </harmony>
      <harmony relative-x="2725">
        <root>
          <root-step>A</root-step>
        </root>
        <kind text="7#9">dominant</kind>
        <degree>
          <degree-value>9</degree-value>
          <degree-alter>1</degree-alter>
          <degree-type>add</degree-type>
        </degree>
      </harmony>
      <note>
        <pitch>
          <step>C</step>
          <octave>5</octave>
        </pitch>
        <duration>40320</duration>
        <tie type="start" />
        <type>whole</type>
        <notations>
          <tied type="start" />
        </notations>
        <lyric name="1" number="1">
          <syllabic>single</syllabic>
          <text>now?</text>
        </lyric>
      </note>
    </measure>
    <!--========================= Measure 32 =========================-->
    <measure number="32" width="215.36">
      <harmony>
        <root>
          <root-step>D</root-step>
        </root>
        <kind text="7b9">dominant</kind>
        <degree>
          <degree-value>9</degree-value>
          <degree-alter>-1</degree-alter>
          <degree-type>add</degree-type>
        </degree>
      </harmony>
      <note>
        <pitch>
          <step>C</step>
          <octave>5</octave>
        </pitch>
        <duration>20160</duration>
        <tie type="stop" />
        <type>half</type>
        <stem>up</stem>
        <notations>
          <tied type="stop" />
        </notations>
      </note>
      <harmony>
        <root>
          <root-step>G</root-step>
          <root-alter>0</root-alter>
        </root>
        <kind text="7b9">dominant</kind>
        <degree>
          <degree-value>9</degree-value>
          <degree-alter>-1</degree-alter>
          <degree-type>add</degree-type>
        </degree>
      </harmony>
      <note>
        <rest />
        <duration>20160</duration>
        <type>half</type>
      </note>
      <barline location="right">
        <repeat direction="backward" />
      </barline>
    </measure>
    <!--========================= Measure 33 =========================-->
    <measure number="33" width="227.61">
      <harmony>
        <root>
          <root-step>G</root-step>
          <root-alter>1</root-alter>
        </root>
        <kind>major</kind>
      </harmony>
      <note>
        <pitch>
          <step>C</step>
          <octave>5</octave>
        </pitch>
        <duration>10080</duration>
        <type>quarter</type>
        <stem>up</stem>
        <lyric name="1" number="1">
          <syllabic>single</syllabic>
          <text>Hee,</text>
        </lyric>
      </note>
      <note>
        <pitch>
          <step>C</step>
          <octave>5</octave>
        </pitch>
        <duration>10080</duration>
        <type>quarter</type>
        <stem>up</stem>
        <lyric name="1" number="1">
          <syllabic>single</syllabic>
          <text>hee,</text>
        </lyric>
      </note>
      <note>
        <pitch>
          <step>C</step>
          <octave>5</octave>
        </pitch>
        <duration>20160</duration>
        <type>half</type>
        <stem>up</stem>
        <lyric name="1" number="1">
          <syllabic>single</syllabic>
          <text>hee,</text>
        </lyric>
      </note>
    </measure>
    <!--========================= Measure 34 =========================-->
    <measure number="34" width="328.81">
      <print new-system="yes">
        <system-layout>
          <system-margins>
            <left-margin>47.28</left-margin>
            <right-margin>0</right-margin>
          </system-margins>
          <system-distance>131.36</system-distance>
        </system-layout>
      </print>
      <harmony>
        <root>
          <root-step>E</root-step>
          <root-alter>-1</root-alter>
        </root>
        <kind>major</kind>
        <inversion>1</inversion>
      </harmony>
      <note>
        <pitch>
          <step>E</step>
          <alter>-1</alter>
          <octave>5</octave>
        </pitch>
        <duration>5040</duration>
        <type>eighth</type>
        <accidental>flat</accidental>
        <stem>down</stem>
        <lyric name="1" number="1">
          <syllabic>single</syllabic>
          <text>Let's</text>
        </lyric>
      </note>
      <note>
        <pitch>
          <step>E</step>
          <alter>-1</alter>
          <octave>5</octave>
        </pitch>
        <duration>10080</duration>
        <type>quarter</type>
        <stem>down</stem>
        <lyric name="1" number="1">
          <syllabic>single</syllabic>
          <text>at</text>
        </lyric>
      </note>
      <note>
        <pitch>
          <step>E</step>
          <alter>-1</alter>
          <octave>5</octave>
        </pitch>
        <duration>5040</duration>
        <type>eighth</type>
        <stem>down</stem>
        <lyric name="1" number="1">
          <syllabic>single</syllabic>
          <text>the</text>
        </lyric>
      </note>
      <harmony>
        <root>
          <root-step>G</root-step>
        </root>
        <kind text="7">dominant</kind>
        <inversion>3</inversion>
      </harmony>
      <note>
        <pitch>
          <step>B</step>
          <octave>4</octave>
        </pitch>
        <duration>10080</duration>
        <type>quarter</type>
        <stem>up</stem>
        <lyric name="1" number="1">
          <syllabic>single</syllabic>
          <text>past,</text>
        </lyric>
      </note>
      <note>
        <pitch>
          <step>B</step>
          <octave>4</octave>
        </pitch>
        <duration>10080</duration>
        <type>quarter</type>
        <stem>up</stem>
        <lyric name="1" number="1">
          <syllabic>single</syllabic>
          <text>laugh,</text>
        </lyric>
      </note>
    </measure>
    <!--========================= Measure 35 =========================-->
    <measure number="35" width="167.03">
      <harmony>
        <root>
          <root-step>C</root-step>
        </root>
        <kind>major</kind>
        <inversion>1</inversion>
      </harmony>
      <note>
        <pitch>
          <step>G</step>
          <octave>5</octave>
        </pitch>
        <duration>10080</duration>
        <type>quarter</type>
        <stem>down</stem>
        <lyric name="1" number="1">
          <syllabic>single</syllabic>
          <text>Ha,</text>
        </lyric>
      </note>
      <note>
        <pitch>
          <step>G</step>
          <octave>5</octave>
        </pitch>
        <duration>10080</duration>
        <type>quarter</type>
        <stem>down</stem>
        <lyric name="1" number="1">
          <syllabic>single</syllabic>
          <text>ha,</text>
        </lyric>
      </note>
      <harmony>
        <root>
          <root-step>A</root-step>
        </root>
        <kind text="7">dominant</kind>
      </harmony>
      <note>
        <pitch>
          <step>G</step>
          <octave>5</octave>
        </pitch>
        <duration>20160</duration>
        <type>half</type>
        <stem>down</stem>
        <lyric name="1" number="1">
          <syllabic>single</syllabic>
          <text>ha,</text>
        </lyric>
      </note>
    </measure>
    <!--========================= Measure 36 =========================-->
    <measure number="36" width="287.57">
      <harmony>
        <root>
          <root-step>D</root-step>
        </root>
        <kind text="m7">minor-seventh</kind>
      </harmony>
      <note>
        <pitch>
          <step>A</step>
          <octave>5</octave>
        </pitch>
        <duration>5040</duration>
        <type>eighth</type>
        <stem>down</stem>
        <lyric name="1" number="1">
          <syllabic>single</syllabic>
          <text>Who's</text>
        </lyric>
      </note>
      <note>
        <pitch>
          <step>A</step>
          <octave>5</octave>
        </pitch>
        <duration>10080</duration>
        <type>quarter</type>
        <stem>down</stem>
        <lyric name="1" number="1">
          <syllabic>single</syllabic>
          <text>got</text>
        </lyric>
      </note>
      <note>
        <pitch>
          <step>A</step>
          <octave>5</octave>
        </pitch>
        <duration>5040</duration>
        <type>eighth</type>
        <stem>down</stem>
        <lyric name="1" number="1">
          <syllabic>single</syllabic>
          <text>the</text>
        </lyric>
      </note>
      <harmony>
        <root>
          <root-step>G</root-step>
        </root>
        <kind text="7">dominant</kind>
      </harmony>
      <note>
        <pitch>
          <step>E</step>
          <octave>5</octave>
        </pitch>
        <duration>10080</duration>
        <type>quarter</type>
        <stem>down</stem>
        <lyric name="1" number="1">
          <syllabic>single</syllabic>
          <text>last</text>
        </lyric>
      </note>
      <note>
        <pitch>
          <step>E</step>
          <octave>5</octave>
        </pitch>
        <duration>10080</duration>
        <type>quarter</type>
        <stem>down</stem>
        <lyric name="1" number="1">
          <syllabic>single</syllabic>
          <text>laugh</text>
        </lyric>
      </note>
    </measure>
    <!--========================= Measure 37 =========================-->
    <measure number="37" width="118.28">
      <harmony>
        <root>
          <root-step>C</root-step>
        </root>
        <kind>major</kind>
      </harmony>
      <note>
        <pitch>
          <step>C</step>
          <octave>5</octave>
        </pitch>
        <duration>40320</duration>
        <tie type="start" />
        <type>whole</type>
        <notations>
          <tied type="start" />
        </notations>
        <lyric name="1" number="1">
          <syllabic>single</syllabic>
          <text>now?</text>
        </lyric>
      </note>
    </measure>
    <!--========================= Measure 38 =========================-->
    <measure number="38" width="128.14">
      <note>
        <pitch>
          <step>C</step>
          <octave>5</octave>
        </pitch>
        <duration>10080</duration>
        <tie type="stop" />
        <type>quarter</type>
        <stem>up</stem>
        <notations>
          <tied type="stop" />
        </notations>
      </note>
      <note>
        <rest />
        <duration>10080</duration>
        <type>quarter</type>
      </note>
      <note>
        <rest />
        <duration>20160</duration>
        <type>half</type>
      </note>
      <barline location="right">
        <bar-style>light-heavy</bar-style>
      </barline>
    </measure>
  </part>
</score-partwise>