<?xml version="1.0" encoding="utf-8"?>
<!DOCTYPE score-partwise  PUBLIC "-//Recordare//DTD MusicXML 3.1 Partwise//EN" "http://www.musicxml.org/dtds/partwise.dtd">
<score-partwise version="3.1">
  <movement-title>I Heard The Bells On Christmas Day</movement-title>
  <identification>
    <creator type="composer">John Baptiste Calkin</creator>
    <creator>Henry Wadsworth Longfellow</creator>
    <encoding>
      <encoding-date>2022-11-09</encoding-date>
      <software>music21 v.8.1.0</software>
      <software>Music21</software>
    </encoding>
  </identification>
  <defaults>
    <scaling>
      <millimeters>7.056</millimeters>
      <tenths>40</tenths>
    </scaling>
    <page-layout>
      <page-height>1683.67</page-height>
      <page-width>1190.48</page-width>
      <page-margins>
        <left-margin>56.6893</left-margin>
        <right-margin>56.6893</right-margin>
        <top-margin>56.6893</top-margin>
        <bottom-margin>113.379</bottom-margin>
      </page-margins>
    </page-layout>
  </defaults>
  <credit page="1">
    <credit-words default-x="595.238" default-y="1626.98" font-size="24" halign="center" valign="top">I Heard The Bells On Christmas Day</credit-words>
  </credit>
  <part-list>
    <part-group number="1" type="start">
      <group-symbol>brace</group-symbol>
      <group-barline>yes</group-barline>
    </part-group>
    <part-group number="2" type="start">
      <group-symbol>brace</group-symbol>
      <group-barline>yes</group-barline>
    </part-group>
    <score-part id="P1">
      <part-name>Piano</part-name>
      <part-abbreviation>Pno.</part-abbreviation>
      <score-instrument id="Ic3854d1ec38dbc7a64e636bc933c6886">
        <instrument-name>Piano</instrument-name>
        <instrument-abbreviation>Pno</instrument-abbreviation>
      </score-instrument>
      <midi-instrument id="Ic3854d1ec38dbc7a64e636bc933c6886">
        <midi-channel>1</midi-channel>
        <midi-program>1</midi-program>
      </midi-instrument>
    </score-part>
    <part-group number="1" type="stop" />
    <part-group number="2" type="stop" />
  </part-list>
  <!--=========================== Part 1 ===========================-->
  <part id="P1">
    <!--========================= Measure 1 ==========================-->
    <measure number="1" width="278.97">
      <print>
        <system-layout>
          <system-margins>
            <left-margin>90.11</left-margin>
            <right-margin>0</right-margin>
          </system-margins>
          <top-system-distance>180</top-system-distance>
        </system-layout>
      </print>
      <attributes>
        <divisions>10080</divisions>
        <key>
          <fifths>0</fifths>
          <mode>major</mode>
        </key>
        <time>
          <beats>4</beats>
          <beat-type>4</beat-type>
        </time>
        <clef>
          <sign>G</sign>
          <line>2</line>
        </clef>
      </attributes>
      <note>
        <rest />
        <duration>20160</duration>
        <type>half</type>
      </note>
      <note>
        <rest />
        <duration>10080</duration>
        <type>quarter</type>
      </note>
      <note>
        <pitch>
          <step>C</step>
          <octave>4</octave>
        </pitch>
        <duration>10080</duration>
        <type>quarter</type>
        <stem>up</stem>
        <lyric name="1" number="1">
          <syllabic>single</syllabic>
          <text>I</text>
        </lyric>
        <lyric name="2" number="2">
          <syllabic>single</syllabic>
          <text>I</text>
        </lyric>
        <lyric name="3" number="3">
          <syllabic>single</syllabic>
          <text>Then</text>
        </lyric>
        <lyric name="4" number="4">
          <syllabic>single</syllabic>
          <text>And</text>
        </lyric>
        <lyric name="5" number="5">
          <syllabic>single</syllabic>
          <text>Till</text>
        </lyric>
      </note>
    </measure>
    <!--========================= Measure 2 ==========================-->
    <measure number="2" width="354.38">
      <harmony>
        <root>
          <root-step>C</root-step>
        </root>
        <kind>major</kind>
      </harmony>
      <note>
        <pitch>
          <step>E</step>
          <octave>4</octave>
        </pitch>
        <duration>15120</duration>
        <type>quarter</type>
        <dot />
        <stem>up</stem>
        <lyric name="1" number="1">
          <syllabic>single</syllabic>
          <text>heard</text>
        </lyric>
        <lyric name="2" number="2">
          <syllabic>single</syllabic>
          <text>thought</text>
        </lyric>
        <lyric name="3" number="3">
          <syllabic>single</syllabic>
          <text>pealed</text>
        </lyric>
        <lyric name="4" number="4">
          <syllabic>single</syllabic>
          <text>in</text>
        </lyric>
        <lyric name="5" number="5">
          <syllabic>begin</syllabic>
          <text>ring</text>
        </lyric>
      </note>
      <note>
        <pitch>
          <step>E</step>
          <alter>-1</alter>
          <octave>4</octave>
        </pitch>
        <duration>5040</duration>
        <type>eighth</type>
        <accidental>flat</accidental>
        <stem>up</stem>
        <lyric name="1" number="1">
          <syllabic>single</syllabic>
          <text>the</text>
        </lyric>
        <lyric name="2" number="2">
          <syllabic>single</syllabic>
          <text>how,</text>
        </lyric>
        <lyric name="3" number="3">
          <syllabic>single</syllabic>
          <text>the</text>
        </lyric>
        <lyric name="4" number="4">
          <syllabic>begin</syllabic>
          <text>des</text>
        </lyric>
        <lyric name="5" number="5">
          <syllabic>end</syllabic>
          <text>ing,</text>
        </lyric>
      </note>
      <note>
        <pitch>
          <step>E</step>
          <alter>0</alter>
          <octave>4</octave>
        </pitch>
        <duration>10080</duration>
        <type>quarter</type>
        <accidental>natural</accidental>
        <stem>up</stem>
        <lyric name="1" number="1">
          <syllabic>single</syllabic>
          <text>bells</text>
        </lyric>
        <lyric name="2" number="2">
          <syllabic>single</syllabic>
          <text>as</text>
        </lyric>
        <lyric name="3" number="3">
          <syllabic>single</syllabic>
          <text>bells</text>
        </lyric>
        <lyric name="4" number="4">
          <syllabic>end</syllabic>
          <text>pair</text>
        </lyric>
        <lyric name="5" number="5">
          <syllabic>begin</syllabic>
          <text>sing</text>
        </lyric>
      </note>
      <note>
        <pitch>
          <step>E</step>
          <octave>4</octave>
        </pitch>
        <duration>10080</duration>
        <type>quarter</type>
        <stem>up</stem>
        <lyric name="1" number="1">
          <syllabic>single</syllabic>
          <text>on</text>
        </lyric>
        <lyric name="2" number="2">
          <syllabic>single</syllabic>
          <text>the</text>
        </lyric>
        <lyric name="3" number="3">
          <syllabic>single</syllabic>
          <text>more</text>
        </lyric>
        <lyric name="4" number="4">
          <syllabic>single</syllabic>
          <text>I</text>
        </lyric>
        <lyric name="5" number="5">
          <syllabic>end</syllabic>
          <text>ing</text>
        </lyric>
      </note>
    </measure>
    <!--========================= Measure 3 ==========================-->
    <measure number="3" width="353.64">
      <harmony>
        <root>
          <root-step>G</root-step>
        </root>
        <kind text="7">dominant</kind>
      </harmony>
      <note>
        <pitch>
          <step>F</step>
          <octave>4</octave>
        </pitch>
        <duration>15120</duration>
        <type>quarter</type>
        <dot />
        <stem>up</stem>
        <lyric name="1" number="1">
          <syllabic>begin</syllabic>
          <text>Christ</text>
        </lyric>
        <lyric name="2" number="2">
          <syllabic>single</syllabic>
          <text>day</text>
        </lyric>
        <lyric name="3" number="3">
          <syllabic>single</syllabic>
          <text>loud</text>
        </lyric>
        <lyric name="4" number="4">
          <syllabic>single</syllabic>
          <text>bowed</text>
        </lyric>
        <lyric name="5" number="5">
          <syllabic>single</syllabic>
          <text>on</text>
        </lyric>
      </note>
      <note>
        <pitch>
          <step>E</step>
          <octave>4</octave>
        </pitch>
        <duration>5040</duration>
        <type>eighth</type>
        <stem>up</stem>
        <lyric name="1" number="1">
          <syllabic>end</syllabic>
          <text>mas</text>
        </lyric>
        <lyric name="2" number="2">
          <syllabic>single</syllabic>
          <text>had</text>
        </lyric>
        <lyric name="3" number="3">
          <syllabic>single</syllabic>
          <text>and</text>
        </lyric>
        <lyric name="4" number="4">
          <syllabic>single</syllabic>
          <text>my</text>
        </lyric>
        <lyric name="5" number="5">
          <syllabic>single</syllabic>
          <text>its</text>
        </lyric>
      </note>
      <note>
        <pitch>
          <step>F</step>
          <octave>4</octave>
        </pitch>
        <duration>10080</duration>
        <type>quarter</type>
        <stem>up</stem>
        <lyric name="1" number="1">
          <syllabic>single</syllabic>
          <text>day</text>
        </lyric>
        <lyric name="2" number="2">
          <syllabic>single</syllabic>
          <text>come</text>
        </lyric>
        <lyric name="3" number="3">
          <syllabic>single</syllabic>
          <text>deep:</text>
        </lyric>
        <lyric name="4" number="4">
          <syllabic>single</syllabic>
          <text>head:</text>
        </lyric>
        <lyric name="5" number="5">
          <syllabic>single</syllabic>
          <text>way,</text>
        </lyric>
      </note>
      <harmony>
        <root>
          <root-step>B</root-step>
        </root>
        <kind text="7">dominant</kind>
      </harmony>
      <note>
        <pitch>
          <step>F</step>
          <alter>1</alter>
          <octave>4</octave>
        </pitch>
        <duration>10080</duration>
        <type>quarter</type>
        <accidental>sharp</accidental>
        <stem>up</stem>
        <lyric name="1" number="1">
          <syllabic>single</syllabic>
          <text>Their</text>
        </lyric>
        <lyric name="2" number="2">
          <syllabic>single</syllabic>
          <text>The</text>
        </lyric>
        <lyric name="3" number="3">
          <syllabic>single</syllabic>
          <text>"God</text>
        </lyric>
        <lyric name="4" number="4">
          <syllabic>single</syllabic>
          <text>There</text>
        </lyric>
        <lyric name="5" number="5">
          <syllabic>single</syllabic>
          <text>The</text>
        </lyric>
      </note>
    </measure>
    <!--========================= Measure 4 ==========================-->
    <measure number="4" width="355.49">
      <print new-system="yes">
        <system-layout>
          <system-margins>
            <left-margin>77.95</left-margin>
            <right-margin>0</right-margin>
          </system-margins>
          <system-distance>208.63</system-distance>
        </system-layout>
      </print>
      <harmony>
        <root>
          <root-step>E</root-step>
          <root-alter>0</root-alter>
        </root>
        <kind text="m">minor</kind>
      </harmony>
      <note>
        <pitch>
          <step>G</step>
          <octave>4</octave>
        </pitch>
        <duration>10080</duration>
        <type>quarter</type>
        <stem>up</stem>
        <lyric name="1" number="1">
          <syllabic>single</syllabic>
          <text>old</text>
        </lyric>
        <lyric name="2" number="2">
          <syllabic>begin</syllabic>
          <text>bel</text>
        </lyric>
        <lyric name="3" number="3">
          <syllabic>single</syllabic>
          <text>is</text>
        </lyric>
        <lyric name="4" number="4">
          <syllabic>single</syllabic>
          <text>is</text>
        </lyric>
        <lyric name="5" number="5">
          <syllabic>single</syllabic>
          <text>world</text>
        </lyric>
      </note>
      <note>
        <pitch>
          <step>C</step>
          <octave>5</octave>
        </pitch>
        <duration>10080</duration>
        <type>quarter</type>
        <stem>down</stem>
        <lyric name="1" number="1">
          <syllabic>begin</syllabic>
          <text>fam</text>
        </lyric>
        <lyric name="2" number="2">
          <syllabic>end</syllabic>
          <text>fries</text>
        </lyric>
        <lyric name="3" number="3">
          <syllabic>single</syllabic>
          <text>not</text>
        </lyric>
        <lyric name="4" number="4">
          <syllabic>single</syllabic>
          <text>no</text>
        </lyric>
        <lyric name="5" number="5">
          <syllabic>begin</syllabic>
          <text>re</text>
        </lyric>
      </note>
      <note>
        <pitch>
          <step>B</step>
          <octave>4</octave>
        </pitch>
        <duration>10080</duration>
        <type>quarter</type>
        <stem>down</stem>
        <lyric name="1" number="1">
          <syllabic>middle</syllabic>
          <text>il</text>
        </lyric>
        <lyric name="2" number="2">
          <syllabic>single</syllabic>
          <text>of</text>
        </lyric>
        <lyric name="3" number="3">
          <syllabic>single</syllabic>
          <text>dead,</text>
        </lyric>
        <lyric name="4" number="4">
          <syllabic>single</syllabic>
          <text>peace</text>
        </lyric>
        <lyric name="5" number="5">
          <syllabic>end</syllabic>
          <text>volved</text>
        </lyric>
      </note>
      <note>
        <pitch>
          <step>A</step>
          <octave>4</octave>
        </pitch>
        <duration>10080</duration>
        <type>quarter</type>
        <stem>up</stem>
        <lyric name="1" number="1">
          <syllabic>end</syllabic>
          <text>iar</text>
        </lyric>
        <lyric name="2" number="2">
          <syllabic>single</syllabic>
          <text>all</text>
        </lyric>
        <lyric name="3" number="3">
          <syllabic>single</syllabic>
          <text>nor</text>
        </lyric>
        <lyric name="4" number="4">
          <syllabic>single</syllabic>
          <text>on</text>
        </lyric>
        <lyric name="5" number="5">
          <syllabic>single</syllabic>
          <text>from</text>
        </lyric>
      </note>
    </measure>
    <!--========================= Measure 5 ==========================-->
    <measure number="5" width="310.71">
      <harmony>
        <root>
          <root-step>G</root-step>
        </root>
        <kind text="7">dominant</kind>
      </harmony>
      <note>
        <pitch>
          <step>A</step>
          <octave>4</octave>
        </pitch>
        <duration>15120</duration>
        <type>quarter</type>
        <dot />
        <stem>up</stem>
        <lyric name="1" number="1">
          <syllabic>begin</syllabic>
          <text>car</text>
        </lyric>
        <lyric name="2" number="2">
          <syllabic>begin</syllabic>
          <text>Christ</text>
        </lyric>
        <lyric name="3" number="3">
          <syllabic>single</syllabic>
          <text>doth</text>
        </lyric>
        <lyric name="4" number="4">
          <syllabic>single</syllabic>
          <text>earth,"</text>
        </lyric>
        <lyric name="5" number="5">
          <syllabic>single</syllabic>
          <text>night</text>
        </lyric>
      </note>
      <note>
        <pitch>
          <step>G</step>
          <octave>4</octave>
        </pitch>
        <duration>5040</duration>
        <type>eighth</type>
        <stem>up</stem>
        <lyric name="1" number="1">
          <syllabic>end</syllabic>
          <text>ols</text>
        </lyric>
        <lyric name="2" number="2">
          <syllabic>middle</syllabic>
          <text>en</text>
        </lyric>
        <lyric name="3" number="3">
          <syllabic>single</syllabic>
          <text>not</text>
        </lyric>
        <lyric name="4" number="4">
          <syllabic>single</syllabic>
          <text>I</text>
        </lyric>
        <lyric name="5" number="5">
          <syllabic>single</syllabic>
          <text>to</text>
        </lyric>
      </note>
      <note>
        <pitch>
          <step>G</step>
          <octave>4</octave>
        </pitch>
        <duration>10080</duration>
        <type>quarter</type>
        <stem>up</stem>
        <lyric name="1" number="1">
          <syllabic>single</syllabic>
          <text>play,</text>
        </lyric>
        <lyric name="2" number="2">
          <syllabic>end</syllabic>
          <text>dom</text>
        </lyric>
        <lyric name="3" number="3">
          <syllabic>single</syllabic>
          <text>sleep!</text>
        </lyric>
        <lyric name="4" number="4">
          <syllabic>single</syllabic>
          <text>said;</text>
        </lyric>
        <lyric name="5" number="5">
          <syllabic>single</syllabic>
          <text>day,</text>
        </lyric>
      </note>
      <note>
        <pitch>
          <step>G</step>
          <octave>4</octave>
        </pitch>
        <duration>10080</duration>
        <type>quarter</type>
        <stem>up</stem>
        <lyric name="1" number="1">
          <syllabic>single</syllabic>
          <text>And</text>
        </lyric>
        <lyric name="2" number="2">
          <syllabic>single</syllabic>
          <text>Had</text>
        </lyric>
        <lyric name="3" number="3">
          <syllabic>single</syllabic>
          <text>The</text>
        </lyric>
        <lyric name="4" number="4">
          <syllabic>single</syllabic>
          <text>"For</text>
        </lyric>
        <lyric name="5" number="5">
          <syllabic>single</syllabic>
          <text>A</text>
        </lyric>
      </note>
    </measure>
    <!--========================= Measure 6 ==========================-->
    <measure number="6" width="332.94">
      <harmony>
        <root>
          <root-step>C</root-step>
        </root>
        <kind>major</kind>
      </harmony>
      <note>
        <pitch>
          <step>G</step>
          <octave>4</octave>
        </pitch>
        <duration>15120</duration>
        <type>quarter</type>
        <dot />
        <stem>up</stem>
        <lyric name="1" number="1">
          <syllabic>single</syllabic>
          <text>wild</text>
        </lyric>
        <lyric name="2" number="2">
          <syllabic>single</syllabic>
          <text>rolled</text>
        </lyric>
        <lyric name="3" number="3">
          <syllabic>single</syllabic>
          <text>wrong</text>
        </lyric>
        <lyric name="4" number="4">
          <syllabic>single</syllabic>
          <text>hate</text>
        </lyric>
        <lyric name="5" number="5">
          <syllabic>single</syllabic>
          <text>voice,</text>
        </lyric>
      </note>
      <note>
        <pitch>
          <step>F</step>
          <octave>4</octave>
        </pitch>
        <duration>5040</duration>
        <type>eighth</type>
        <stem>up</stem>
        <lyric name="1" number="1">
          <syllabic>single</syllabic>
          <text>and</text>
        </lyric>
        <lyric name="2" number="2">
          <syllabic>begin</syllabic>
          <text>a</text>
        </lyric>
        <lyric name="3" number="3">
          <syllabic>single</syllabic>
          <text>shall</text>
        </lyric>
        <lyric name="4" number="4">
          <syllabic>single</syllabic>
          <text>is</text>
        </lyric>
        <lyric name="5" number="5">
          <syllabic>single</syllabic>
          <text>a</text>
        </lyric>
      </note>
      <note>
        <pitch>
          <step>E</step>
          <octave>4</octave>
        </pitch>
        <duration>10080</duration>
        <type>quarter</type>
        <stem>up</stem>
        <lyric name="1" number="1">
          <syllabic>single</syllabic>
          <text>sweet</text>
        </lyric>
        <lyric name="2" number="2">
          <syllabic>end</syllabic>
          <text>long</text>
        </lyric>
        <lyric name="3" number="3">
          <syllabic>single</syllabic>
          <text>fail,</text>
        </lyric>
        <lyric name="4" number="4">
          <syllabic>single</syllabic>
          <text>strong</text>
        </lyric>
        <lyric name="5" number="5">
          <syllabic>single</syllabic>
          <text>chime,</text>
        </lyric>
      </note>
      <harmony>
        <root>
          <root-step>F</root-step>
        </root>
        <kind>major</kind>
      </harmony>
      <note>
        <pitch>
          <step>F</step>
          <octave>4</octave>
        </pitch>
        <duration>10080</duration>
        <type>quarter</type>
        <stem>up</stem>
        <lyric name="1" number="1">
          <syllabic>single</syllabic>
          <text>the</text>
        </lyric>
        <lyric name="2" number="2">
          <syllabic>begin</syllabic>
          <text>th' un</text>
        </lyric>
        <lyric name="3" number="3">
          <syllabic>single</syllabic>
          <text>the</text>
        </lyric>
        <lyric name="4" number="4">
          <syllabic>single</syllabic>
          <text>and</text>
        </lyric>
        <lyric name="5" number="5">
          <syllabic>single</syllabic>
          <text>a</text>
        </lyric>
      </note>
    </measure>
    <!--========================= Measure 7 ==========================-->
    <measure number="7" width="390.3">
      <print new-system="yes">
        <system-layout>
          <system-margins>
            <left-margin>77.95</left-margin>
            <right-margin>0</right-margin>
          </system-margins>
          <system-distance>208.63</system-distance>
        </system-layout>
      </print>
      <harmony>
        <root>
          <root-step>C</root-step>
        </root>
        <kind text="+">augmented</kind>
      </harmony>
      <note>
        <pitch>
          <step>E</step>
          <octave>4</octave>
        </pitch>
        <duration>15120</duration>
        <type>quarter</type>
        <dot />
        <stem>up</stem>
        <lyric name="1" number="1">
          <syllabic>single</syllabic>
          <text>words</text>
        </lyric>
        <lyric name="2" number="2">
          <syllabic>middle</syllabic>
          <text>brok</text>
        </lyric>
        <lyric name="3" number="3">
          <syllabic>single</syllabic>
          <text>right</text>
        </lyric>
        <lyric name="4" number="4">
          <syllabic>single</syllabic>
          <text>mocks</text>
        </lyric>
        <lyric name="5" number="5">
          <syllabic>single</syllabic>
          <text>chant</text>
        </lyric>
      </note>
      <note>
        <pitch>
          <step>D</step>
          <octave>4</octave>
        </pitch>
        <duration>5040</duration>
        <type>eighth</type>
        <stem>up</stem>
        <lyric name="1" number="1">
          <syllabic>begin</syllabic>
          <text>re</text>
        </lyric>
        <lyric name="2" number="2">
          <syllabic>end</syllabic>
          <text>en</text>
        </lyric>
        <lyric name="3" number="3">
          <syllabic>begin</syllabic>
          <text>pre</text>
        </lyric>
        <lyric name="4" number="4">
          <syllabic>single</syllabic>
          <text>the</text>
        </lyric>
        <lyric name="5" number="5">
          <syllabic>begin</syllabic>
          <text>sub</text>
        </lyric>
      </note>
      <harmony>
        <root>
          <root-step>A</root-step>
        </root>
        <kind text="m">minor</kind>
      </harmony>
      <note>
        <pitch>
          <step>C</step>
          <octave>4</octave>
        </pitch>
        <duration>10080</duration>
        <type>quarter</type>
        <stem>up</stem>
        <lyric name="1" number="1">
          <syllabic>end</syllabic>
          <text>peat</text>
        </lyric>
        <lyric name="2" number="2">
          <syllabic>single</syllabic>
          <text>song</text>
        </lyric>
        <lyric name="3" number="3">
          <syllabic>end</syllabic>
          <text>vail</text>
        </lyric>
        <lyric name="4" number="4">
          <syllabic>single</syllabic>
          <text>song,</text>
        </lyric>
        <lyric name="5" number="5">
          <syllabic>end</syllabic>
          <text>lime</text>
        </lyric>
      </note>
      <harmony>
        <root>
          <root-step>G</root-step>
          <root-alter>0</root-alter>
        </root>
        <kind text="7">dominant</kind>
      </harmony>
      <note>
        <pitch>
          <step>D</step>
          <octave>4</octave>
        </pitch>
        <duration>10080</duration>
        <type>quarter</type>
        <stem>up</stem>
        <lyric name="1" number="1">
          <syllabic>single</syllabic>
          <text>Of</text>
        </lyric>
        <lyric name="2" number="2">
          <syllabic>single</syllabic>
          <text>Of</text>
        </lyric>
        <lyric name="3" number="3">
          <syllabic>single</syllabic>
          <text>With</text>
        </lyric>
        <lyric name="4" number="4">
          <syllabic>single</syllabic>
          <text>Of</text>
        </lyric>
        <lyric name="5" number="5">
          <syllabic>single</syllabic>
          <text>Of</text>
        </lyric>
      </note>
    </measure>
    <!--========================= Measure 8 ==========================-->
    <measure number="8" width="331.22">
      <harmony>
        <root>
          <root-step>C</root-step>
        </root>
        <kind>major</kind>
      </harmony>
      <note>
        <pitch>
          <step>E</step>
          <octave>4</octave>
        </pitch>
        <duration>10080</duration>
        <type>quarter</type>
        <stem>up</stem>
        <lyric name="1" number="1">
          <syllabic>single</syllabic>
          <text>peace</text>
        </lyric>
        <lyric name="2" number="2">
          <syllabic>single</syllabic>
          <text>peace</text>
        </lyric>
        <lyric name="3" number="3">
          <syllabic>single</syllabic>
          <text>peace</text>
        </lyric>
        <lyric name="4" number="4">
          <syllabic>single</syllabic>
          <text>peace</text>
        </lyric>
        <lyric name="5" number="5">
          <syllabic>single</syllabic>
          <text>peace</text>
        </lyric>
      </note>
      <harmony>
        <root>
          <root-step>G</root-step>
        </root>
        <kind text="7">dominant</kind>
      </harmony>
      <note>
        <pitch>
          <step>F</step>
          <octave>4</octave>
        </pitch>
        <duration>10080</duration>
        <type>quarter</type>
        <stem>up</stem>
        <lyric name="1" number="1">
          <syllabic>single</syllabic>
          <text>on</text>
        </lyric>
        <lyric name="2" number="2">
          <syllabic>single</syllabic>
          <text>on</text>
        </lyric>
        <lyric name="3" number="3">
          <syllabic>single</syllabic>
          <text>on</text>
        </lyric>
        <lyric name="4" number="4">
          <syllabic>single</syllabic>
          <text>on</text>
        </lyric>
        <lyric name="5" number="5">
          <syllabic>single</syllabic>
          <text>on</text>
        </lyric>
      </note>
      <harmony>
        <root>
          <root-step>C</root-step>
        </root>
        <kind>major</kind>
      </harmony>
      <note>
        <pitch>
          <step>G</step>
          <octave>4</octave>
        </pitch>
        <duration>10080</duration>
        <type>quarter</type>
        <stem>up</stem>
        <lyric name="1" number="1">
          <syllabic>single</syllabic>
          <text>earth</text>
        </lyric>
        <lyric name="2" number="2">
          <syllabic>single</syllabic>
          <text>earth</text>
        </lyric>
        <lyric name="3" number="3">
          <syllabic>single</syllabic>
          <text>earth</text>
        </lyric>
        <lyric name="4" number="4">
          <syllabic>single</syllabic>
          <text>earth</text>
        </lyric>
        <lyric name="5" number="5">
          <syllabic>single</syllabic>
          <text>earth</text>
        </lyric>
      </note>
      <harmony>
        <root>
          <root-step>F</root-step>
        </root>
        <kind>major</kind>
      </harmony>
      <note>
        <pitch>
          <step>A</step>
          <octave>4</octave>
        </pitch>
        <duration>10080</duration>
        <type>quarter</type>
        <stem>up</stem>
        <lyric name="1" number="1">
          <syllabic>begin</syllabic>
          <text>good</text>
        </lyric>
        <lyric name="2" number="2">
          <syllabic>single</syllabic>
          <text>good</text>
        </lyric>
        <lyric name="3" number="3">
          <syllabic>single</syllabic>
          <text>good</text>
        </lyric>
        <lyric name="4" number="4">
          <syllabic>single</syllabic>
          <text>good</text>
        </lyric>
        <lyric name="5" number="5">
          <syllabic>single</syllabic>
          <text>good</text>
        </lyric>
      </note>
    </measure>
    <!--========================= Measure 9 ==========================-->
    <measure number="9" width="277.62">
      <harmony>
        <root>
          <root-step>G</root-step>
        </root>
        <kind text="7">dominant</kind>
      </harmony>
      <note>
        <pitch>
          <step>B</step>
          <octave>3</octave>
        </pitch>
        <duration>15120</duration>
        <type>quarter</type>
        <dot />
        <stem>up</stem>
        <lyric name="1" number="1">
          <syllabic>end</syllabic>
          <text>will</text>
        </lyric>
        <lyric name="2" number="2">
          <syllabic>single</syllabic>
          <text>will</text>
        </lyric>
        <lyric name="3" number="3">
          <syllabic>single</syllabic>
          <text>will</text>
        </lyric>
        <lyric name="4" number="4">
          <syllabic>single</syllabic>
          <text>will</text>
        </lyric>
        <lyric name="5" number="5">
          <syllabic>single</syllabic>
          <text>will</text>
        </lyric>
      </note>
      <note>
        <pitch>
          <step>D</step>
          <octave>4</octave>
        </pitch>
        <duration>5040</duration>
        <type>eighth</type>
        <stem>up</stem>
        <lyric name="1" number="1">
          <syllabic>single</syllabic>
          <text>to</text>
        </lyric>
        <lyric name="2" number="2">
          <syllabic>single</syllabic>
          <text>to</text>
        </lyric>
        <lyric name="3" number="3">
          <syllabic>single</syllabic>
          <text>to</text>
        </lyric>
        <lyric name="4" number="4">
          <syllabic>single</syllabic>
          <text>to</text>
        </lyric>
        <lyric name="5" number="5">
          <syllabic>single</syllabic>
          <text>to</text>
        </lyric>
      </note>
      <harmony>
        <root>
          <root-step>C</root-step>
        </root>
        <kind>major</kind>
      </harmony>
      <note>
        <pitch>
          <step>C</step>
          <octave>4</octave>
        </pitch>
        <duration>20160</duration>
        <type>half</type>
        <stem>up</stem>
        <lyric name="1" number="1">
          <syllabic>single</syllabic>
          <text>men!</text>
        </lyric>
        <lyric name="2" number="2">
          <syllabic>single</syllabic>
          <text>men!</text>
        </lyric>
        <lyric name="3" number="3">
          <syllabic>single</syllabic>
          <text>men!</text>
        </lyric>
        <lyric name="4" number="4">
          <syllabic>single</syllabic>
          <text>men!</text>
        </lyric>
        <lyric name="5" number="5">
          <syllabic>single</syllabic>
          <text>men!</text>
        </lyric>
      </note>
      <barline location="right">
        <bar-style>light-heavy</bar-style>
      </barline>
    </measure>
  </part>
</score-partwise>