<?xml version="1.0" encoding="utf-8"?>
<!DOCTYPE score-partwise  PUBLIC "-//Recordare//DTD MusicXML 3.1 Partwise//EN" "http://www.musicxml.org/dtds/partwise.dtd">
<score-partwise version="3.1">
  <movement-title>In The Bleak Midwinter</movement-title>
  <identification>
    <creator type="composer">Traditional English Carol</creator>
    <creator>Christina Rossetti</creator>
    <encoding>
      <encoding-date>2022-11-09</encoding-date>
      <software>music21 v.8.1.0</software>
      <software>Music21</software>
    </encoding>
  </identification>
  <defaults>
    <scaling>
      <millimeters>7.056</millimeters>
      <tenths>40</tenths>
    </scaling>
    <page-layout>
      <page-height>1683.67</page-height>
      <page-width>1190.48</page-width>
      <page-margins>
        <left-margin>56.6893</left-margin>
        <right-margin>56.6893</right-margin>
        <top-margin>56.6893</top-margin>
        <bottom-margin>113.379</bottom-margin>
      </page-margins>
    </page-layout>
  </defaults>
  <credit page="1">
    <credit-words default-x="595.238" default-y="1626.98" font-size="24" halign="center" valign="top">In The Bleak Midwinter</credit-words>
  </credit>
  <part-list>
    <part-group number="1" type="start">
      <group-symbol>brace</group-symbol>
      <group-barline>yes</group-barline>
    </part-group>
    <part-group number="2" type="start">
      <group-symbol>brace</group-symbol>
      <group-barline>yes</group-barline>
    </part-group>
    <score-part id="P1">
      <part-name>Piano</part-name>
      <part-abbreviation>Pno.</part-abbreviation>
      <score-instrument id="Ie76b558fb15284dda8c7c3519bdaecf3">
        <instrument-name>Piano</instrument-name>
        <instrument-abbreviation>Pno</instrument-abbreviation>
      </score-instrument>
      <midi-instrument id="Ie76b558fb15284dda8c7c3519bdaecf3">
        <midi-channel>1</midi-channel>
        <midi-program>1</midi-program>
      </midi-instrument>
    </score-part>
    <part-group number="1" type="stop" />
    <part-group number="2" type="stop" />
  </part-list>
  <!--=========================== Part 1 ===========================-->
  <part id="P1">
    <!--========================= Measure 1 ==========================-->
    <measure number="1" width="213.12">
      <print>
        <system-layout>
          <system-margins>
            <left-margin>87.1</left-margin>
            <right-margin>0</right-margin>
          </system-margins>
          <top-system-distance>223.91</top-system-distance>
        </system-layout>
      </print>
      <attributes>
        <divisions>10080</divisions>
        <key>
          <fifths>0</fifths>
          <mode>major</mode>
        </key>
        <time>
          <beats>4</beats>
          <beat-type>4</beat-type>
        </time>
        <clef>
          <sign>G</sign>
          <line>2</line>
        </clef>
      </attributes>
      <note>
        <rest />
        <duration>20160</duration>
        <type>half</type>
      </note>
      <note>
        <rest />
        <duration>10080</duration>
        <type>quarter</type>
      </note>
      <note>
        <pitch>
          <step>E</step>
          <octave>4</octave>
        </pitch>
        <duration>10080</duration>
        <type>quarter</type>
        <stem>up</stem>
        <lyric name="2" number="2">
          <syllabic>single</syllabic>
          <text>God,</text>
        </lyric>
      </note>
    </measure>
    <!--========================= Measure 2 ==========================-->
    <measure number="2" width="253.44">
      <harmony>
        <root>
          <root-step>C</root-step>
        </root>
        <kind>major</kind>
      </harmony>
      <note>
        <pitch>
          <step>E</step>
          <octave>4</octave>
        </pitch>
        <duration>15120</duration>
        <type>quarter</type>
        <dot />
        <stem>up</stem>
        <lyric name="1" number="1">
          <syllabic>single</syllabic>
          <text>In</text>
        </lyric>
        <lyric name="2" number="2">
          <syllabic>begin</syllabic>
          <text>hea</text>
        </lyric>
        <lyric name="3" number="3">
          <syllabic>begin</syllabic>
          <text>An</text>
        </lyric>
        <lyric name="4" number="4">
          <syllabic>single</syllabic>
          <text>What</text>
        </lyric>
      </note>
      <note>
        <pitch>
          <step>F</step>
          <octave>4</octave>
        </pitch>
        <duration>5040</duration>
        <type>eighth</type>
        <stem>down</stem>
        <lyric name="1" number="1">
          <syllabic>single</syllabic>
          <text>the</text>
        </lyric>
        <lyric name="2" number="2">
          <syllabic>end</syllabic>
          <text>ven</text>
        </lyric>
        <lyric name="3" number="3">
          <syllabic>end</syllabic>
          <text>gels</text>
        </lyric>
      </note>
      <note>
        <pitch>
          <step>G</step>
          <octave>4</octave>
        </pitch>
        <duration>10080</duration>
        <type>quarter</type>
        <stem>down</stem>
        <lyric name="1" number="1">
          <syllabic>single</syllabic>
          <text>bleak</text>
        </lyric>
        <lyric name="2" number="2">
          <syllabic>begin</syllabic>
          <text>can</text>
        </lyric>
        <lyric name="3" number="3">
          <syllabic>single</syllabic>
          <text>and</text>
        </lyric>
        <lyric name="4" number="4">
          <syllabic>single</syllabic>
          <text>can</text>
        </lyric>
      </note>
      <note>
        <pitch>
          <step>E</step>
          <octave>4</octave>
        </pitch>
        <duration>10080</duration>
        <type>quarter</type>
        <stem>up</stem>
        <lyric name="1" number="1">
          <syllabic>begin</syllabic>
          <text>mid</text>
        </lyric>
        <lyric name="2" number="2">
          <syllabic>end</syllabic>
          <text>not</text>
        </lyric>
        <lyric name="3" number="3">
          <syllabic>begin</syllabic>
          <text>arch</text>
        </lyric>
        <lyric name="4" number="4">
          <syllabic>single</syllabic>
          <text>I</text>
        </lyric>
      </note>
    </measure>
    <!--========================= Measure 3 ==========================-->
    <measure number="3" width="144.83">
      <harmony>
        <root>
          <root-step>A</root-step>
        </root>
        <kind text="sus">suspended-fourth</kind>
      </harmony>
      <note>
        <pitch>
          <step>D</step>
          <octave>4</octave>
        </pitch>
        <duration>20160</duration>
        <type>half</type>
        <stem>up</stem>
        <lyric name="1" number="1">
          <syllabic>middle</syllabic>
          <text>win</text>
        </lyric>
        <lyric name="2" number="2">
          <syllabic>single</syllabic>
          <text>hold</text>
        </lyric>
        <lyric name="3" number="3">
          <syllabic>middle</syllabic>
          <text>an</text>
        </lyric>
        <lyric name="4" number="4">
          <syllabic>single</syllabic>
          <text>give</text>
        </lyric>
      </note>
      <harmony>
        <root>
          <root-step>A</root-step>
        </root>
        <kind text="m">minor</kind>
      </harmony>
      <note>
        <pitch>
          <step>C</step>
          <octave>4</octave>
        </pitch>
        <duration>20160</duration>
        <type>half</type>
        <stem>up</stem>
        <lyric name="1" number="1">
          <syllabic>end</syllabic>
          <text>ter,</text>
        </lyric>
        <lyric name="2" number="2">
          <syllabic>single</syllabic>
          <text>him,</text>
        </lyric>
        <lyric name="3" number="3">
          <syllabic>end</syllabic>
          <text>gels</text>
        </lyric>
        <lyric name="4" number="4">
          <syllabic>single</syllabic>
          <text>him,</text>
        </lyric>
      </note>
    </measure>
    <!--========================= Measure 4 ==========================-->
    <measure number="4" width="266.39">
      <harmony>
        <root>
          <root-step>D</root-step>
        </root>
        <kind text="m">minor</kind>
      </harmony>
      <note>
        <pitch>
          <step>D</step>
          <octave>4</octave>
        </pitch>
        <duration>15120</duration>
        <type>quarter</type>
        <dot />
        <stem>up</stem>
        <notations>
          <slur number="1" type="start" />
        </notations>
        <lyric name="1" number="1">
          <syllabic>begin</syllabic>
          <text>fros</text>
        </lyric>
        <lyric name="2" number="2">
          <syllabic>single</syllabic>
          <text>nor</text>
        </lyric>
        <lyric name="3" number="3">
          <syllabic>single</syllabic>
          <text>may</text>
        </lyric>
        <lyric name="4" number="4">
          <syllabic>single</syllabic>
          <text>poor</text>
        </lyric>
      </note>
      <note>
        <pitch>
          <step>E</step>
          <octave>4</octave>
        </pitch>
        <duration>5040</duration>
        <type>eighth</type>
        <stem>up</stem>
        <notations>
          <slur number="1" type="stop" />
        </notations>
        <lyric name="1" number="1">
          <syllabic>end</syllabic>
          <text>ty</text>
        </lyric>
        <lyric name="2" number="2">
          <syllabic>single</syllabic>
          <text>the</text>
        </lyric>
        <lyric name="3" number="3">
          <syllabic>single</syllabic>
          <text>have</text>
        </lyric>
      </note>
      <note>
        <pitch>
          <step>D</step>
          <octave>4</octave>
        </pitch>
        <duration>10080</duration>
        <type>quarter</type>
        <stem>up</stem>
        <lyric name="1" number="1">
          <syllabic>single</syllabic>
          <text>wind</text>
        </lyric>
        <lyric name="2" number="2">
          <syllabic>single</syllabic>
          <text>earth</text>
        </lyric>
        <lyric name="3" number="3">
          <syllabic>begin</syllabic>
          <text>ga</text>
        </lyric>
        <lyric name="4" number="4">
          <syllabic>single</syllabic>
          <text>as</text>
        </lyric>
      </note>
      <harmony>
        <root>
          <root-step>A</root-step>
        </root>
        <kind text="m7">minor-seventh</kind>
      </harmony>
      <note>
        <pitch>
          <step>A</step>
          <octave>3</octave>
        </pitch>
        <duration>10080</duration>
        <type>quarter</type>
        <stem>up</stem>
        <lyric name="1" number="1">
          <syllabic>single</syllabic>
          <text>made</text>
        </lyric>
        <lyric name="2" number="2">
          <syllabic>begin</syllabic>
          <text>sus</text>
        </lyric>
        <lyric name="3" number="3">
          <syllabic>end</syllabic>
          <text>thered</text>
        </lyric>
        <lyric name="4" number="4">
          <syllabic>single</syllabic>
          <text>I</text>
        </lyric>
      </note>
    </measure>
    <!--========================= Measure 5 ==========================-->
    <measure number="5" width="112.22">
      <harmony>
        <root>
          <root-step>D</root-step>
        </root>
        <kind text="m7">minor-seventh</kind>
      </harmony>
      <note>
        <pitch>
          <step>D</step>
          <octave>4</octave>
        </pitch>
        <duration>40320</duration>
        <type>whole</type>
        <lyric name="1" number="1">
          <syllabic>single</syllabic>
          <text>moan,</text>
        </lyric>
        <lyric name="2" number="2">
          <syllabic>end</syllabic>
          <text>tain;</text>
        </lyric>
        <lyric name="3" number="3">
          <syllabic>single</syllabic>
          <text>there,</text>
        </lyric>
        <lyric name="4" number="4">
          <syllabic>single</syllabic>
          <text>am?</text>
        </lyric>
      </note>
    </measure>
    <!--========================= Measure 6 ==========================-->
    <measure number="6" width="404.18">
      <print new-system="yes">
        <system-layout>
          <system-margins>
            <left-margin>75.53</left-margin>
            <right-margin>0</right-margin>
          </system-margins>
          <system-distance>231.22</system-distance>
        </system-layout>
      </print>
      <harmony>
        <root>
          <root-step>C</root-step>
        </root>
        <kind>major</kind>
      </harmony>
      <note>
        <pitch>
          <step>E</step>
          <octave>4</octave>
        </pitch>
        <duration>15120</duration>
        <type>quarter</type>
        <dot />
        <stem>up</stem>
        <lyric name="1" number="1">
          <syllabic>single</syllabic>
          <text>earth</text>
        </lyric>
        <lyric name="2" number="2">
          <syllabic>single</syllabic>
          <text>heav'n</text>
        </lyric>
        <lyric name="3" number="3">
          <syllabic>begin</syllabic>
          <text>che</text>
        </lyric>
        <lyric name="4" number="4">
          <syllabic>single</syllabic>
          <text>If</text>
        </lyric>
      </note>
      <note>
        <pitch>
          <step>F</step>
          <octave>4</octave>
        </pitch>
        <duration>5040</duration>
        <type>eighth</type>
        <stem>down</stem>
        <lyric name="1" number="1">
          <syllabic>single</syllabic>
          <text>stood</text>
        </lyric>
        <lyric name="2" number="2">
          <syllabic>single</syllabic>
          <text>and</text>
        </lyric>
        <lyric name="3" number="3">
          <syllabic>middle</syllabic>
          <text>rub</text>
        </lyric>
        <lyric name="4" number="4">
          <syllabic>single</syllabic>
          <text>I</text>
        </lyric>
      </note>
      <note>
        <pitch>
          <step>G</step>
          <octave>4</octave>
        </pitch>
        <duration>10080</duration>
        <type>quarter</type>
        <stem>down</stem>
        <notations>
          <slur number="2" type="start" />
        </notations>
        <lyric name="1" number="1">
          <syllabic>single</syllabic>
          <text>hard</text>
        </lyric>
        <lyric name="2" number="2">
          <syllabic>single</syllabic>
          <text>earth</text>
        </lyric>
        <lyric name="3" number="3">
          <syllabic>end</syllabic>
          <text>bim</text>
        </lyric>
        <lyric name="4" number="4">
          <syllabic>single</syllabic>
          <text>were</text>
        </lyric>
      </note>
      <note>
        <pitch>
          <step>E</step>
          <octave>4</octave>
        </pitch>
        <duration>10080</duration>
        <type>quarter</type>
        <stem>up</stem>
        <notations>
          <slur number="2" type="stop" />
        </notations>
        <lyric name="1" number="1">
          <syllabic>single</syllabic>
          <text>as</text>
        </lyric>
        <lyric name="2" number="2">
          <syllabic>single</syllabic>
          <text>shall</text>
        </lyric>
        <lyric name="3" number="3">
          <syllabic>single</syllabic>
          <text>adh</text>
        </lyric>
      </note>
    </measure>
    <!--========================= Measure 7 ==========================-->
    <measure number="7" width="248.72">
      <harmony>
        <root>
          <root-step>A</root-step>
        </root>
        <kind text="sus">suspended-fourth</kind>
      </harmony>
      <note>
        <pitch>
          <step>D</step>
          <octave>4</octave>
        </pitch>
        <duration>15120</duration>
        <type>quarter</type>
        <dot />
        <stem>up</stem>
        <notations>
          <slur number="3" type="start" />
        </notations>
        <lyric name="1" number="1">
          <syllabic>begin</syllabic>
          <text>i</text>
        </lyric>
        <lyric name="2" number="2">
          <syllabic>single</syllabic>
          <text>flee</text>
        </lyric>
        <lyric name="3" number="3">
          <syllabic>begin</syllabic>
          <text>se</text>
        </lyric>
        <lyric name="4" number="4">
          <syllabic>single</syllabic>
          <text>shep</text>
        </lyric>
      </note>
      <note>
        <pitch>
          <step>D</step>
          <octave>4</octave>
        </pitch>
        <duration>5040</duration>
        <type>eighth</type>
        <stem>up</stem>
        <notations>
          <slur number="3" type="stop" />
        </notations>
        <lyric name="2" number="2">
          <syllabic>begin</syllabic>
          <text>a</text>
        </lyric>
        <lyric name="3" number="3">
          <syllabic>middle</syllabic>
          <text>ra</text>
        </lyric>
      </note>
      <harmony>
        <root>
          <root-step>A</root-step>
        </root>
        <kind text="m">minor</kind>
      </harmony>
      <note>
        <pitch>
          <step>C</step>
          <octave>4</octave>
        </pitch>
        <duration>20160</duration>
        <type>half</type>
        <stem>up</stem>
        <lyric name="1" number="1">
          <syllabic>end</syllabic>
          <text>ron,</text>
        </lyric>
        <lyric name="2" number="2">
          <syllabic>end</syllabic>
          <text>way</text>
        </lyric>
        <lyric name="3" number="3">
          <syllabic>end</syllabic>
          <text>phim</text>
        </lyric>
        <lyric name="4" number="4">
          <syllabic>end</syllabic>
          <text>herd,</text>
        </lyric>
      </note>
    </measure>
    <!--========================= Measure 8 ==========================-->
    <measure number="8" width="348.66">
      <harmony>
        <root>
          <root-step>D</root-step>
        </root>
        <kind text="m7">minor-seventh</kind>
      </harmony>
      <note>
        <pitch>
          <step>D</step>
          <octave>4</octave>
        </pitch>
        <duration>10080</duration>
        <type>quarter</type>
        <stem>up</stem>
        <lyric name="1" number="1">
          <syllabic>begin</syllabic>
          <text>wa</text>
        </lyric>
        <lyric name="2" number="2">
          <syllabic>single</syllabic>
          <text>when</text>
        </lyric>
        <lyric name="3" number="3">
          <syllabic>begin</syllabic>
          <text>throng</text>
        </lyric>
        <lyric name="4" number="4">
          <syllabic>single</syllabic>
          <text>I</text>
        </lyric>
      </note>
      <note>
        <pitch>
          <step>E</step>
          <octave>4</octave>
        </pitch>
        <duration>10080</duration>
        <type>quarter</type>
        <stem>up</stem>
        <lyric name="1" number="1">
          <syllabic>end</syllabic>
          <text>ter</text>
        </lyric>
        <lyric name="2" number="2">
          <syllabic>single</syllabic>
          <text>He</text>
        </lyric>
        <lyric name="4" number="4">
          <syllabic>single</syllabic>
          <text>would</text>
        </lyric>
      </note>
      <harmony>
        <root>
          <root-step>G</root-step>
        </root>
        <kind text="7">dominant</kind>
      </harmony>
      <note>
        <pitch>
          <step>D</step>
          <octave>4</octave>
        </pitch>
        <duration>15120</duration>
        <type>quarter</type>
        <dot />
        <stem>up</stem>
        <lyric name="1" number="1">
          <syllabic>single</syllabic>
          <text>like</text>
        </lyric>
        <lyric name="2" number="2">
          <syllabic>single</syllabic>
          <text>comes</text>
        </lyric>
        <lyric name="3" number="3">
          <syllabic>end</syllabic>
          <text>ed</text>
        </lyric>
        <lyric name="4" number="4">
          <syllabic>single</syllabic>
          <text>bring</text>
        </lyric>
      </note>
      <note>
        <pitch>
          <step>C</step>
          <octave>4</octave>
        </pitch>
        <duration>5040</duration>
        <type>eighth</type>
        <stem>up</stem>
        <lyric name="1" number="1">
          <syllabic>single</syllabic>
          <text>a</text>
        </lyric>
        <lyric name="2" number="2">
          <syllabic>single</syllabic>
          <text>to</text>
        </lyric>
        <lyric name="3" number="3">
          <syllabic>single</syllabic>
          <text>the</text>
        </lyric>
        <lyric name="4" number="4">
          <syllabic>single</syllabic>
          <text>a</text>
        </lyric>
      </note>
    </measure>
    <!--========================= Measure 9 ==========================-->
    <measure number="9" width="284.63">
      <print new-system="yes">
        <system-layout>
          <system-margins>
            <left-margin>75.53</left-margin>
            <right-margin>0</right-margin>
          </system-margins>
          <system-distance>231.22</system-distance>
        </system-layout>
      </print>
      <harmony>
        <root>
          <root-step>C</root-step>
        </root>
        <kind>major</kind>
      </harmony>
      <note>
        <pitch>
          <step>C</step>
          <octave>4</octave>
        </pitch>
        <duration>30240</duration>
        <type>half</type>
        <dot />
        <stem>up</stem>
        <lyric name="1" number="1">
          <syllabic>single</syllabic>
          <text>stone.</text>
        </lyric>
        <lyric name="2" number="2">
          <syllabic>single</syllabic>
          <text>reign.</text>
        </lyric>
        <lyric name="3" number="3">
          <syllabic>single</syllabic>
          <text>air.</text>
        </lyric>
        <lyric name="4" number="4">
          <syllabic>single</syllabic>
          <text>lamb.</text>
        </lyric>
      </note>
      <note>
        <rest />
        <duration>10080</duration>
        <type>quarter</type>
      </note>
    </measure>
    <!--========================= Measure 10 =========================-->
    <measure number="10" width="368.87">
      <harmony>
        <root>
          <root-step>F</root-step>
        </root>
        <kind>major</kind>
      </harmony>
      <note>
        <pitch>
          <step>F</step>
          <octave>4</octave>
        </pitch>
        <duration>15120</duration>
        <type>quarter</type>
        <dot />
        <stem>down</stem>
        <lyric name="1" number="1">
          <syllabic>single</syllabic>
          <text>Snow</text>
        </lyric>
        <lyric name="2" number="2">
          <syllabic>single</syllabic>
          <text>In</text>
        </lyric>
        <lyric name="3" number="3">
          <syllabic>single</syllabic>
          <text>But</text>
        </lyric>
        <lyric name="4" number="4">
          <syllabic>single</syllabic>
          <text>If</text>
        </lyric>
      </note>
      <note>
        <pitch>
          <step>E</step>
          <octave>4</octave>
        </pitch>
        <duration>5040</duration>
        <type>eighth</type>
        <stem>up</stem>
        <lyric name="1" number="1">
          <syllabic>single</syllabic>
          <text>had</text>
        </lyric>
        <lyric name="2" number="2">
          <syllabic>single</syllabic>
          <text>the</text>
        </lyric>
        <lyric name="3" number="3">
          <syllabic>single</syllabic>
          <text>His</text>
        </lyric>
        <lyric name="4" number="4">
          <syllabic>single</syllabic>
          <text>I</text>
        </lyric>
      </note>
      <note>
        <pitch>
          <step>F</step>
          <octave>4</octave>
        </pitch>
        <duration>10080</duration>
        <type>quarter</type>
        <stem>down</stem>
        <lyric name="1" number="1">
          <syllabic>begin</syllabic>
          <text>fal</text>
        </lyric>
        <lyric name="2" number="2">
          <syllabic>single</syllabic>
          <text>bleak</text>
        </lyric>
        <lyric name="3" number="3">
          <syllabic>begin</syllabic>
          <text>moth</text>
        </lyric>
        <lyric name="4" number="4">
          <syllabic>single</syllabic>
          <text>were</text>
        </lyric>
      </note>
      <harmony>
        <root>
          <root-step>C</root-step>
        </root>
        <kind text="7">dominant</kind>
      </harmony>
      <note>
        <pitch>
          <step>G</step>
          <octave>4</octave>
        </pitch>
        <duration>10080</duration>
        <type>quarter</type>
        <stem>down</stem>
        <lyric name="1" number="1">
          <syllabic>end</syllabic>
          <text>len,</text>
        </lyric>
        <lyric name="2" number="2">
          <syllabic>begin</syllabic>
          <text>mid</text>
        </lyric>
        <lyric name="3" number="3">
          <syllabic>end</syllabic>
          <text>er</text>
        </lyric>
        <lyric name="4" number="4">
          <syllabic>single</syllabic>
          <text>a</text>
        </lyric>
      </note>
    </measure>
    <!--========================= Measure 11 =========================-->
    <measure number="11" width="348.07">
      <harmony>
        <root>
          <root-step>F</root-step>
        </root>
        <kind>major</kind>
      </harmony>
      <note>
        <pitch>
          <step>A</step>
          <octave>4</octave>
        </pitch>
        <duration>10080</duration>
        <type>quarter</type>
        <stem>down</stem>
        <notations>
          <slur number="4" type="start" />
        </notations>
        <lyric name="1" number="1">
          <syllabic>single</syllabic>
          <text>snow</text>
        </lyric>
        <lyric name="2" number="2">
          <syllabic>middle</syllabic>
          <text>win</text>
        </lyric>
        <lyric name="3" number="3">
          <syllabic>begin</syllabic>
          <text>on</text>
        </lyric>
        <lyric name="4" number="4">
          <syllabic>single</syllabic>
          <text>wise</text>
        </lyric>
      </note>
      <note>
        <pitch>
          <step>A</step>
          <octave>4</octave>
        </pitch>
        <duration>10080</duration>
        <type>quarter</type>
        <stem>down</stem>
        <notations>
          <slur number="4" type="stop" />
        </notations>
        <lyric name="1" number="1">
          <syllabic>single</syllabic>
          <text>on</text>
        </lyric>
      </note>
      <harmony>
        <root>
          <root-step>A</root-step>
        </root>
        <kind text="m">minor</kind>
      </harmony>
      <note>
        <pitch>
          <step>E</step>
          <octave>4</octave>
        </pitch>
        <duration>10080</duration>
        <tie type="start" />
        <type>quarter</type>
        <stem>up</stem>
        <notations>
          <tied type="start" />
        </notations>
        <lyric name="1" number="1">
          <syllabic>single</syllabic>
          <text>snow,</text>
        </lyric>
        <lyric name="2" number="2">
          <syllabic>end</syllabic>
          <text>ter</text>
        </lyric>
        <lyric name="3" number="3">
          <syllabic>end</syllabic>
          <text>ly,</text>
        </lyric>
        <lyric name="4" number="4">
          <syllabic>single</syllabic>
          <text>man,</text>
        </lyric>
      </note>
      <note>
        <pitch>
          <step>E</step>
          <octave>4</octave>
        </pitch>
        <duration>10080</duration>
        <tie type="stop" />
        <type>quarter</type>
        <stem>up</stem>
        <notations>
          <tied type="stop" />
        </notations>
        <lyric name="2" number="2">
          <syllabic>single</syllabic>
          <text>a</text>
        </lyric>
      </note>
    </measure>
    <!--========================= Measure 12 =========================-->
    <measure number="12" width="392.58">
      <print new-system="yes">
        <system-layout>
          <system-margins>
            <left-margin>75.53</left-margin>
            <right-margin>0</right-margin>
          </system-margins>
          <system-distance>231.22</system-distance>
        </system-layout>
      </print>
      <harmony>
        <root>
          <root-step>C</root-step>
        </root>
        <kind>major</kind>
      </harmony>
      <note>
        <pitch>
          <step>G</step>
          <octave>4</octave>
        </pitch>
        <duration>10080</duration>
        <type>quarter</type>
        <stem>down</stem>
        <notations>
          <slur number="5" type="start" />
        </notations>
        <lyric name="1" number="1">
          <syllabic>single</syllabic>
          <text>snow</text>
        </lyric>
        <lyric name="2" number="2">
          <syllabic>begin</syllabic>
          <text>sta</text>
        </lyric>
        <lyric name="3" number="3">
          <syllabic>single</syllabic>
          <text>in</text>
        </lyric>
        <lyric name="4" number="4">
          <syllabic>single</syllabic>
          <text>I</text>
        </lyric>
      </note>
      <note>
        <pitch>
          <step>E</step>
          <octave>4</octave>
        </pitch>
        <duration>10080</duration>
        <type>quarter</type>
        <stem>up</stem>
        <notations>
          <slur number="5" type="stop" />
        </notations>
        <lyric name="2" number="2">
          <syllabic>end</syllabic>
          <text>ble</text>
        </lyric>
        <lyric name="3" number="3">
          <syllabic>single</syllabic>
          <text>her</text>
        </lyric>
        <lyric name="4" number="4">
          <syllabic>single</syllabic>
          <text>would</text>
        </lyric>
      </note>
      <harmony>
        <root>
          <root-step>F</root-step>
        </root>
        <kind text="6">major-sixth</kind>
      </harmony>
      <note>
        <pitch>
          <step>D</step>
          <octave>4</octave>
        </pitch>
        <duration>10080</duration>
        <type>quarter</type>
        <stem>up</stem>
        <notations>
          <slur number="6" type="start" />
        </notations>
        <lyric name="1" number="1">
          <syllabic>single</syllabic>
          <text>on</text>
        </lyric>
        <lyric name="2" number="2">
          <syllabic>single</syllabic>
          <text>place</text>
        </lyric>
        <lyric name="3" number="3">
          <syllabic>begin</syllabic>
          <text>mai</text>
        </lyric>
        <lyric name="4" number="4">
          <syllabic>single</syllabic>
          <text>do</text>
        </lyric>
      </note>
      <harmony>
        <root>
          <root-step>F</root-step>
        </root>
        <kind text="Maj7">major-seventh</kind>
      </harmony>
      <note>
        <pitch>
          <step>C</step>
          <octave>4</octave>
        </pitch>
        <duration>10080</duration>
        <type>quarter</type>
        <stem>up</stem>
        <notations>
          <slur number="6" type="stop" />
        </notations>
        <lyric name="2" number="2">
          <syllabic>begin</syllabic>
          <text>suf</text>
        </lyric>
        <lyric name="3" number="3">
          <syllabic>end</syllabic>
          <text>den</text>
        </lyric>
        <lyric name="4" number="4">
          <syllabic>single</syllabic>
          <text>my</text>
        </lyric>
      </note>
    </measure>
    <!--========================= Measure 13 =========================-->
    <measure number="13" width="241.9">
      <harmony>
        <root>
          <root-step>G</root-step>
        </root>
        <kind>major</kind>
      </harmony>
      <note>
        <pitch>
          <step>B</step>
          <octave>3</octave>
        </pitch>
        <duration>30240</duration>
        <type>half</type>
        <dot />
        <stem>up</stem>
        <notations>
          <slur number="1" type="start" />
        </notations>
        <lyric name="1" number="1">
          <syllabic>single</syllabic>
          <text>snow,</text>
        </lyric>
        <lyric name="2" number="2">
          <syllabic>end</syllabic>
          <text>ficed:</text>
        </lyric>
        <lyric name="3" number="3">
          <syllabic>single</syllabic>
          <text>bliss,</text>
        </lyric>
        <lyric name="4" number="4">
          <syllabic>single</syllabic>
          <text>part.</text>
        </lyric>
      </note>
      <note>
        <pitch>
          <step>G</step>
          <octave>3</octave>
        </pitch>
        <duration>10080</duration>
        <type>quarter</type>
        <stem>up</stem>
        <notations>
          <slur number="1" type="stop" />
        </notations>
        <lyric name="2" number="2">
          <syllabic>single</syllabic>
          <text>the</text>
        </lyric>
        <lyric name="4" number="4">
          <syllabic>single</syllabic>
          <text>Yet</text>
        </lyric>
      </note>
    </measure>
    <!--========================= Measure 14 =========================-->
    <measure number="14" width="367.08">
      <harmony>
        <root>
          <root-step>C</root-step>
        </root>
        <kind>major</kind>
      </harmony>
      <note>
        <pitch>
          <step>E</step>
          <octave>4</octave>
        </pitch>
        <duration>15120</duration>
        <type>quarter</type>
        <dot />
        <stem>up</stem>
        <notations>
          <slur number="2" type="start" />
        </notations>
        <lyric name="1" number="1">
          <syllabic>single</syllabic>
          <text>in</text>
        </lyric>
        <lyric name="2" number="2">
          <syllabic>single</syllabic>
          <text>Lord</text>
        </lyric>
        <lyric name="3" number="3">
          <syllabic>begin</syllabic>
          <text>wor</text>
        </lyric>
        <lyric name="4" number="4">
          <syllabic>single</syllabic>
          <text>what</text>
        </lyric>
      </note>
      <note>
        <pitch>
          <step>F</step>
          <octave>4</octave>
        </pitch>
        <duration>5040</duration>
        <type>eighth</type>
        <stem>down</stem>
        <notations>
          <slur number="2" type="stop" />
        </notations>
        <lyric name="1" number="1">
          <syllabic>single</syllabic>
          <text>the</text>
        </lyric>
        <lyric name="3" number="3">
          <syllabic>end</syllabic>
          <text>shipped</text>
        </lyric>
      </note>
      <note>
        <pitch>
          <step>G</step>
          <octave>4</octave>
        </pitch>
        <duration>10080</duration>
        <type>quarter</type>
        <stem>down</stem>
        <lyric name="1" number="1">
          <syllabic>single</syllabic>
          <text>bleak</text>
        </lyric>
        <lyric name="2" number="2">
          <syllabic>single</syllabic>
          <text>God</text>
        </lyric>
        <lyric name="3" number="3">
          <syllabic>single</syllabic>
          <text>the</text>
        </lyric>
        <lyric name="4" number="4">
          <syllabic>single</syllabic>
          <text>can</text>
        </lyric>
      </note>
      <note>
        <pitch>
          <step>E</step>
          <octave>4</octave>
        </pitch>
        <duration>10080</duration>
        <type>quarter</type>
        <stem>up</stem>
        <lyric name="1" number="1">
          <syllabic>begin</syllabic>
          <text>mid</text>
        </lyric>
        <lyric name="2" number="2">
          <syllabic>begin</syllabic>
          <text>a</text>
        </lyric>
        <lyric name="3" number="3">
          <syllabic>begin</syllabic>
          <text>be</text>
        </lyric>
        <lyric name="4" number="4">
          <syllabic>single</syllabic>
          <text>I</text>
        </lyric>
      </note>
    </measure>
    <!--========================= Measure 15 =========================-->
    <measure number="15" width="353.57">
      <print new-system="yes">
        <system-layout>
          <system-margins>
            <left-margin>75.53</left-margin>
            <right-margin>0</right-margin>
          </system-margins>
          <system-distance>231.22</system-distance>
        </system-layout>
      </print>
      <harmony>
        <root>
          <root-step>A</root-step>
        </root>
        <kind text="sus">suspended-fourth</kind>
      </harmony>
      <note>
        <pitch>
          <step>D</step>
          <octave>4</octave>
        </pitch>
        <duration>20160</duration>
        <type>half</type>
        <stem>up</stem>
        <lyric name="1" number="1">
          <syllabic>middle</syllabic>
          <text>win</text>
        </lyric>
        <lyric name="2" number="2">
          <syllabic>middle</syllabic>
          <text>migh</text>
        </lyric>
        <lyric name="3" number="3">
          <syllabic>middle</syllabic>
          <text>lov</text>
        </lyric>
        <lyric name="4" number="4">
          <syllabic>single</syllabic>
          <text>give</text>
        </lyric>
      </note>
      <harmony>
        <root>
          <root-step>A</root-step>
        </root>
        <kind text="m">minor</kind>
      </harmony>
      <note>
        <pitch>
          <step>C</step>
          <octave>4</octave>
        </pitch>
        <duration>20160</duration>
        <type>half</type>
        <stem>up</stem>
        <lyric name="1" number="1">
          <syllabic>end</syllabic>
          <text>ter,</text>
        </lyric>
        <lyric name="2" number="2">
          <syllabic>end</syllabic>
          <text>ty,</text>
        </lyric>
        <lyric name="3" number="3">
          <syllabic>end</syllabic>
          <text>ec</text>
        </lyric>
        <lyric name="4" number="4">
          <syllabic>single</syllabic>
          <text>Him:</text>
        </lyric>
      </note>
    </measure>
    <!--========================= Measure 16 =========================-->
    <measure number="16" width="373">
      <harmony>
        <root>
          <root-step>D</root-step>
        </root>
        <kind text="m7">minor-seventh</kind>
      </harmony>
      <note>
        <pitch>
          <step>D</step>
          <octave>4</octave>
        </pitch>
        <duration>10080</duration>
        <type>quarter</type>
        <stem>up</stem>
        <notations>
          <slur number="3" type="start" />
        </notations>
        <lyric name="1" number="1">
          <syllabic>single</syllabic>
          <text>long,</text>
        </lyric>
        <lyric name="2" number="2">
          <syllabic>begin</syllabic>
          <text>Je</text>
        </lyric>
        <lyric name="3" number="3">
          <syllabic>single</syllabic>
          <text>with</text>
        </lyric>
        <lyric name="4" number="4">
          <syllabic>single</syllabic>
          <text>give</text>
        </lyric>
      </note>
      <note>
        <pitch>
          <step>E</step>
          <octave>4</octave>
        </pitch>
        <duration>10080</duration>
        <type>quarter</type>
        <stem>up</stem>
        <notations>
          <slur number="3" type="stop" />
        </notations>
      </note>
      <harmony>
        <root>
          <root-step>G</root-step>
        </root>
        <kind text="7">dominant</kind>
      </harmony>
      <note>
        <pitch>
          <step>D</step>
          <octave>4</octave>
        </pitch>
        <duration>15120</duration>
        <type>quarter</type>
        <dot />
        <stem>up</stem>
        <notations>
          <slur number="4" type="start" />
        </notations>
        <lyric name="1" number="1">
          <syllabic>single</syllabic>
          <text>long</text>
        </lyric>
        <lyric name="2" number="2">
          <syllabic>end</syllabic>
          <text>sus</text>
        </lyric>
        <lyric name="3" number="3">
          <syllabic>single</syllabic>
          <text>a</text>
        </lyric>
        <lyric name="4" number="4">
          <syllabic>single</syllabic>
          <text>my</text>
        </lyric>
      </note>
      <note>
        <pitch>
          <step>C</step>
          <octave>4</octave>
        </pitch>
        <duration>5040</duration>
        <type>eighth</type>
        <stem>up</stem>
        <notations>
          <slur number="4" type="stop" />
        </notations>
        <lyric name="1" number="1">
          <syllabic>begin</syllabic>
          <text>a</text>
        </lyric>
      </note>
    </measure>
    <!--========================= Measure 17 =========================-->
    <measure number="17" width="275">
      <harmony>
        <root>
          <root-step>C</root-step>
        </root>
        <kind>major</kind>
      </harmony>
      <note>
        <pitch>
          <step>C</step>
          <octave>4</octave>
        </pitch>
        <duration>40320</duration>
        <type>whole</type>
        <lyric name="1" number="1">
          <syllabic>end</syllabic>
          <text>go.</text>
        </lyric>
        <lyric name="2" number="2">
          <syllabic>single</syllabic>
          <text>Christ.</text>
        </lyric>
        <lyric name="3" number="3">
          <syllabic>single</syllabic>
          <text>kiss.</text>
        </lyric>
        <lyric name="4" number="4">
          <syllabic>single</syllabic>
          <text>heart.</text>
        </lyric>
      </note>
      <barline location="right">
        <bar-style>light-heavy</bar-style>
      </barline>
    </measure>
  </part>
</score-partwise>