<?xml version="1.0" encoding="utf-8"?>
<!DOCTYPE score-partwise  PUBLIC "-//Recordare//DTD MusicXML 3.1 Partwise//EN" "http://www.musicxml.org/dtds/partwise.dtd">
<score-partwise version="3.1">
  <movement-title>Can't Help Lovin' Dat Man</movement-title>
  <identification>
    <creator type="composer">Jerome Kern</creator>
    <creator>Oscar Hammerstein II</creator>
    <encoding>
      <encoding-date>2022-11-09</encoding-date>
      <software>music21 v.8.1.0</software>
      <software>Music21</software>
    </encoding>
  </identification>
  <defaults>
    <scaling>
      <millimeters>7.056</millimeters>
      <tenths>40</tenths>
    </scaling>
    <page-layout>
      <page-height>1683.67</page-height>
      <page-width>1190.48</page-width>
      <page-margins>
        <left-margin>56.6893</left-margin>
        <right-margin>56.6893</right-margin>
        <top-margin>56.6893</top-margin>
        <bottom-margin>113.379</bottom-margin>
      </page-margins>
    </page-layout>
  </defaults>
  <credit page="1">
    <credit-words default-x="595.238" default-y="1626.98" font-size="24" halign="center" valign="top">Cant help lovin 'dat man</credit-words>
  </credit>
  <credit page="1">
    <credit-words default-x="595.238" default-y="1570.29" font-size="14" halign="center" valign="top">(from Show Boat)</credit-words>
  </credit>
  <credit page="1">
    <credit-words default-x="1133.79" default-y="1555.42" font-size="12" halign="center" valign="top">Jerome Kern</credit-words>
  </credit>
  <credit page="1">
    <credit-words default-x="56.6893" default-y="1555.42" font-size="12" halign="center" valign="top">Oscar Hammerstein II</credit-words>
  </credit>
  <part-list>
    <score-part id="P1">
      <part-name>Electric Piano</part-name>
      <part-abbreviation>E.Pno</part-abbreviation>
      <score-instrument id="Ib736000c02a22be018c79679749261d1">
        <instrument-name>Electric Piano</instrument-name>
        <instrument-abbreviation>E.Pno</instrument-abbreviation>
      </score-instrument>
      <midi-instrument id="Ib736000c02a22be018c79679749261d1">
        <midi-channel>1</midi-channel>
        <midi-program>5</midi-program>
      </midi-instrument>
    </score-part>
  </part-list>
  <!--=========================== Part 1 ===========================-->
  <part id="P1">
    <!--========================= Measure 1 ==========================-->
    <measure number="1" width="384.64">
      <print>
        <system-layout>
          <system-margins>
            <left-margin>0</left-margin>
            <right-margin>0</right-margin>
          </system-margins>
          <top-system-distance>205.4</top-system-distance>
        </system-layout>
      </print>
      <attributes>
        <divisions>10080</divisions>
        <key>
          <fifths>0</fifths>
          <mode>major</mode>
        </key>
        <time>
          <beats>4</beats>
          <beat-type>4</beat-type>
        </time>
        <clef>
          <sign>G</sign>
          <line>2</line>
        </clef>
      </attributes>
      <harmony>
        <root>
          <root-step>C</root-step>
        </root>
        <kind text="Maj7">major-seventh</kind>
      </harmony>
      <note>
        <pitch>
          <step>G</step>
          <octave>4</octave>
        </pitch>
        <duration>5040</duration>
        <type>eighth</type>
        <stem>up</stem>
        <beam number="1">begin</beam>
        <lyric name="1" number="1">
          <syllabic>single</syllabic>
          <text>Fish</text>
        </lyric>
      </note>
      <note>
        <pitch>
          <step>G</step>
          <octave>4</octave>
        </pitch>
        <duration>5040</duration>
        <type>eighth</type>
        <stem>up</stem>
        <beam number="1">continue</beam>
        <lyric name="1" number="1">
          <syllabic>single</syllabic>
          <text>got</text>
        </lyric>
      </note>
      <note>
        <pitch>
          <step>G</step>
          <octave>4</octave>
        </pitch>
        <duration>5040</duration>
        <type>eighth</type>
        <stem>up</stem>
        <beam number="1">continue</beam>
        <lyric name="1" number="1">
          <syllabic>single</syllabic>
          <text>to</text>
        </lyric>
      </note>
      <note>
        <pitch>
          <step>C</step>
          <octave>5</octave>
        </pitch>
        <duration>5040</duration>
        <tie type="start" />
        <type>eighth</type>
        <stem>up</stem>
        <beam number="1">end</beam>
        <notations>
          <tied type="start" />
        </notations>
        <lyric name="1" number="1">
          <syllabic>single</syllabic>
          <text>swim</text>
        </lyric>
      </note>
      <harmony>
        <root>
          <root-step>A</root-step>
        </root>
        <kind text="m7">minor-seventh</kind>
      </harmony>
      <note>
        <pitch>
          <step>C</step>
          <octave>5</octave>
        </pitch>
        <duration>10080</duration>
        <tie type="stop" />
        <type>quarter</type>
        <stem>down</stem>
        <notations>
          <tied type="stop" />
        </notations>
      </note>
      <note>
        <pitch>
          <step>C</step>
          <octave>5</octave>
        </pitch>
        <duration>10080</duration>
        <type>quarter</type>
        <stem>down</stem>
        <lyric name="1" number="1">
          <syllabic>single</syllabic>
          <text>and</text>
        </lyric>
      </note>
    </measure>
    <!--========================= Measure 2 ==========================-->
    <measure number="2" width="225.65">
      <harmony>
        <root>
          <root-step>D</root-step>
        </root>
        <kind text="m7">minor-seventh</kind>
      </harmony>
      <note>
        <pitch>
          <step>C</step>
          <octave>5</octave>
        </pitch>
        <duration>5040</duration>
        <type>eighth</type>
        <stem>up</stem>
        <beam number="1">begin</beam>
        <lyric name="1" number="1">
          <syllabic>single</syllabic>
          <text>birds</text>
        </lyric>
      </note>
      <note>
        <pitch>
          <step>G</step>
          <octave>4</octave>
        </pitch>
        <duration>5040</duration>
        <type>eighth</type>
        <stem>up</stem>
        <beam number="1">continue</beam>
        <lyric name="1" number="1">
          <syllabic>single</syllabic>
          <text>got</text>
        </lyric>
      </note>
      <note>
        <pitch>
          <step>G</step>
          <octave>4</octave>
        </pitch>
        <duration>5040</duration>
        <type>eighth</type>
        <stem>up</stem>
        <beam number="1">continue</beam>
        <lyric name="1" number="1">
          <syllabic>single</syllabic>
          <text>to</text>
        </lyric>
      </note>
      <note>
        <pitch>
          <step>G</step>
          <octave>4</octave>
        </pitch>
        <duration>5040</duration>
        <tie type="start" />
        <type>eighth</type>
        <stem>up</stem>
        <beam number="1">end</beam>
        <notations>
          <tied type="start" />
        </notations>
        <lyric name="1" number="1">
          <syllabic>single</syllabic>
          <text>fly</text>
        </lyric>
      </note>
      <harmony>
        <root>
          <root-step>G</root-step>
        </root>
        <kind text="7">dominant</kind>
      </harmony>
      <note>
        <pitch>
          <step>G</step>
          <octave>4</octave>
        </pitch>
        <duration>20160</duration>
        <tie type="stop" />
        <type>half</type>
        <stem>down</stem>
        <notations>
          <tied type="stop" />
        </notations>
      </note>
    </measure>
    <!--========================= Measure 3 ==========================-->
    <measure number="3" width="251.64">
      <harmony>
        <root>
          <root-step>C</root-step>
        </root>
        <kind text="Maj7">major-seventh</kind>
      </harmony>
      <note>
        <pitch>
          <step>E</step>
          <octave>4</octave>
        </pitch>
        <duration>5040</duration>
        <type>eighth</type>
        <stem>up</stem>
        <beam number="1">begin</beam>
        <lyric name="1" number="1">
          <syllabic>single</syllabic>
          <text>I</text>
        </lyric>
      </note>
      <note>
        <pitch>
          <step>E</step>
          <octave>4</octave>
        </pitch>
        <duration>5040</duration>
        <type>eighth</type>
        <stem>up</stem>
        <beam number="1">continue</beam>
        <lyric name="1" number="1">
          <syllabic>single</syllabic>
          <text>got</text>
        </lyric>
      </note>
      <note>
        <pitch>
          <step>E</step>
          <octave>4</octave>
        </pitch>
        <duration>5040</duration>
        <type>eighth</type>
        <stem>up</stem>
        <beam number="1">continue</beam>
        <lyric name="1" number="1">
          <syllabic>single</syllabic>
          <text>to</text>
        </lyric>
      </note>
      <note>
        <pitch>
          <step>A</step>
          <octave>4</octave>
        </pitch>
        <duration>5040</duration>
        <tie type="start" />
        <type>eighth</type>
        <stem>up</stem>
        <beam number="1">end</beam>
        <notations>
          <tied type="start" />
        </notations>
        <lyric name="1" number="1">
          <syllabic>single</syllabic>
          <text>love</text>
        </lyric>
      </note>
      <harmony>
        <root>
          <root-step>G</root-step>
        </root>
        <kind text="m9">minor-ninth</kind>
      </harmony>
      <note>
        <pitch>
          <step>A</step>
          <octave>4</octave>
        </pitch>
        <duration>10080</duration>
        <tie type="stop" />
        <type>quarter</type>
        <stem>down</stem>
        <notations>
          <tied type="stop" />
        </notations>
      </note>
      <harmony>
        <root>
          <root-step>C</root-step>
          <root-alter>0</root-alter>
        </root>
        <kind text="7b9">dominant</kind>
        <degree>
          <degree-value>9</degree-value>
          <degree-alter>-1</degree-alter>
          <degree-type>add</degree-type>
        </degree>
      </harmony>
      <note>
        <pitch>
          <step>A</step>
          <octave>4</octave>
        </pitch>
        <duration>10080</duration>
        <type>quarter</type>
        <stem>down</stem>
        <lyric name="1" number="1">
          <syllabic>single</syllabic>
          <text>one</text>
        </lyric>
      </note>
    </measure>
    <!--========================= Measure 4 ==========================-->
    <measure number="4" width="215.17">
      <harmony>
        <root>
          <root-step>F</root-step>
        </root>
        <kind text="Maj7">major-seventh</kind>
      </harmony>
      <note>
        <pitch>
          <step>A</step>
          <octave>4</octave>
        </pitch>
        <duration>5040</duration>
        <type>eighth</type>
        <stem>up</stem>
        <beam number="1">begin</beam>
        <lyric name="1" number="1">
          <syllabic>single</syllabic>
          <text>man</text>
        </lyric>
      </note>
      <note>
        <pitch>
          <step>D</step>
          <octave>4</octave>
        </pitch>
        <duration>5040</duration>
        <type>eighth</type>
        <stem>up</stem>
        <beam number="1">continue</beam>
        <lyric name="1" number="1">
          <syllabic>single</syllabic>
          <text>till</text>
        </lyric>
      </note>
      <note>
        <pitch>
          <step>D</step>
          <octave>4</octave>
        </pitch>
        <duration>5040</duration>
        <type>eighth</type>
        <stem>up</stem>
        <beam number="1">continue</beam>
        <lyric name="1" number="1">
          <syllabic>single</syllabic>
          <text>I</text>
        </lyric>
      </note>
      <note>
        <pitch>
          <step>D</step>
          <octave>4</octave>
        </pitch>
        <duration>5040</duration>
        <tie type="start" />
        <type>eighth</type>
        <stem>up</stem>
        <beam number="1">end</beam>
        <notations>
          <tied type="start" />
        </notations>
        <lyric name="1" number="1">
          <syllabic>single</syllabic>
          <text>die</text>
        </lyric>
      </note>
      <harmony>
        <root>
          <root-step>B</root-step>
          <root-alter>-1</root-alter>
        </root>
        <kind text="9">dominant-ninth</kind>
      </harmony>
      <note>
        <pitch>
          <step>D</step>
          <octave>4</octave>
        </pitch>
        <duration>20160</duration>
        <tie type="stop" />
        <type>half</type>
        <stem>up</stem>
        <notations>
          <tied type="stop" />
        </notations>
      </note>
    </measure>
    <!--========================= Measure 5 ==========================-->
    <measure number="5" width="325.01">
      <print new-system="yes">
        <system-layout>
          <system-margins>
            <left-margin>0</left-margin>
            <right-margin>0</right-margin>
          </system-margins>
          <system-distance>129.45</system-distance>
        </system-layout>
      </print>
      <harmony>
        <root>
          <root-step>E</root-step>
        </root>
        <kind text="m7">minor-seventh</kind>
      </harmony>
      <note>
        <pitch>
          <step>G</step>
          <octave>4</octave>
        </pitch>
        <duration>20160</duration>
        <type>half</type>
        <stem>down</stem>
        <lyric name="1" number="1">
          <syllabic>single</syllabic>
          <text>Can't</text>
        </lyric>
      </note>
      <harmony>
        <root>
          <root-step>A</root-step>
        </root>
        <kind text="m7">minor-seventh</kind>
      </harmony>
      <note>
        <pitch>
          <step>C</step>
          <octave>4</octave>
        </pitch>
        <duration>20160</duration>
        <type>half</type>
        <stem>up</stem>
        <lyric name="1" number="1">
          <syllabic>single</syllabic>
          <text>help</text>
        </lyric>
      </note>
    </measure>
    <!--========================= Measure 6 ==========================-->
    <measure number="6" width="336.25">
      <harmony>
        <root>
          <root-step>G</root-step>
          <root-alter>1</root-alter>
        </root>
        <kind text="7">dominant</kind>
      </harmony>
      <note>
        <pitch>
          <step>G</step>
          <alter>1</alter>
          <octave>3</octave>
        </pitch>
        <duration>5040</duration>
        <type>eighth</type>
        <accidental>sharp</accidental>
        <stem>up</stem>
        <beam number="1">begin</beam>
        <lyric name="1" number="1">
          <syllabic>single</syllabic>
          <text>lov</text>
        </lyric>
      </note>
      <note>
        <pitch>
          <step>C</step>
          <octave>4</octave>
        </pitch>
        <duration>5040</duration>
        <type>eighth</type>
        <stem>up</stem>
        <beam number="1">continue</beam>
        <lyric name="1" number="1">
          <syllabic>single</syllabic>
          <text>in'</text>
        </lyric>
      </note>
      <note>
        <pitch>
          <step>C</step>
          <octave>4</octave>
        </pitch>
        <duration>5040</duration>
        <type>eighth</type>
        <stem>up</stem>
        <beam number="1">continue</beam>
        <lyric name="1" number="1">
          <syllabic>single</syllabic>
          <text>dat</text>
        </lyric>
      </note>
      <note>
        <pitch>
          <step>E</step>
          <alter>-1</alter>
          <octave>4</octave>
        </pitch>
        <duration>5040</duration>
        <tie type="start" />
        <type>eighth</type>
        <accidental>flat</accidental>
        <stem>up</stem>
        <beam number="1">end</beam>
        <notations>
          <tied type="start" />
        </notations>
        <lyric name="1" number="1">
          <syllabic>single</syllabic>
          <text>man</text>
        </lyric>
      </note>
      <harmony>
        <root>
          <root-step>G</root-step>
          <root-alter>0</root-alter>
        </root>
        <kind text="7#5">augmented-seventh</kind>
      </harmony>
      <note>
        <pitch>
          <step>E</step>
          <alter>-1</alter>
          <octave>4</octave>
        </pitch>
        <duration>10080</duration>
        <tie type="stop" />
        <type>quarter</type>
        <accidental>flat</accidental>
        <stem>up</stem>
        <notations>
          <tied type="stop" />
        </notations>
      </note>
      <harmony>
        <root>
          <root-step>G</root-step>
          <root-alter>0</root-alter>
        </root>
        <kind text="7b9">dominant</kind>
        <degree>
          <degree-value>9</degree-value>
          <degree-alter>-1</degree-alter>
          <degree-type>add</degree-type>
        </degree>
      </harmony>
      <note>
        <pitch>
          <step>D</step>
          <octave>4</octave>
        </pitch>
        <duration>10080</duration>
        <type>quarter</type>
        <stem>up</stem>
        <lyric name="1" number="1">
          <syllabic>single</syllabic>
          <text>of</text>
        </lyric>
      </note>
    </measure>
    <!--========================= Measure 7 ==========================-->
    <measure number="7" width="221.69">
      <harmony>
        <root>
          <root-step>C</root-step>
        </root>
        <kind text="6">major-sixth</kind>
      </harmony>
      <note>
        <pitch>
          <step>C</step>
          <octave>4</octave>
        </pitch>
        <duration>20160</duration>
        <tie type="start" />
        <type>half</type>
        <stem>up</stem>
        <notations>
          <tied type="start" />
        </notations>
        <lyric name="1" number="1">
          <syllabic>single</syllabic>
          <text>mine.</text>
        </lyric>
      </note>
      <harmony>
        <root>
          <root-step>A</root-step>
        </root>
        <kind text="m7">minor-seventh</kind>
      </harmony>
      <note>
        <pitch>
          <step>C</step>
          <octave>4</octave>
        </pitch>
        <duration>20160</duration>
        <tie type="stop" />
        <tie type="start" />
        <type>half</type>
        <stem>up</stem>
        <notations>
          <tied type="stop" />
          <tied type="start" />
        </notations>
      </note>
    </measure>
    <!--========================= Measure 8 ==========================-->
    <measure number="8" width="194.15">
      <harmony>
        <root>
          <root-step>D</root-step>
        </root>
        <kind text="m7">minor-seventh</kind>
      </harmony>
      <note>
        <pitch>
          <step>C</step>
          <octave>4</octave>
        </pitch>
        <duration>20160</duration>
        <tie type="stop" />
        <type>half</type>
        <stem>up</stem>
        <notations>
          <tied type="stop" />
        </notations>
      </note>
      <harmony>
        <root>
          <root-step>G</root-step>
        </root>
        <kind text="7+">augmented-seventh</kind>
      </harmony>
      <note>
        <rest />
        <duration>20160</duration>
        <type>half</type>
      </note>
      <barline location="right">
        <bar-style>light-light</bar-style>
      </barline>
    </measure>
    <!--========================= Measure 9 ==========================-->
    <measure number="9" width="332.75">
      <print new-system="yes">
        <system-layout>
          <system-margins>
            <left-margin>0</left-margin>
            <right-margin>0</right-margin>
          </system-margins>
          <system-distance>129.45</system-distance>
        </system-layout>
      </print>
      <harmony>
        <root>
          <root-step>C</root-step>
        </root>
        <kind text="Maj7">major-seventh</kind>
      </harmony>
      <note>
        <pitch>
          <step>G</step>
          <octave>4</octave>
        </pitch>
        <duration>5040</duration>
        <type>eighth</type>
        <stem>up</stem>
        <beam number="1">begin</beam>
        <lyric name="1" number="1">
          <syllabic>single</syllabic>
          <text>Tell</text>
        </lyric>
      </note>
      <note>
        <pitch>
          <step>G</step>
          <octave>4</octave>
        </pitch>
        <duration>5040</duration>
        <type>eighth</type>
        <stem>up</stem>
        <beam number="1">continue</beam>
        <lyric name="1" number="1">
          <syllabic>single</syllabic>
          <text>me</text>
        </lyric>
      </note>
      <note>
        <pitch>
          <step>G</step>
          <octave>4</octave>
        </pitch>
        <duration>5040</duration>
        <type>eighth</type>
        <stem>up</stem>
        <beam number="1">continue</beam>
        <lyric name="1" number="1">
          <syllabic>single</syllabic>
          <text>he's</text>
        </lyric>
      </note>
      <note>
        <pitch>
          <step>C</step>
          <octave>5</octave>
        </pitch>
        <duration>5040</duration>
        <tie type="start" />
        <type>eighth</type>
        <stem>up</stem>
        <beam number="1">end</beam>
        <notations>
          <tied type="start" />
        </notations>
        <lyric name="1" number="1">
          <syllabic>single</syllabic>
          <text>la</text>
        </lyric>
      </note>
      <harmony>
        <root>
          <root-step>A</root-step>
        </root>
        <kind text="m7">minor-seventh</kind>
      </harmony>
      <note>
        <pitch>
          <step>C</step>
          <octave>5</octave>
        </pitch>
        <duration>10080</duration>
        <tie type="stop" />
        <type>quarter</type>
        <stem>down</stem>
        <notations>
          <tied type="stop" />
        </notations>
      </note>
      <note>
        <pitch>
          <step>C</step>
          <octave>5</octave>
        </pitch>
        <duration>10080</duration>
        <type>quarter</type>
        <stem>down</stem>
        <lyric name="1" number="1">
          <syllabic>single</syllabic>
          <text>zy</text>
        </lyric>
      </note>
    </measure>
    <!--========================= Measure 10 =========================-->
    <measure number="10" width="246.86">
      <harmony>
        <root>
          <root-step>D</root-step>
        </root>
        <kind text="m7">minor-seventh</kind>
      </harmony>
      <note>
        <pitch>
          <step>C</step>
          <octave>5</octave>
        </pitch>
        <duration>5040</duration>
        <type>eighth</type>
        <stem>up</stem>
        <beam number="1">begin</beam>
        <lyric name="1" number="1">
          <syllabic>single</syllabic>
          <text>tell</text>
        </lyric>
      </note>
      <note>
        <pitch>
          <step>G</step>
          <octave>4</octave>
        </pitch>
        <duration>5040</duration>
        <type>eighth</type>
        <stem>up</stem>
        <beam number="1">continue</beam>
        <lyric name="1" number="1">
          <syllabic>single</syllabic>
          <text>me</text>
        </lyric>
      </note>
      <note>
        <pitch>
          <step>G</step>
          <octave>4</octave>
        </pitch>
        <duration>5040</duration>
        <type>eighth</type>
        <stem>up</stem>
        <beam number="1">continue</beam>
        <lyric name="1" number="1">
          <syllabic>single</syllabic>
          <text>he's</text>
        </lyric>
      </note>
      <note>
        <pitch>
          <step>G</step>
          <octave>4</octave>
        </pitch>
        <duration>5040</duration>
        <tie type="start" />
        <type>eighth</type>
        <stem>up</stem>
        <beam number="1">end</beam>
        <notations>
          <tied type="start" />
        </notations>
        <lyric name="1" number="1">
          <syllabic>single</syllabic>
          <text>slow,</text>
        </lyric>
      </note>
      <harmony>
        <root>
          <root-step>G</root-step>
        </root>
        <kind text="7">dominant</kind>
      </harmony>
      <note>
        <pitch>
          <step>G</step>
          <octave>4</octave>
        </pitch>
        <duration>20160</duration>
        <tie type="stop" />
        <type>half</type>
        <stem>down</stem>
        <notations>
          <tied type="stop" />
        </notations>
      </note>
    </measure>
    <!--========================= Measure 11 =========================-->
    <measure number="11" width="253.34">
      <harmony>
        <root>
          <root-step>C</root-step>
        </root>
        <kind text="Maj7">major-seventh</kind>
      </harmony>
      <note>
        <pitch>
          <step>E</step>
          <octave>4</octave>
        </pitch>
        <duration>5040</duration>
        <type>eighth</type>
        <stem>up</stem>
        <beam number="1">begin</beam>
        <lyric name="1" number="1">
          <syllabic>single</syllabic>
          <text>tell</text>
        </lyric>
      </note>
      <note>
        <pitch>
          <step>E</step>
          <octave>4</octave>
        </pitch>
        <duration>5040</duration>
        <type>eighth</type>
        <stem>up</stem>
        <beam number="1">continue</beam>
        <lyric name="1" number="1">
          <syllabic>single</syllabic>
          <text>me</text>
        </lyric>
      </note>
      <note>
        <pitch>
          <step>E</step>
          <octave>4</octave>
        </pitch>
        <duration>5040</duration>
        <type>eighth</type>
        <stem>up</stem>
        <beam number="1">continue</beam>
        <lyric name="1" number="1">
          <syllabic>single</syllabic>
          <text>I'm</text>
        </lyric>
      </note>
      <note>
        <pitch>
          <step>A</step>
          <octave>4</octave>
        </pitch>
        <duration>5040</duration>
        <tie type="start" />
        <type>eighth</type>
        <stem>up</stem>
        <beam number="1">end</beam>
        <notations>
          <tied type="start" />
        </notations>
        <lyric name="1" number="1">
          <syllabic>single</syllabic>
          <text>cra</text>
        </lyric>
      </note>
      <harmony>
        <root>
          <root-step>G</root-step>
        </root>
        <kind text="m9">minor-ninth</kind>
      </harmony>
      <note>
        <pitch>
          <step>A</step>
          <octave>4</octave>
        </pitch>
        <duration>10080</duration>
        <tie type="stop" />
        <type>quarter</type>
        <stem>down</stem>
        <notations>
          <tied type="stop" />
        </notations>
      </note>
      <harmony>
        <root>
          <root-step>C</root-step>
          <root-alter>0</root-alter>
        </root>
        <kind text="7b9">dominant</kind>
        <degree>
          <degree-value>9</degree-value>
          <degree-alter>-1</degree-alter>
          <degree-type>add</degree-type>
        </degree>
      </harmony>
      <note>
        <pitch>
          <step>A</step>
          <octave>4</octave>
        </pitch>
        <duration>10080</duration>
        <type>quarter</type>
        <stem>down</stem>
        <lyric name="1" number="1">
          <syllabic>single</syllabic>
          <text>zy</text>
        </lyric>
      </note>
    </measure>
    <!--========================= Measure 12 =========================-->
    <measure number="12" width="244.15">
      <harmony>
        <root>
          <root-step>F</root-step>
        </root>
        <kind text="6">major-sixth</kind>
      </harmony>
      <note>
        <pitch>
          <step>A</step>
          <octave>4</octave>
        </pitch>
        <duration>5040</duration>
        <type>eighth</type>
        <stem>up</stem>
        <beam number="1">begin</beam>
        <lyric name="1" number="1">
          <syllabic>single</syllabic>
          <text>may</text>
        </lyric>
      </note>
      <note>
        <pitch>
          <step>D</step>
          <octave>4</octave>
        </pitch>
        <duration>5040</duration>
        <type>eighth</type>
        <stem>up</stem>
        <beam number="1">continue</beam>
        <lyric name="1" number="1">
          <syllabic>single</syllabic>
          <text>be</text>
        </lyric>
      </note>
      <note>
        <pitch>
          <step>D</step>
          <octave>4</octave>
        </pitch>
        <duration>5040</duration>
        <type>eighth</type>
        <stem>up</stem>
        <beam number="1">continue</beam>
        <lyric name="1" number="1">
          <syllabic>single</syllabic>
          <text>I</text>
        </lyric>
      </note>
      <note>
        <pitch>
          <step>D</step>
          <octave>4</octave>
        </pitch>
        <duration>5040</duration>
        <tie type="start" />
        <type>eighth</type>
        <stem>up</stem>
        <beam number="1">end</beam>
        <notations>
          <tied type="start" />
        </notations>
        <lyric name="1" number="1">
          <syllabic>single</syllabic>
          <text>know,</text>
        </lyric>
      </note>
      <harmony>
        <root>
          <root-step>B</root-step>
          <root-alter>-1</root-alter>
        </root>
        <kind text="9">dominant-ninth</kind>
      </harmony>
      <note>
        <pitch>
          <step>D</step>
          <octave>4</octave>
        </pitch>
        <duration>20160</duration>
        <tie type="stop" />
        <type>half</type>
        <stem>up</stem>
        <notations>
          <tied type="stop" />
        </notations>
      </note>
    </measure>
    <!--========================= Measure 13 =========================-->
    <measure number="13" width="328.74">
      <print new-system="yes">
        <system-layout>
          <system-margins>
            <left-margin>0</left-margin>
            <right-margin>0</right-margin>
          </system-margins>
          <system-distance>129.45</system-distance>
        </system-layout>
      </print>
      <harmony>
        <root>
          <root-step>E</root-step>
        </root>
        <kind text="m7">minor-seventh</kind>
      </harmony>
      <note>
        <pitch>
          <step>G</step>
          <octave>4</octave>
        </pitch>
        <duration>20160</duration>
        <type>half</type>
        <stem>down</stem>
        <lyric name="1" number="1">
          <syllabic>single</syllabic>
          <text>Can't</text>
        </lyric>
      </note>
      <harmony>
        <root>
          <root-step>A</root-step>
        </root>
        <kind text="m7">minor-seventh</kind>
      </harmony>
      <note>
        <pitch>
          <step>C</step>
          <octave>4</octave>
        </pitch>
        <duration>20160</duration>
        <type>half</type>
        <stem>up</stem>
        <lyric name="1" number="1">
          <syllabic>single</syllabic>
          <text>help</text>
        </lyric>
      </note>
    </measure>
    <!--========================= Measure 14 =========================-->
    <measure number="14" width="339.97">
      <harmony>
        <root>
          <root-step>G</root-step>
          <root-alter>1</root-alter>
        </root>
        <kind text="7">dominant</kind>
      </harmony>
      <note>
        <pitch>
          <step>G</step>
          <alter>1</alter>
          <octave>3</octave>
        </pitch>
        <duration>5040</duration>
        <type>eighth</type>
        <accidental>sharp</accidental>
        <stem>up</stem>
        <beam number="1">begin</beam>
        <lyric name="1" number="1">
          <syllabic>single</syllabic>
          <text>lov</text>
        </lyric>
      </note>
      <note>
        <pitch>
          <step>C</step>
          <octave>4</octave>
        </pitch>
        <duration>5040</duration>
        <type>eighth</type>
        <stem>up</stem>
        <beam number="1">continue</beam>
        <lyric name="1" number="1">
          <syllabic>single</syllabic>
          <text>in'</text>
        </lyric>
      </note>
      <note>
        <pitch>
          <step>C</step>
          <octave>4</octave>
        </pitch>
        <duration>5040</duration>
        <type>eighth</type>
        <stem>up</stem>
        <beam number="1">continue</beam>
        <lyric name="1" number="1">
          <syllabic>single</syllabic>
          <text>dat</text>
        </lyric>
      </note>
      <note>
        <pitch>
          <step>E</step>
          <alter>-1</alter>
          <octave>4</octave>
        </pitch>
        <duration>5040</duration>
        <tie type="start" />
        <type>eighth</type>
        <accidental>flat</accidental>
        <stem>up</stem>
        <beam number="1">end</beam>
        <notations>
          <tied type="start" />
        </notations>
        <lyric name="1" number="1">
          <syllabic>single</syllabic>
          <text>man</text>
        </lyric>
      </note>
      <harmony>
        <root>
          <root-step>G</root-step>
          <root-alter>0</root-alter>
        </root>
        <kind text="7#5">augmented-seventh</kind>
      </harmony>
      <note>
        <pitch>
          <step>E</step>
          <alter>-1</alter>
          <octave>4</octave>
        </pitch>
        <duration>10080</duration>
        <tie type="stop" />
        <type>quarter</type>
        <accidental>flat</accidental>
        <stem>up</stem>
        <notations>
          <tied type="stop" />
        </notations>
      </note>
      <harmony>
        <root>
          <root-step>G</root-step>
        </root>
        <kind text="7">dominant</kind>
      </harmony>
      <note>
        <pitch>
          <step>D</step>
          <octave>4</octave>
        </pitch>
        <duration>10080</duration>
        <type>quarter</type>
        <stem>up</stem>
        <lyric name="1" number="1">
          <syllabic>single</syllabic>
          <text>of</text>
        </lyric>
      </note>
    </measure>
    <!--========================= Measure 15 =========================-->
    <measure number="15" width="207.51">
      <harmony relative-x="1400">
        <root>
          <root-step>C</root-step>
        </root>
        <kind text="6">major-sixth</kind>
      </harmony>
      <note>
        <pitch>
          <step>C</step>
          <octave>4</octave>
        </pitch>
        <duration>40320</duration>
        <tie type="start" />
        <type>whole</type>
        <notations>
          <tied type="start" />
        </notations>
        <lyric name="1" number="1">
          <syllabic>single</syllabic>
          <text>mine.</text>
        </lyric>
      </note>
    </measure>
    <!--========================= Measure 16 =========================-->
    <measure number="16" width="200.87">
      <harmony>
        <root>
          <root-step>G</root-step>
        </root>
        <kind text="m7">minor-seventh</kind>
      </harmony>
      <note>
        <pitch>
          <step>C</step>
          <octave>4</octave>
        </pitch>
        <duration>30240</duration>
        <tie type="stop" />
        <type>half</type>
        <dot />
        <stem>up</stem>
        <notations>
          <tied type="stop" />
        </notations>
      </note>
      <harmony>
        <root>
          <root-step>C</root-step>
          <root-alter>0</root-alter>
        </root>
        <kind text="7b9">dominant</kind>
        <degree>
          <degree-value>9</degree-value>
          <degree-alter>-1</degree-alter>
          <degree-type>add</degree-type>
        </degree>
      </harmony>
      <note>
        <rest />
        <duration>10080</duration>
        <type>quarter</type>
      </note>
      <barline location="right">
        <bar-style>light-light</bar-style>
      </barline>
    </measure>
    <!--========================= Measure 17 =========================-->
    <measure number="17" width="418.73">
      <print new-system="yes">
        <system-layout>
          <system-margins>
            <left-margin>0</left-margin>
            <right-margin>0</right-margin>
          </system-margins>
          <system-distance>129.45</system-distance>
        </system-layout>
      </print>
      <harmony>
        <root>
          <root-step>F</root-step>
        </root>
        <kind text="6">major-sixth</kind>
      </harmony>
      <note>
        <pitch>
          <step>D</step>
          <octave>4</octave>
        </pitch>
        <duration>10080</duration>
        <type>quarter</type>
        <stem>up</stem>
        <lyric name="1" number="1">
          <syllabic>single</syllabic>
          <text>When</text>
        </lyric>
      </note>
      <note>
        <pitch>
          <step>D</step>
          <octave>4</octave>
        </pitch>
        <duration>10080</duration>
        <type>quarter</type>
        <stem>up</stem>
        <lyric name="1" number="1">
          <syllabic>single</syllabic>
          <text>he</text>
        </lyric>
      </note>
      <note>
        <pitch>
          <step>D</step>
          <octave>4</octave>
        </pitch>
        <duration>10080</duration>
        <type>quarter</type>
        <stem>up</stem>
        <lyric name="1" number="1">
          <syllabic>single</syllabic>
          <text>goes</text>
        </lyric>
      </note>
      <note>
        <pitch>
          <step>D</step>
          <octave>4</octave>
        </pitch>
        <duration>5040</duration>
        <type>eighth</type>
        <stem>up</stem>
        <beam number="1">begin</beam>
        <lyric name="1" number="1">
          <syllabic>single</syllabic>
          <text>a</text>
        </lyric>
      </note>
      <note>
        <pitch>
          <step>E</step>
          <alter>-1</alter>
          <octave>4</octave>
        </pitch>
        <duration>5040</duration>
        <tie type="start" />
        <type>eighth</type>
        <accidental>flat</accidental>
        <stem>up</stem>
        <beam number="1">end</beam>
        <notations>
          <tied type="start" />
        </notations>
        <lyric name="1" number="1">
          <syllabic>single</syllabic>
          <text>way</text>
        </lyric>
      </note>
    </measure>
    <!--========================= Measure 18 =========================-->
    <measure number="18" width="166.1">
      <harmony>
        <root>
          <root-step>F</root-step>
          <root-alter>1</root-alter>
        </root>
        <kind text="dim7">diminished-seventh</kind>
      </harmony>
      <note>
        <pitch>
          <step>E</step>
          <alter>-1</alter>
          <octave>4</octave>
        </pitch>
        <duration>40320</duration>
        <tie type="stop" />
        <type>whole</type>
        <accidental>flat</accidental>
        <notations>
          <tied type="stop" />
        </notations>
      </note>
    </measure>
    <!--========================= Measure 19 =========================-->
    <measure number="19" width="314.16">
      <harmony>
        <root>
          <root-step>C</root-step>
        </root>
        <kind text="Maj7">major-seventh</kind>
      </harmony>
      <note>
        <pitch>
          <step>E</step>
          <octave>4</octave>
        </pitch>
        <duration>10080</duration>
        <type>quarter</type>
        <stem>up</stem>
        <lyric name="1" number="1">
          <syllabic>single</syllabic>
          <text>dat's</text>
        </lyric>
      </note>
      <note>
        <pitch>
          <step>E</step>
          <octave>4</octave>
        </pitch>
        <duration>10080</duration>
        <type>quarter</type>
        <stem>up</stem>
        <lyric name="1" number="1">
          <syllabic>single</syllabic>
          <text>a</text>
        </lyric>
      </note>
      <harmony>
        <root>
          <root-step>A</root-step>
        </root>
        <kind text="7">dominant</kind>
      </harmony>
      <note>
        <pitch>
          <step>E</step>
          <octave>4</octave>
        </pitch>
        <duration>10080</duration>
        <type>quarter</type>
        <stem>up</stem>
        <lyric name="1" number="1">
          <syllabic>begin</syllabic>
          <text>rain</text>
        </lyric>
      </note>
      <note>
        <pitch>
          <step>E</step>
          <octave>4</octave>
        </pitch>
        <duration>5040</duration>
        <type>eighth</type>
        <stem>up</stem>
        <beam number="1">begin</beam>
        <lyric name="1" number="1">
          <syllabic>end</syllabic>
          <text>y</text>
        </lyric>
      </note>
      <note>
        <pitch>
          <step>F</step>
          <alter>1</alter>
          <octave>4</octave>
        </pitch>
        <duration>5040</duration>
        <tie type="start" />
        <type>eighth</type>
        <accidental>sharp</accidental>
        <stem>up</stem>
        <beam number="1">end</beam>
        <notations>
          <tied type="start" />
        </notations>
        <lyric name="1" number="1">
          <syllabic>single</syllabic>
          <text>day,</text>
        </lyric>
      </note>
    </measure>
    <!--========================= Measure 20 =========================-->
    <measure number="20" width="178.1">
      <harmony>
        <root>
          <root-step>D</root-step>
        </root>
        <kind text="9">dominant-ninth</kind>
      </harmony>
      <note>
        <pitch>
          <step>F</step>
          <alter>1</alter>
          <octave>4</octave>
        </pitch>
        <duration>20160</duration>
        <tie type="stop" />
        <tie type="start" />
        <type>half</type>
        <accidental>sharp</accidental>
        <stem>up</stem>
        <notations>
          <tied type="stop" />
          <tied type="start" />
        </notations>
      </note>
      <harmony>
        <root>
          <root-step>E</root-step>
          <root-alter>-1</root-alter>
        </root>
        <kind text="dim7">diminished-seventh</kind>
      </harmony>
      <note>
        <pitch>
          <step>F</step>
          <alter>1</alter>
          <octave>4</octave>
        </pitch>
        <duration>20160</duration>
        <tie type="stop" />
        <type>half</type>
        <accidental>sharp</accidental>
        <stem>up</stem>
        <notations>
          <tied type="stop" />
        </notations>
      </note>
    </measure>
    <!--========================= Measure 21 =========================-->
    <measure number="21" width="375.95">
      <print new-system="yes">
        <system-layout>
          <system-margins>
            <left-margin>0</left-margin>
            <right-margin>0</right-margin>
          </system-margins>
          <system-distance>129.45</system-distance>
        </system-layout>
      </print>
      <harmony>
        <root>
          <root-step>E</root-step>
          <root-alter>0</root-alter>
        </root>
        <kind text="m7">minor-seventh</kind>
      </harmony>
      <note>
        <pitch>
          <step>G</step>
          <octave>4</octave>
        </pitch>
        <duration>10080</duration>
        <type>quarter</type>
        <stem>down</stem>
        <lyric name="1" number="1">
          <syllabic>single</syllabic>
          <text>and</text>
        </lyric>
      </note>
      <note>
        <pitch>
          <step>G</step>
          <octave>4</octave>
        </pitch>
        <duration>10080</duration>
        <type>quarter</type>
        <stem>down</stem>
        <lyric name="1" number="1">
          <syllabic>single</syllabic>
          <text>when</text>
        </lyric>
      </note>
      <harmony>
        <root>
          <root-step>A</root-step>
        </root>
        <kind text="7b9">dominant</kind>
        <degree>
          <degree-value>9</degree-value>
          <degree-alter>-1</degree-alter>
          <degree-type>add</degree-type>
        </degree>
      </harmony>
      <note>
        <pitch>
          <step>G</step>
          <octave>4</octave>
        </pitch>
        <duration>10080</duration>
        <type>quarter</type>
        <stem>down</stem>
        <lyric name="1" number="1">
          <syllabic>single</syllabic>
          <text>he</text>
        </lyric>
      </note>
      <note>
        <pitch>
          <step>G</step>
          <octave>4</octave>
        </pitch>
        <duration>10080</duration>
        <type>quarter</type>
        <stem>down</stem>
        <lyric name="1" number="1">
          <syllabic>single</syllabic>
          <text>comes</text>
        </lyric>
      </note>
    </measure>
    <!--========================= Measure 22 =========================-->
    <measure number="22" width="253.66">
      <harmony>
        <root>
          <root-step>D</root-step>
        </root>
        <kind text="m7">minor-seventh</kind>
      </harmony>
      <note>
        <pitch>
          <step>A</step>
          <octave>4</octave>
        </pitch>
        <duration>10080</duration>
        <type>quarter</type>
        <stem>down</stem>
        <lyric name="1" number="1">
          <syllabic>single</syllabic>
          <text>back</text>
        </lyric>
      </note>
      <note>
        <pitch>
          <step>A</step>
          <octave>4</octave>
        </pitch>
        <duration>10080</duration>
        <type>quarter</type>
        <stem>down</stem>
        <lyric name="1" number="1">
          <syllabic>single</syllabic>
          <text>dat</text>
        </lyric>
      </note>
      <harmony>
        <root>
          <root-step>D</root-step>
        </root>
        <kind text="9">dominant-ninth</kind>
      </harmony>
      <note>
        <pitch>
          <step>A</step>
          <octave>4</octave>
        </pitch>
        <duration>10080</duration>
        <type>quarter</type>
        <stem>down</stem>
        <lyric name="1" number="1">
          <syllabic>single</syllabic>
          <text>day</text>
        </lyric>
      </note>
      <note>
        <pitch>
          <step>A</step>
          <octave>4</octave>
        </pitch>
        <duration>10080</duration>
        <type>quarter</type>
        <stem>down</stem>
        <lyric name="1" number="1">
          <syllabic>single</syllabic>
          <text>is</text>
        </lyric>
      </note>
    </measure>
    <!--========================= Measure 23 =========================-->
    <measure number="23" width="282.57">
      <harmony>
        <root>
          <root-step>D</root-step>
        </root>
        <kind text="m7">minor-seventh</kind>
        <inversion>5</inversion>
      </harmony>
      <note>
        <pitch>
          <step>D</step>
          <octave>5</octave>
        </pitch>
        <duration>20160</duration>
        <tie type="start" />
        <type>half</type>
        <stem>down</stem>
        <notations>
          <tied type="start" />
        </notations>
        <lyric name="1" number="1">
          <syllabic>single</syllabic>
          <text>fine,</text>
        </lyric>
      </note>
      <note>
        <pitch>
          <step>D</step>
          <octave>5</octave>
        </pitch>
        <duration>5040</duration>
        <tie type="stop" />
        <type>eighth</type>
        <stem>down</stem>
        <beam number="1">begin</beam>
        <notations>
          <tied type="stop" />
        </notations>
      </note>
      <note>
        <pitch>
          <step>C</step>
          <octave>5</octave>
        </pitch>
        <duration>5040</duration>
        <type>eighth</type>
        <stem>down</stem>
        <beam number="1">continue</beam>
        <lyric name="1" number="1">
          <syllabic>single</syllabic>
          <text>the</text>
        </lyric>
      </note>
      <note>
        <pitch>
          <step>B</step>
          <octave>4</octave>
        </pitch>
        <duration>5040</duration>
        <type>eighth</type>
        <stem>down</stem>
        <beam number="1">continue</beam>
        <lyric name="1" number="1">
          <syllabic>single</syllabic>
          <text>sun</text>
        </lyric>
      </note>
      <note>
        <pitch>
          <step>A</step>
          <octave>4</octave>
        </pitch>
        <duration>5040</duration>
        <type>eighth</type>
        <stem>down</stem>
        <beam number="1">end</beam>
        <lyric name="1" number="1">
          <syllabic>single</syllabic>
          <text>will</text>
        </lyric>
      </note>
    </measure>
    <!--========================= Measure 24 =========================-->
    <measure number="24" width="164.92">
      <harmony>
        <root>
          <root-step>G</root-step>
        </root>
        <kind text="7">dominant</kind>
      </harmony>
      <note>
        <pitch>
          <step>G</step>
          <octave>4</octave>
        </pitch>
        <duration>40320</duration>
        <type>whole</type>
        <lyric name="1" number="1">
          <syllabic>single</syllabic>
          <text>shine</text>
        </lyric>
      </note>
      <barline location="right">
        <bar-style>light-light</bar-style>
      </barline>
    </measure>
    <!--========================= Measure 25 =========================-->
    <measure number="25" width="354.66">
      <print new-system="yes">
        <system-layout>
          <system-margins>
            <left-margin>0</left-margin>
            <right-margin>0</right-margin>
          </system-margins>
          <system-distance>129.45</system-distance>
        </system-layout>
      </print>
      <harmony>
        <root>
          <root-step>C</root-step>
        </root>
        <kind text="Maj7">major-seventh</kind>
      </harmony>
      <note>
        <pitch>
          <step>G</step>
          <octave>4</octave>
        </pitch>
        <duration>5040</duration>
        <type>eighth</type>
        <stem>up</stem>
        <beam number="1">begin</beam>
        <lyric name="1" number="1">
          <syllabic>single</syllabic>
          <text>He</text>
        </lyric>
      </note>
      <note>
        <pitch>
          <step>G</step>
          <octave>4</octave>
        </pitch>
        <duration>5040</duration>
        <type>eighth</type>
        <stem>up</stem>
        <beam number="1">continue</beam>
        <lyric name="1" number="1">
          <syllabic>single</syllabic>
          <text>can</text>
        </lyric>
      </note>
      <note>
        <pitch>
          <step>G</step>
          <octave>4</octave>
        </pitch>
        <duration>5040</duration>
        <type>eighth</type>
        <stem>up</stem>
        <beam number="1">continue</beam>
        <lyric name="1" number="1">
          <syllabic>single</syllabic>
          <text>come</text>
        </lyric>
      </note>
      <note>
        <pitch>
          <step>C</step>
          <octave>5</octave>
        </pitch>
        <duration>5040</duration>
        <tie type="start" />
        <type>eighth</type>
        <stem>up</stem>
        <beam number="1">end</beam>
        <notations>
          <tied type="start" />
        </notations>
        <lyric name="1" number="1">
          <syllabic>single</syllabic>
          <text>home</text>
        </lyric>
      </note>
      <harmony>
        <root>
          <root-step>A</root-step>
        </root>
        <kind text="m7">minor-seventh</kind>
      </harmony>
      <note>
        <pitch>
          <step>C</step>
          <octave>5</octave>
        </pitch>
        <duration>10080</duration>
        <tie type="stop" />
        <type>quarter</type>
        <stem>down</stem>
        <notations>
          <tied type="stop" />
        </notations>
      </note>
      <note>
        <pitch>
          <step>C</step>
          <octave>5</octave>
        </pitch>
        <duration>10080</duration>
        <type>quarter</type>
        <stem>down</stem>
        <lyric name="1" number="1">
          <syllabic>single</syllabic>
          <text>as</text>
        </lyric>
      </note>
    </measure>
    <!--========================= Measure 26 =========================-->
    <measure number="26" width="199.02">
      <harmony>
        <root>
          <root-step>D</root-step>
        </root>
        <kind text="m7">minor-seventh</kind>
      </harmony>
      <note>
        <pitch>
          <step>C</step>
          <octave>5</octave>
        </pitch>
        <duration>5040</duration>
        <type>eighth</type>
        <stem>up</stem>
        <beam number="1">begin</beam>
        <lyric name="1" number="1">
          <syllabic>single</syllabic>
          <text>late</text>
        </lyric>
      </note>
      <note>
        <pitch>
          <step>G</step>
          <octave>4</octave>
        </pitch>
        <duration>5040</duration>
        <type>eighth</type>
        <stem>up</stem>
        <beam number="1">continue</beam>
        <lyric name="1" number="1">
          <syllabic>single</syllabic>
          <text>as</text>
        </lyric>
      </note>
      <note>
        <pitch>
          <step>G</step>
          <octave>4</octave>
        </pitch>
        <duration>5040</duration>
        <type>eighth</type>
        <stem>up</stem>
        <beam number="1">continue</beam>
        <lyric name="1" number="1">
          <syllabic>single</syllabic>
          <text>can</text>
        </lyric>
      </note>
      <note>
        <pitch>
          <step>G</step>
          <octave>4</octave>
        </pitch>
        <duration>5040</duration>
        <tie type="start" />
        <type>eighth</type>
        <stem>up</stem>
        <beam number="1">end</beam>
        <notations>
          <tied type="start" />
        </notations>
        <lyric name="1" number="1">
          <syllabic>single</syllabic>
          <text>be,</text>
        </lyric>
      </note>
      <harmony>
        <root>
          <root-step>G</root-step>
        </root>
        <kind text="7">dominant</kind>
      </harmony>
      <note>
        <pitch>
          <step>G</step>
          <octave>4</octave>
        </pitch>
        <duration>20160</duration>
        <tie type="stop" />
        <type>half</type>
        <stem>down</stem>
        <notations>
          <tied type="stop" />
        </notations>
      </note>
    </measure>
    <!--========================= Measure 27 =========================-->
    <measure number="27" width="290.75">
      <harmony>
        <root>
          <root-step>C</root-step>
        </root>
        <kind text="Maj7">major-seventh</kind>
      </harmony>
      <note>
        <pitch>
          <step>E</step>
          <octave>4</octave>
        </pitch>
        <duration>5040</duration>
        <type>eighth</type>
        <stem>up</stem>
        <beam number="1">begin</beam>
        <lyric name="1" number="1">
          <syllabic>single</syllabic>
          <text>home</text>
        </lyric>
      </note>
      <note>
        <pitch>
          <step>E</step>
          <octave>4</octave>
        </pitch>
        <duration>5040</duration>
        <type>eighth</type>
        <stem>up</stem>
        <beam number="1">continue</beam>
        <lyric name="1" number="1">
          <syllabic>begin</syllabic>
          <text>with</text>
        </lyric>
      </note>
      <note>
        <pitch>
          <step>E</step>
          <octave>4</octave>
        </pitch>
        <duration>5040</duration>
        <type>eighth</type>
        <stem>up</stem>
        <beam number="1">continue</beam>
        <lyric name="1" number="1">
          <syllabic>end</syllabic>
          <text>out</text>
        </lyric>
      </note>
      <note>
        <pitch>
          <step>A</step>
          <octave>4</octave>
        </pitch>
        <duration>5040</duration>
        <tie type="start" />
        <type>eighth</type>
        <stem>up</stem>
        <beam number="1">end</beam>
        <notations>
          <tied type="start" />
        </notations>
        <lyric name="1" number="1">
          <syllabic>single</syllabic>
          <text>him</text>
        </lyric>
      </note>
      <harmony>
        <root>
          <root-step>G</root-step>
        </root>
        <kind text="m9">minor-ninth</kind>
      </harmony>
      <note>
        <pitch>
          <step>A</step>
          <octave>4</octave>
        </pitch>
        <duration>10080</duration>
        <tie type="stop" />
        <type>quarter</type>
        <stem>down</stem>
        <notations>
          <tied type="stop" />
        </notations>
      </note>
      <harmony>
        <root>
          <root-step>C</root-step>
          <root-alter>0</root-alter>
        </root>
        <kind text="7b9">dominant</kind>
        <degree>
          <degree-value>9</degree-value>
          <degree-alter>-1</degree-alter>
          <degree-type>add</degree-type>
        </degree>
      </harmony>
      <note>
        <pitch>
          <step>A</step>
          <octave>4</octave>
        </pitch>
        <duration>10080</duration>
        <type>quarter</type>
        <stem>down</stem>
        <lyric name="1" number="1">
          <syllabic>single</syllabic>
          <text>aint</text>
        </lyric>
      </note>
    </measure>
    <!--========================= Measure 28 =========================-->
    <measure number="28" width="232.66">
      <harmony>
        <root>
          <root-step>F</root-step>
        </root>
        <kind text="Maj7">major-seventh</kind>
      </harmony>
      <note>
        <pitch>
          <step>A</step>
          <octave>4</octave>
        </pitch>
        <duration>5040</duration>
        <type>eighth</type>
        <stem>up</stem>
        <beam number="1">begin</beam>
        <lyric name="1" number="1">
          <syllabic>single</syllabic>
          <text>no</text>
        </lyric>
      </note>
      <note>
        <pitch>
          <step>D</step>
          <octave>4</octave>
        </pitch>
        <duration>5040</duration>
        <type>eighth</type>
        <stem>up</stem>
        <beam number="1">continue</beam>
        <lyric name="1" number="1">
          <syllabic>single</syllabic>
          <text>home</text>
        </lyric>
      </note>
      <note>
        <pitch>
          <step>D</step>
          <octave>4</octave>
        </pitch>
        <duration>5040</duration>
        <type>eighth</type>
        <stem>up</stem>
        <beam number="1">continue</beam>
        <lyric name="1" number="1">
          <syllabic>single</syllabic>
          <text>to</text>
        </lyric>
      </note>
      <note>
        <pitch>
          <step>D</step>
          <octave>4</octave>
        </pitch>
        <duration>5040</duration>
        <tie type="start" />
        <type>eighth</type>
        <stem>up</stem>
        <beam number="1">end</beam>
        <notations>
          <tied type="start" />
        </notations>
        <lyric name="1" number="1">
          <syllabic>single</syllabic>
          <text>me,</text>
        </lyric>
      </note>
      <harmony>
        <root>
          <root-step>B</root-step>
          <root-alter>-1</root-alter>
        </root>
        <kind text="9">dominant-ninth</kind>
      </harmony>
      <note>
        <pitch>
          <step>D</step>
          <octave>4</octave>
        </pitch>
        <duration>20160</duration>
        <tie type="stop" />
        <type>half</type>
        <stem>up</stem>
        <notations>
          <tied type="stop" />
        </notations>
      </note>
    </measure>
    <!--========================= Measure 29 =========================-->
    <measure number="29" width="323.91">
      <print new-system="yes">
        <system-layout>
          <system-margins>
            <left-margin>0</left-margin>
            <right-margin>0</right-margin>
          </system-margins>
          <system-distance>129.45</system-distance>
        </system-layout>
      </print>
      <harmony>
        <root>
          <root-step>E</root-step>
        </root>
        <kind text="m7">minor-seventh</kind>
      </harmony>
      <note>
        <pitch>
          <step>G</step>
          <octave>4</octave>
        </pitch>
        <duration>20160</duration>
        <type>half</type>
        <stem>down</stem>
        <lyric name="1" number="1">
          <syllabic>single</syllabic>
          <text>Can't</text>
        </lyric>
      </note>
      <harmony>
        <root>
          <root-step>A</root-step>
        </root>
        <kind text="m7">minor-seventh</kind>
      </harmony>
      <note>
        <pitch>
          <step>C</step>
          <octave>4</octave>
        </pitch>
        <duration>20160</duration>
        <type>half</type>
        <stem>up</stem>
        <lyric name="1" number="1">
          <syllabic>single</syllabic>
          <text>help</text>
        </lyric>
      </note>
    </measure>
    <!--========================= Measure 30 =========================-->
    <measure number="30" width="335.15">
      <harmony>
        <root>
          <root-step>G</root-step>
          <root-alter>1</root-alter>
        </root>
        <kind text="7">dominant</kind>
      </harmony>
      <note>
        <pitch>
          <step>E</step>
          <alter>-1</alter>
          <octave>5</octave>
        </pitch>
        <duration>5040</duration>
        <type>eighth</type>
        <accidental>flat</accidental>
        <stem>up</stem>
        <beam number="1">begin</beam>
        <lyric name="1" number="1">
          <syllabic>begin</syllabic>
          <text>lov</text>
        </lyric>
      </note>
      <note>
        <pitch>
          <step>C</step>
          <octave>5</octave>
        </pitch>
        <duration>5040</duration>
        <type>eighth</type>
        <stem>up</stem>
        <beam number="1">continue</beam>
        <lyric name="1" number="1">
          <syllabic>end</syllabic>
          <text>in'</text>
        </lyric>
      </note>
      <note>
        <pitch>
          <step>D</step>
          <octave>5</octave>
        </pitch>
        <duration>5040</duration>
        <type>eighth</type>
        <stem>up</stem>
        <beam number="1">continue</beam>
        <lyric name="1" number="1">
          <syllabic>single</syllabic>
          <text>dat</text>
        </lyric>
      </note>
      <note>
        <pitch>
          <step>E</step>
          <alter>-1</alter>
          <octave>5</octave>
        </pitch>
        <duration>5040</duration>
        <tie type="start" />
        <type>eighth</type>
        <accidental>flat</accidental>
        <stem>up</stem>
        <beam number="1">end</beam>
        <notations>
          <tied type="start" />
        </notations>
        <lyric name="1" number="1">
          <syllabic>single</syllabic>
          <text>man</text>
        </lyric>
      </note>
      <harmony>
        <root>
          <root-step>G</root-step>
          <root-alter>0</root-alter>
        </root>
        <kind text="7#5">augmented-seventh</kind>
      </harmony>
      <note>
        <pitch>
          <step>E</step>
          <alter>-1</alter>
          <octave>5</octave>
        </pitch>
        <duration>10080</duration>
        <tie type="stop" />
        <type>quarter</type>
        <accidental>flat</accidental>
        <stem>up</stem>
        <notations>
          <tied type="stop" />
        </notations>
      </note>
      <harmony>
        <root>
          <root-step>G</root-step>
          <root-alter>0</root-alter>
        </root>
        <kind text="7b9">dominant</kind>
        <degree>
          <degree-value>9</degree-value>
          <degree-alter>-1</degree-alter>
          <degree-type>add</degree-type>
        </degree>
      </harmony>
      <note>
        <pitch>
          <step>D</step>
          <octave>5</octave>
        </pitch>
        <duration>10080</duration>
        <type>quarter</type>
        <stem>up</stem>
        <lyric name="1" number="1">
          <syllabic>single</syllabic>
          <text>of</text>
        </lyric>
      </note>
    </measure>
    <!--========================= Measure 31 =========================-->
    <measure number="31" width="220.59">
      <harmony relative-x="801.67">
        <root>
          <root-step>C</root-step>
        </root>
        <kind text="6">major-sixth</kind>
      </harmony>
      <note>
        <pitch>
          <step>C</step>
          <octave>5</octave>
        </pitch>
        <duration>20160</duration>
        <tie type="start" />
        <type>half</type>
        <stem>down</stem>
        <notations>
          <tied type="start" />
        </notations>
        <lyric name="1" number="1">
          <syllabic>single</syllabic>
          <text>mine.</text>
        </lyric>
      </note>
      <harmony>
        <root>
          <root-step>A</root-step>
        </root>
        <kind text="m7">minor-seventh</kind>
      </harmony>
      <note>
        <pitch>
          <step>C</step>
          <octave>5</octave>
        </pitch>
        <duration>20160</duration>
        <tie type="stop" />
        <tie type="start" />
        <type>half</type>
        <stem>down</stem>
        <notations>
          <tied type="stop" />
          <tied type="start" />
        </notations>
      </note>
    </measure>
    <!--========================= Measure 32 =========================-->
    <measure number="32" width="197.45">
      <harmony relative-x="750">
        <root>
          <root-step>D</root-step>
        </root>
        <kind text="m7">minor-seventh</kind>
      </harmony>
      <note>
        <pitch>
          <step>C</step>
          <octave>5</octave>
        </pitch>
        <duration>30240</duration>
        <tie type="stop" />
        <type>half</type>
        <dot />
        <stem>up</stem>
        <notations>
          <tied type="stop" />
        </notations>
      </note>
      <harmony>
        <root>
          <root-step>G</root-step>
        </root>
        <kind text="7">dominant</kind>
      </harmony>
      <note>
        <rest />
        <duration>10080</duration>
        <type>quarter</type>
      </note>
      <barline location="right">
        <bar-style>light-heavy</bar-style>
      </barline>
    </measure>
  </part>
</score-partwise>