<?xml version="1.0" encoding="utf-8"?>
<!DOCTYPE score-partwise  PUBLIC "-//Recordare//DTD MusicXML 3.1 Partwise//EN" "http://www.musicxml.org/dtds/partwise.dtd">
<score-partwise version="3.1">
  <movement-title>The Hour Of Parting</movement-title>
  <identification>
    <creator type="composer">Mischa Spoliansky</creator>
    <creator>Gus Kahn</creator>
    <encoding>
      <encoding-date>2022-11-09</encoding-date>
      <software>music21 v.8.1.0</software>
      <software>Music21</software>
    </encoding>
  </identification>
  <defaults>
    <scaling>
      <millimeters>5.7</millimeters>
      <tenths>40</tenths>
    </scaling>
    <page-layout>
      <page-height>2084.21</page-height>
      <page-width>1473.68</page-width>
      <page-margins>
        <left-margin>70.1754</left-margin>
        <right-margin>70.1754</right-margin>
        <top-margin>70.1754</top-margin>
        <bottom-margin>140.351</bottom-margin>
      </page-margins>
    </page-layout>
  </defaults>
  <credit page="1">
    <credit-words default-x="736.842" default-y="2014.04" font-size="24" halign="center" valign="top">The Hour Of Parting</credit-words>
  </credit>
  <credit page="1">
    <credit-words default-x="1403.51" default-y="1951.17" font-size="12" halign="center" valign="top">Mischa Spoliansky</credit-words>
  </credit>
  <credit page="1">
    <credit-words default-x="70.1754" default-y="1951.17" font-size="12" halign="center" valign="top">Gus Kahn</credit-words>
  </credit>
  <part-list>
    <score-part id="P1">
      <part-name>Violin</part-name>
      <part-abbreviation>Vln</part-abbreviation>
      <score-instrument id="I51213bb1a4070f36ad1efab7651ba777">
        <instrument-name>Violin</instrument-name>
        <instrument-abbreviation>Vln</instrument-abbreviation>
      </score-instrument>
      <midi-instrument id="I51213bb1a4070f36ad1efab7651ba777">
        <midi-channel>1</midi-channel>
        <midi-program>41</midi-program>
      </midi-instrument>
    </score-part>
  </part-list>
  <!--=========================== Part 1 ===========================-->
  <part id="P1">
    <!--========================= Measure 1 ==========================-->
    <measure number="1" width="293.38">
      <print>
        <system-layout>
          <system-margins>
            <left-margin>3</left-margin>
            <right-margin>0</right-margin>
          </system-margins>
          <top-system-distance>302.2</top-system-distance>
        </system-layout>
      </print>
      <attributes>
        <divisions>10080</divisions>
        <key>
          <fifths>0</fifths>
          <mode>major</mode>
        </key>
        <time symbol="cut">
          <beats>2</beats>
          <beat-type>2</beat-type>
        </time>
        <clef>
          <sign>G</sign>
          <line>2</line>
        </clef>
      </attributes>
      <harmony>
        <root>
          <root-step>C</root-step>
        </root>
        <kind>major</kind>
      </harmony>
      <note>
        <pitch>
          <step>G</step>
          <octave>4</octave>
        </pitch>
        <duration>40320</duration>
        <tie type="start" />
        <type>whole</type>
        <notations>
          <tied type="start" />
        </notations>
        <lyric name="1" number="1">
          <syllabic>single</syllabic>
          <text>Love,</text>
        </lyric>
      </note>
    </measure>
    <!--========================= Measure 2 ==========================-->
    <measure number="2" width="407.72">
      <harmony>
        <root>
          <root-step>G</root-step>
        </root>
        <kind text="7">dominant</kind>
      </harmony>
      <note>
        <pitch>
          <step>G</step>
          <octave>4</octave>
        </pitch>
        <duration>5040</duration>
        <tie type="stop" />
        <type>eighth</type>
        <stem>up</stem>
        <beam number="1">begin</beam>
        <notations>
          <tied type="stop" />
        </notations>
      </note>
      <note>
        <pitch>
          <step>G</step>
          <octave>4</octave>
        </pitch>
        <duration>5040</duration>
        <type>eighth</type>
        <stem>up</stem>
        <beam number="1">continue</beam>
        <lyric name="1" number="1">
          <syllabic>single</syllabic>
          <text>the</text>
        </lyric>
      </note>
      <note>
        <pitch>
          <step>A</step>
          <octave>4</octave>
        </pitch>
        <duration>5040</duration>
        <type>eighth</type>
        <stem>up</stem>
        <beam number="1">continue</beam>
        <lyric name="1" number="1">
          <syllabic>single</syllabic>
          <text>hour</text>
        </lyric>
      </note>
      <note>
        <pitch>
          <step>B</step>
          <octave>4</octave>
        </pitch>
        <duration>5040</duration>
        <type>eighth</type>
        <stem>up</stem>
        <beam number="1">end</beam>
        <lyric name="1" number="1">
          <syllabic>single</syllabic>
          <text>of</text>
        </lyric>
      </note>
      <harmony>
        <root>
          <root-step>G</root-step>
        </root>
        <kind text="+">augmented</kind>
      </harmony>
      <note>
        <pitch>
          <step>E</step>
          <alter>-1</alter>
          <octave>5</octave>
        </pitch>
        <duration>10080</duration>
        <type>quarter</type>
        <accidental>flat</accidental>
        <stem>down</stem>
        <lyric name="1" number="1">
          <syllabic>begin</syllabic>
          <text>part</text>
        </lyric>
      </note>
      <note>
        <pitch>
          <step>B</step>
          <octave>4</octave>
        </pitch>
        <duration>5040</duration>
        <type>eighth</type>
        <stem>up</stem>
        <beam number="1">begin</beam>
        <lyric name="1" number="1">
          <syllabic>end</syllabic>
          <text>ing</text>
        </lyric>
      </note>
      <note>
        <pitch>
          <step>A</step>
          <octave>4</octave>
        </pitch>
        <duration>5040</duration>
        <type>eighth</type>
        <stem>up</stem>
        <beam number="1">end</beam>
        <lyric name="1" number="1">
          <syllabic>single</syllabic>
          <text>is</text>
        </lyric>
      </note>
    </measure>
    <!--========================= Measure 3 ==========================-->
    <measure number="3" width="213.48">
      <harmony>
        <root>
          <root-step>C</root-step>
        </root>
        <kind>major</kind>
      </harmony>
      <note>
        <pitch>
          <step>E</step>
          <octave>4</octave>
        </pitch>
        <duration>40320</duration>
        <type>whole</type>
        <lyric name="1" number="1">
          <syllabic>single</syllabic>
          <text>near,</text>
        </lyric>
      </note>
    </measure>
    <!--========================= Measure 4 ==========================-->
    <measure number="4" width="415.75">
      <harmony>
        <root>
          <root-step>D</root-step>
        </root>
        <kind text="7">dominant</kind>
      </harmony>
      <note>
        <rest />
        <duration>5040</duration>
        <type>eighth</type>
      </note>
      <note>
        <pitch>
          <step>E</step>
          <octave>4</octave>
        </pitch>
        <duration>5040</duration>
        <type>eighth</type>
        <stem>up</stem>
        <beam number="1">begin</beam>
        <lyric name="1" number="1">
          <syllabic>single</syllabic>
          <text>And</text>
        </lyric>
      </note>
      <note>
        <pitch>
          <step>F</step>
          <alter>1</alter>
          <octave>4</octave>
        </pitch>
        <duration>5040</duration>
        <type>eighth</type>
        <accidental>sharp</accidental>
        <stem>up</stem>
        <beam number="1">continue</beam>
        <lyric name="1" number="1">
          <syllabic>single</syllabic>
          <text>in</text>
        </lyric>
      </note>
      <note>
        <pitch>
          <step>B</step>
          <octave>4</octave>
        </pitch>
        <duration>5040</duration>
        <type>eighth</type>
        <stem>up</stem>
        <beam number="1">end</beam>
        <lyric name="1" number="1">
          <syllabic>single</syllabic>
          <text>my</text>
        </lyric>
      </note>
      <note>
        <pitch>
          <step>E</step>
          <octave>5</octave>
        </pitch>
        <duration>10080</duration>
        <type>quarter</type>
        <stem>down</stem>
        <lyric name="1" number="1">
          <syllabic>single</syllabic>
          <text>heart</text>
        </lyric>
      </note>
      <note>
        <pitch>
          <step>B</step>
          <octave>4</octave>
        </pitch>
        <duration>5040</duration>
        <type>eighth</type>
        <stem>up</stem>
        <beam number="1">begin</beam>
        <lyric name="1" number="1">
          <syllabic>single</syllabic>
          <text>I</text>
        </lyric>
      </note>
      <note>
        <pitch>
          <step>A</step>
          <octave>4</octave>
        </pitch>
        <duration>5040</duration>
        <type>eighth</type>
        <stem>up</stem>
        <beam number="1">end</beam>
        <lyric name="1" number="1">
          <syllabic>single</syllabic>
          <text>can</text>
        </lyric>
      </note>
    </measure>
    <!--========================= Measure 5 ==========================-->
    <measure number="5" width="272.85">
      <print new-system="yes">
        <system-layout>
          <system-margins>
            <left-margin>3</left-margin>
            <right-margin>0</right-margin>
          </system-margins>
          <system-distance>166.96</system-distance>
        </system-layout>
      </print>
      <harmony>
        <root>
          <root-step>G</root-step>
        </root>
        <kind text="7">dominant</kind>
      </harmony>
      <note>
        <pitch>
          <step>E</step>
          <octave>4</octave>
        </pitch>
        <duration>40320</duration>
        <type>whole</type>
        <lyric name="1" number="1">
          <syllabic>single</syllabic>
          <text>hear</text>
        </lyric>
      </note>
    </measure>
    <!--========================= Measure 6 ==========================-->
    <measure number="6" width="514.29">
      <harmony>
        <root>
          <root-step>C</root-step>
        </root>
        <kind text="7+">augmented-seventh</kind>
      </harmony>
      <note>
        <rest />
        <duration>5040</duration>
        <type>eighth</type>
      </note>
      <note>
        <pitch>
          <step>D</step>
          <octave>4</octave>
        </pitch>
        <duration>5040</duration>
        <type>eighth</type>
        <stem>up</stem>
        <beam number="1">begin</beam>
        <lyric name="1" number="1">
          <syllabic>single</syllabic>
          <text>The</text>
        </lyric>
      </note>
      <note>
        <pitch>
          <step>E</step>
          <octave>4</octave>
        </pitch>
        <duration>5040</duration>
        <type>eighth</type>
        <stem>up</stem>
        <beam number="1">continue</beam>
        <lyric name="1" number="1">
          <syllabic>single</syllabic>
          <text>song</text>
        </lyric>
      </note>
      <note>
        <pitch>
          <step>G</step>
          <alter>1</alter>
          <octave>4</octave>
        </pitch>
        <duration>5040</duration>
        <type>eighth</type>
        <accidental>sharp</accidental>
        <stem>up</stem>
        <beam number="1">end</beam>
        <lyric name="1" number="1">
          <syllabic>single</syllabic>
          <text>we</text>
        </lyric>
      </note>
      <note>
        <pitch>
          <step>D</step>
          <octave>5</octave>
        </pitch>
        <duration>10080</duration>
        <type>quarter</type>
        <stem>down</stem>
        <lyric name="1" number="1">
          <syllabic>single</syllabic>
          <text>heard</text>
        </lyric>
      </note>
      <note>
        <pitch>
          <step>G</step>
          <alter>1</alter>
          <octave>4</octave>
        </pitch>
        <duration>5040</duration>
        <type>eighth</type>
        <accidental>sharp</accidental>
        <stem>up</stem>
        <beam number="1">begin</beam>
        <lyric name="1" number="1">
          <syllabic>single</syllabic>
          <text>when</text>
        </lyric>
      </note>
      <note>
        <pitch>
          <step>E</step>
          <octave>4</octave>
        </pitch>
        <duration>5040</duration>
        <type>eighth</type>
        <stem>up</stem>
        <beam number="1">end</beam>
        <lyric name="1" number="1">
          <syllabic>single</syllabic>
          <text>I</text>
        </lyric>
      </note>
    </measure>
    <!--========================= Measure 7 ==========================-->
    <measure number="7" width="269.7">
      <harmony>
        <root>
          <root-step>D</root-step>
        </root>
        <kind text="m7">minor-seventh</kind>
      </harmony>
      <note>
        <pitch>
          <step>D</step>
          <octave>4</octave>
        </pitch>
        <duration>40320</duration>
        <type>whole</type>
        <lyric name="1" number="1">
          <syllabic>single</syllabic>
          <text>met</text>
        </lyric>
      </note>
    </measure>
    <!--========================= Measure 8 ==========================-->
    <measure number="8" width="273.5">
      <harmony>
        <root>
          <root-step>E</root-step>
          <root-alter>-1</root-alter>
        </root>
        <kind text="m">minor</kind>
      </harmony>
      <note>
        <pitch>
          <step>E</step>
          <alter>-1</alter>
          <octave>4</octave>
        </pitch>
        <duration>40320</duration>
        <type>whole</type>
        <accidental>flat</accidental>
        <lyric name="1" number="1">
          <syllabic>single</syllabic>
          <text>you.</text>
        </lyric>
      </note>
    </measure>
    <!--========================= Measure 9 ==========================-->
    <measure number="9" width="235.72">
      <print new-system="yes">
        <system-layout>
          <system-margins>
            <left-margin>3</left-margin>
            <right-margin>0</right-margin>
          </system-margins>
          <system-distance>166.96</system-distance>
        </system-layout>
      </print>
      <harmony>
        <root>
          <root-step>C</root-step>
        </root>
        <kind>major</kind>
      </harmony>
      <note>
        <pitch>
          <step>G</step>
          <octave>4</octave>
        </pitch>
        <duration>40320</duration>
        <type>whole</type>
        <lyric name="1" number="1">
          <syllabic>single</syllabic>
          <text>Love,</text>
        </lyric>
      </note>
    </measure>
    <!--========================= Measure 10 =========================-->
    <measure number="10" width="406.79">
      <harmony>
        <root>
          <root-step>G</root-step>
        </root>
        <kind text="7">dominant</kind>
      </harmony>
      <note>
        <rest />
        <duration>5040</duration>
        <type>eighth</type>
      </note>
      <note>
        <pitch>
          <step>G</step>
          <octave>4</octave>
        </pitch>
        <duration>5040</duration>
        <type>eighth</type>
        <stem>up</stem>
        <beam number="1">begin</beam>
        <lyric name="1" number="1">
          <syllabic>single</syllabic>
          <text>it</text>
        </lyric>
      </note>
      <note>
        <pitch>
          <step>A</step>
          <octave>4</octave>
        </pitch>
        <duration>5040</duration>
        <type>eighth</type>
        <stem>up</stem>
        <beam number="1">continue</beam>
        <lyric name="1" number="1">
          <syllabic>single</syllabic>
          <text>was</text>
        </lyric>
      </note>
      <note>
        <pitch>
          <step>B</step>
          <octave>4</octave>
        </pitch>
        <duration>5040</duration>
        <type>eighth</type>
        <stem>up</stem>
        <beam number="1">end</beam>
        <lyric name="1" number="1">
          <syllabic>single</syllabic>
          <text>a</text>
        </lyric>
      </note>
      <harmony>
        <root>
          <root-step>G</root-step>
        </root>
        <kind text="+">augmented</kind>
      </harmony>
      <note>
        <pitch>
          <step>E</step>
          <alter>-1</alter>
          <octave>5</octave>
        </pitch>
        <duration>10080</duration>
        <type>quarter</type>
        <accidental>flat</accidental>
        <stem>down</stem>
        <lyric name="1" number="1">
          <syllabic>single</syllabic>
          <text>night</text>
        </lyric>
      </note>
      <note>
        <pitch>
          <step>B</step>
          <octave>4</octave>
        </pitch>
        <duration>5040</duration>
        <type>eighth</type>
        <stem>up</stem>
        <beam number="1">begin</beam>
        <lyric name="1" number="1">
          <syllabic>single</syllabic>
          <text>of</text>
        </lyric>
      </note>
      <note>
        <pitch>
          <step>A</step>
          <octave>4</octave>
        </pitch>
        <duration>5040</duration>
        <type>eighth</type>
        <stem>up</stem>
        <beam number="1">end</beam>
        <lyric name="1" number="1">
          <syllabic>begin</syllabic>
          <text>ro</text>
        </lyric>
      </note>
    </measure>
    <!--========================= Measure 11 =========================-->
    <measure number="11" width="271.69">
      <harmony>
        <root>
          <root-step>C</root-step>
        </root>
        <kind>major</kind>
      </harmony>
      <note>
        <pitch>
          <step>E</step>
          <octave>4</octave>
        </pitch>
        <duration>20160</duration>
        <type>half</type>
        <stem>up</stem>
        <lyric name="1" number="1">
          <syllabic>end</syllabic>
          <text>mance,</text>
        </lyric>
      </note>
      <note>
        <rest />
        <duration>20160</duration>
        <type>half</type>
      </note>
    </measure>
    <!--========================= Measure 12 =========================-->
    <measure number="12" width="416.13">
      <harmony>
        <root>
          <root-step>D</root-step>
        </root>
        <kind text="7">dominant</kind>
      </harmony>
      <note>
        <rest />
        <duration>5040</duration>
        <type>eighth</type>
      </note>
      <note>
        <pitch>
          <step>E</step>
          <octave>4</octave>
        </pitch>
        <duration>5040</duration>
        <type>eighth</type>
        <stem>up</stem>
        <beam number="1">begin</beam>
        <lyric name="1" number="1">
          <syllabic>single</syllabic>
          <text>that</text>
        </lyric>
      </note>
      <note>
        <pitch>
          <step>F</step>
          <alter>1</alter>
          <octave>4</octave>
        </pitch>
        <duration>5040</duration>
        <type>eighth</type>
        <accidental>sharp</accidental>
        <stem>up</stem>
        <beam number="1">continue</beam>
        <lyric name="1" number="1">
          <syllabic>single</syllabic>
          <text>all</text>
        </lyric>
      </note>
      <note>
        <pitch>
          <step>B</step>
          <octave>4</octave>
        </pitch>
        <duration>5040</duration>
        <type>eighth</type>
        <stem>up</stem>
        <beam number="1">end</beam>
        <lyric name="1" number="1">
          <syllabic>begin</syllabic>
          <text>be</text>
        </lyric>
      </note>
      <note>
        <pitch>
          <step>E</step>
          <octave>5</octave>
        </pitch>
        <duration>10080</duration>
        <type>quarter</type>
        <stem>down</stem>
        <lyric name="1" number="1">
          <syllabic>end</syllabic>
          <text>gan</text>
        </lyric>
      </note>
      <note>
        <pitch>
          <step>B</step>
          <octave>4</octave>
        </pitch>
        <duration>5040</duration>
        <type>eighth</type>
        <stem>up</stem>
        <beam number="1">begin</beam>
        <lyric name="1" number="1">
          <syllabic>single</syllabic>
          <text>with</text>
        </lyric>
      </note>
      <note>
        <pitch>
          <step>A</step>
          <octave>4</octave>
        </pitch>
        <duration>5040</duration>
        <type>eighth</type>
        <stem>up</stem>
        <beam number="1">end</beam>
        <lyric name="1" number="1">
          <syllabic>single</syllabic>
          <text>a</text>
        </lyric>
      </note>
    </measure>
    <!--========================= Measure 13 =========================-->
    <measure number="13" width="288.61">
      <print new-system="yes">
        <system-layout>
          <system-margins>
            <left-margin>3</left-margin>
            <right-margin>0</right-margin>
          </system-margins>
          <system-distance>166.96</system-distance>
        </system-layout>
      </print>
      <harmony>
        <root>
          <root-step>G</root-step>
        </root>
        <kind text="7">dominant</kind>
      </harmony>
      <note>
        <pitch>
          <step>E</step>
          <octave>4</octave>
        </pitch>
        <duration>40320</duration>
        <type>whole</type>
        <lyric name="1" number="1">
          <syllabic>single</syllabic>
          <text>dance.</text>
        </lyric>
      </note>
    </measure>
    <!--========================= Measure 14 =========================-->
    <measure number="14" width="415.94">
      <harmony>
        <root>
          <root-step>F</root-step>
        </root>
        <kind>major</kind>
      </harmony>
      <note>
        <rest />
        <duration>5040</duration>
        <type>eighth</type>
      </note>
      <note>
        <pitch>
          <step>D</step>
          <octave>4</octave>
        </pitch>
        <duration>5040</duration>
        <type>eighth</type>
        <stem>up</stem>
        <beam number="1">begin</beam>
        <lyric name="1" number="1">
          <syllabic>single</syllabic>
          <text>I</text>
        </lyric>
      </note>
      <note>
        <pitch>
          <step>E</step>
          <octave>4</octave>
        </pitch>
        <duration>5040</duration>
        <type>eighth</type>
        <stem>up</stem>
        <beam number="1">continue</beam>
        <lyric name="1" number="1">
          <syllabic>begin</syllabic>
          <text>nev</text>
        </lyric>
      </note>
      <note>
        <pitch>
          <step>G</step>
          <octave>4</octave>
        </pitch>
        <duration>5040</duration>
        <type>eighth</type>
        <stem>up</stem>
        <beam number="1">end</beam>
        <lyric name="1" number="1">
          <syllabic>end</syllabic>
          <text>er</text>
        </lyric>
      </note>
      <harmony>
        <root>
          <root-step>G</root-step>
        </root>
        <kind text="7">dominant</kind>
      </harmony>
      <note>
        <pitch>
          <step>A</step>
          <octave>4</octave>
        </pitch>
        <duration>10080</duration>
        <type>quarter</type>
        <stem>up</stem>
        <lyric name="1" number="1">
          <syllabic>single</syllabic>
          <text>will</text>
        </lyric>
      </note>
      <note>
        <pitch>
          <step>D</step>
          <octave>5</octave>
        </pitch>
        <duration>10080</duration>
        <type>quarter</type>
        <stem>down</stem>
        <lyric name="1" number="1">
          <syllabic>begin</syllabic>
          <text>for</text>
        </lyric>
      </note>
    </measure>
    <!--========================= Measure 15 =========================-->
    <measure number="15" width="263.12">
      <harmony>
        <root>
          <root-step>C</root-step>
        </root>
        <kind>major</kind>
      </harmony>
      <note>
        <pitch>
          <step>C</step>
          <octave>5</octave>
        </pitch>
        <duration>40320</duration>
        <tie type="start" />
        <type>whole</type>
        <notations>
          <tied type="start" />
        </notations>
        <lyric name="1" number="1">
          <syllabic>end</syllabic>
          <text>get</text>
        </lyric>
      </note>
    </measure>
    <!--========================= Measure 16 =========================-->
    <measure number="16" width="362.67">
      <harmony>
        <root>
          <root-step>B</root-step>
          <root-alter>0</root-alter>
        </root>
        <kind text="7sus">suspended-fourth</kind>
        <degree>
          <degree-value>7</degree-value>
          <degree-alter>0</degree-alter>
          <degree-type>add</degree-type>
        </degree>
      </harmony>
      <note>
        <pitch>
          <step>C</step>
          <octave>5</octave>
        </pitch>
        <duration>10080</duration>
        <tie type="stop" />
        <type>quarter</type>
        <stem>down</stem>
        <notations>
          <tied type="stop" />
        </notations>
      </note>
      <note>
        <pitch>
          <step>E</step>
          <octave>5</octave>
        </pitch>
        <duration>10080</duration>
        <type>quarter</type>
        <stem>down</stem>
        <lyric name="1" number="1">
          <syllabic>single</syllabic>
          <text>a</text>
        </lyric>
      </note>
      <note>
        <pitch>
          <step>E</step>
          <octave>5</octave>
        </pitch>
        <duration>10080</duration>
        <type>quarter</type>
        <stem>down</stem>
        <lyric name="1" number="1">
          <syllabic>begin</syllabic>
          <text>dream</text>
        </lyric>
      </note>
      <note>
        <pitch>
          <step>E</step>
          <octave>5</octave>
        </pitch>
        <duration>10080</duration>
        <type>quarter</type>
        <stem>down</stem>
        <lyric name="1" number="1">
          <syllabic>end</syllabic>
          <text>y</text>
        </lyric>
      </note>
    </measure>
    <!--========================= Measure 17 =========================-->
    <measure number="17" width="293.54">
      <print new-system="yes">
        <system-layout>
          <system-margins>
            <left-margin>3</left-margin>
            <right-margin>0</right-margin>
          </system-margins>
          <system-distance>166.96</system-distance>
        </system-layout>
      </print>
      <harmony>
        <root>
          <root-step>E</root-step>
        </root>
        <kind text="7">dominant</kind>
      </harmony>
      <note>
        <pitch>
          <step>E</step>
          <octave>5</octave>
        </pitch>
        <duration>20160</duration>
        <type>half</type>
        <stem>down</stem>
        <lyric name="1" number="1">
          <syllabic>begin</syllabic>
          <text>tan</text>
        </lyric>
      </note>
      <harmony>
        <root>
          <root-step>B</root-step>
        </root>
        <kind text="m">minor</kind>
      </harmony>
      <note>
        <pitch>
          <step>B</step>
          <octave>4</octave>
        </pitch>
        <duration>20160</duration>
        <type>half</type>
        <stem>down</stem>
        <lyric name="1" number="1">
          <syllabic>end</syllabic>
          <text>go</text>
        </lyric>
      </note>
    </measure>
    <!--========================= Measure 18 =========================-->
    <measure number="18" width="433.01">
      <harmony>
        <root>
          <root-step>E</root-step>
        </root>
        <kind text="7">dominant</kind>
      </harmony>
      <note>
        <rest />
        <duration>10080</duration>
        <type>quarter</type>
      </note>
      <note>
        <pitch>
          <step>E</step>
          <octave>5</octave>
        </pitch>
        <duration>5040</duration>
        <type>eighth</type>
        <stem>down</stem>
        <beam number="1">begin</beam>
        <lyric name="1" number="1">
          <syllabic>single</syllabic>
          <text>I</text>
        </lyric>
      </note>
      <note>
        <pitch>
          <step>E</step>
          <octave>5</octave>
        </pitch>
        <duration>5040</duration>
        <tie type="start" />
        <type>eighth</type>
        <stem>down</stem>
        <beam number="1">end</beam>
        <notations>
          <tied type="start" />
        </notations>
        <lyric name="1" number="1">
          <syllabic>single</syllabic>
          <text>still</text>
        </lyric>
      </note>
      <note>
        <pitch>
          <step>E</step>
          <octave>5</octave>
        </pitch>
        <duration>5040</duration>
        <tie type="stop" />
        <type>eighth</type>
        <stem>down</stem>
        <beam number="1">begin</beam>
        <notations>
          <tied type="stop" />
        </notations>
      </note>
      <note>
        <pitch>
          <step>B</step>
          <octave>4</octave>
        </pitch>
        <duration>5040</duration>
        <type>eighth</type>
        <stem>down</stem>
        <beam number="1">end</beam>
        <lyric name="1" number="1">
          <syllabic>single</syllabic>
          <text>hear</text>
        </lyric>
      </note>
      <note>
        <pitch>
          <step>E</step>
          <octave>5</octave>
        </pitch>
        <duration>10080</duration>
        <type>quarter</type>
        <stem>down</stem>
        <lyric name="1" number="1">
          <syllabic>single</syllabic>
          <text>them</text>
        </lyric>
      </note>
    </measure>
    <!--========================= Measure 19 =========================-->
    <measure number="19" width="309.45">
      <harmony>
        <root>
          <root-step>A</root-step>
        </root>
        <kind text="7">dominant</kind>
      </harmony>
      <note>
        <pitch>
          <step>E</step>
          <octave>5</octave>
        </pitch>
        <duration>20160</duration>
        <type>half</type>
        <stem>down</stem>
        <lyric name="1" number="1">
          <syllabic>begin</syllabic>
          <text>play</text>
        </lyric>
      </note>
      <note>
        <pitch>
          <step>B</step>
          <octave>4</octave>
        </pitch>
        <duration>20160</duration>
        <tie type="start" />
        <type>half</type>
        <stem>down</stem>
        <notations>
          <tied type="start" />
        </notations>
        <lyric name="1" number="1">
          <syllabic>end</syllabic>
          <text>ing</text>
        </lyric>
      </note>
    </measure>
    <!--========================= Measure 20 =========================-->
    <measure number="20" width="294.33">
      <note>
        <pitch>
          <step>B</step>
          <octave>4</octave>
        </pitch>
        <duration>10080</duration>
        <tie type="stop" />
        <type>quarter</type>
        <stem>down</stem>
        <notations>
          <tied type="stop" />
        </notations>
      </note>
      <note>
        <rest />
        <duration>10080</duration>
        <type>quarter</type>
      </note>
      <note>
        <rest />
        <duration>20160</duration>
        <type>half</type>
      </note>
    </measure>
    <!--========================= Measure 21 =========================-->
    <measure number="21" width="265.37">
      <print new-system="yes">
        <system-layout>
          <system-margins>
            <left-margin>3</left-margin>
            <right-margin>0</right-margin>
          </system-margins>
          <system-distance>166.96</system-distance>
        </system-layout>
      </print>
      <harmony>
        <root>
          <root-step>D</root-step>
        </root>
        <kind text="7">dominant</kind>
      </harmony>
      <note>
        <pitch>
          <step>D</step>
          <octave>5</octave>
        </pitch>
        <duration>20160</duration>
        <type>half</type>
        <stem>down</stem>
        <lyric name="1" number="1">
          <syllabic>begin</syllabic>
          <text>Tan</text>
        </lyric>
      </note>
      <note>
        <pitch>
          <step>A</step>
          <octave>4</octave>
        </pitch>
        <duration>20160</duration>
        <type>half</type>
        <stem>up</stem>
        <lyric name="1" number="1">
          <syllabic>end</syllabic>
          <text>go</text>
        </lyric>
      </note>
    </measure>
    <!--========================= Measure 22 =========================-->
    <measure number="22" width="440.37">
      <note>
        <rest />
        <duration>10080</duration>
        <type>quarter</type>
      </note>
      <note>
        <pitch>
          <step>D</step>
          <octave>5</octave>
        </pitch>
        <duration>5040</duration>
        <type>eighth</type>
        <stem>down</stem>
        <beam number="1">begin</beam>
        <lyric name="1" number="1">
          <syllabic>single</syllabic>
          <text>they</text>
        </lyric>
      </note>
      <note>
        <pitch>
          <step>D</step>
          <octave>5</octave>
        </pitch>
        <duration>5040</duration>
        <tie type="start" />
        <type>eighth</type>
        <stem>down</stem>
        <beam number="1">end</beam>
        <notations>
          <tied type="start" />
        </notations>
        <lyric name="1" number="1">
          <syllabic>single</syllabic>
          <text>played</text>
        </lyric>
      </note>
      <note>
        <pitch>
          <step>D</step>
          <octave>5</octave>
        </pitch>
        <duration>5040</duration>
        <tie type="stop" />
        <type>eighth</type>
        <stem>up</stem>
        <beam number="1">begin</beam>
        <notations>
          <tied type="stop" />
        </notations>
      </note>
      <note>
        <pitch>
          <step>A</step>
          <octave>4</octave>
        </pitch>
        <duration>5040</duration>
        <type>eighth</type>
        <stem>up</stem>
        <beam number="1">end</beam>
        <lyric name="1" number="1">
          <syllabic>single</syllabic>
          <text>while</text>
        </lyric>
      </note>
      <note>
        <pitch>
          <step>D</step>
          <octave>5</octave>
        </pitch>
        <duration>10080</duration>
        <type>quarter</type>
        <stem>down</stem>
        <lyric name="1" number="1">
          <syllabic>single</syllabic>
          <text>we</text>
        </lyric>
      </note>
    </measure>
    <!--========================= Measure 23 =========================-->
    <measure number="23" width="318.78">
      <harmony>
        <root>
          <root-step>G</root-step>
        </root>
        <kind text="7">dominant</kind>
      </harmony>
      <note>
        <pitch>
          <step>E</step>
          <octave>5</octave>
        </pitch>
        <duration>10080</duration>
        <type>quarter</type>
        <stem>down</stem>
        <lyric name="1" number="1">
          <syllabic>single</syllabic>
          <text>two</text>
        </lyric>
      </note>
      <note>
        <rest />
        <duration>10080</duration>
        <type>quarter</type>
      </note>
      <harmony>
        <root>
          <root-step>D</root-step>
        </root>
        <kind text="m7">minor-seventh</kind>
      </harmony>
      <note>
        <pitch>
          <step>D</step>
          <octave>5</octave>
        </pitch>
        <duration>10080</duration>
        <type>quarter</type>
        <stem>down</stem>
        <lyric name="1" number="1">
          <syllabic>single</syllabic>
          <text>were</text>
        </lyric>
      </note>
      <note>
        <rest />
        <duration>10080</duration>
        <type>quarter</type>
      </note>
    </measure>
    <!--========================= Measure 24 =========================-->
    <measure number="24" width="305.8">
      <harmony>
        <root>
          <root-step>B</root-step>
        </root>
        <kind text="7">dominant</kind>
      </harmony>
      <note>
        <pitch>
          <step>B</step>
          <octave>4</octave>
        </pitch>
        <duration>10080</duration>
        <type>quarter</type>
        <stem>down</stem>
        <lyric name="1" number="1">
          <syllabic>begin</syllabic>
          <text>say</text>
        </lyric>
      </note>
      <note>
        <rest />
        <duration>10080</duration>
        <type>quarter</type>
      </note>
      <harmony>
        <root>
          <root-step>G</root-step>
        </root>
        <kind text="7">dominant</kind>
      </harmony>
      <note>
        <pitch>
          <step>A</step>
          <octave>4</octave>
        </pitch>
        <duration>10080</duration>
        <type>quarter</type>
        <stem>up</stem>
        <lyric name="1" number="1">
          <syllabic>end</syllabic>
          <text>ing,</text>
        </lyric>
      </note>
      <note>
        <rest />
        <duration>10080</duration>
        <type>quarter</type>
      </note>
    </measure>
    <!--========================= Measure 25 =========================-->
    <measure number="25" width="220.02">
      <print new-system="yes">
        <system-layout>
          <system-margins>
            <left-margin>3</left-margin>
            <right-margin>0</right-margin>
          </system-margins>
          <system-distance>166.96</system-distance>
        </system-layout>
      </print>
      <harmony>
        <root>
          <root-step>C</root-step>
        </root>
        <kind>major</kind>
      </harmony>
      <note>
        <pitch>
          <step>G</step>
          <octave>4</octave>
        </pitch>
        <duration>40320</duration>
        <tie type="start" />
        <type>whole</type>
        <notations>
          <tied type="start" />
        </notations>
        <lyric name="1" number="1">
          <syllabic>single</syllabic>
          <text>Love,</text>
        </lyric>
      </note>
    </measure>
    <!--========================= Measure 26 =========================-->
    <measure number="26" width="439.75">
      <harmony>
        <root>
          <root-step>G</root-step>
        </root>
        <kind text="7">dominant</kind>
      </harmony>
      <note>
        <pitch>
          <step>G</step>
          <octave>4</octave>
        </pitch>
        <duration>5040</duration>
        <tie type="stop" />
        <type>eighth</type>
        <stem>up</stem>
        <beam number="1">begin</beam>
        <notations>
          <tied type="stop" />
        </notations>
      </note>
      <note>
        <pitch>
          <step>G</step>
          <octave>4</octave>
        </pitch>
        <duration>5040</duration>
        <type>eighth</type>
        <stem>up</stem>
        <beam number="1">continue</beam>
        <lyric name="1" number="1">
          <syllabic>single</syllabic>
          <text>we</text>
        </lyric>
      </note>
      <note>
        <pitch>
          <step>A</step>
          <octave>4</octave>
        </pitch>
        <duration>5040</duration>
        <type>eighth</type>
        <stem>up</stem>
        <beam number="1">continue</beam>
        <lyric name="1" number="1">
          <syllabic>single</syllabic>
          <text>know</text>
        </lyric>
      </note>
      <note>
        <pitch>
          <step>B</step>
          <octave>4</octave>
        </pitch>
        <duration>5040</duration>
        <type>eighth</type>
        <stem>up</stem>
        <beam number="1">end</beam>
        <lyric name="1" number="1">
          <syllabic>single</syllabic>
          <text>that</text>
        </lyric>
      </note>
      <harmony>
        <root>
          <root-step>G</root-step>
        </root>
        <kind text="+">augmented</kind>
      </harmony>
      <note>
        <pitch>
          <step>E</step>
          <alter>-1</alter>
          <octave>5</octave>
        </pitch>
        <duration>10080</duration>
        <type>quarter</type>
        <accidental>flat</accidental>
        <stem>down</stem>
        <lyric name="1" number="1">
          <syllabic>single</syllabic>
          <text>love</text>
        </lyric>
      </note>
      <note>
        <pitch>
          <step>B</step>
          <octave>4</octave>
        </pitch>
        <duration>5040</duration>
        <type>eighth</type>
        <stem>up</stem>
        <beam number="1">begin</beam>
        <lyric name="1" number="1">
          <syllabic>single</syllabic>
          <text>can</text>
        </lyric>
      </note>
      <note>
        <pitch>
          <step>A</step>
          <octave>4</octave>
        </pitch>
        <duration>5040</duration>
        <type>eighth</type>
        <stem>up</stem>
        <beam number="1">end</beam>
        <lyric name="1" number="1">
          <syllabic>single</syllabic>
          <text>not</text>
        </lyric>
      </note>
    </measure>
    <!--========================= Measure 27 =========================-->
    <measure number="27" width="203.51">
      <harmony>
        <root>
          <root-step>C</root-step>
        </root>
        <kind>major</kind>
      </harmony>
      <note>
        <pitch>
          <step>E</step>
          <octave>4</octave>
        </pitch>
        <duration>40320</duration>
        <type>whole</type>
        <lyric name="1" number="1">
          <syllabic>single</syllabic>
          <text>die,</text>
        </lyric>
      </note>
    </measure>
    <!--========================= Measure 28 =========================-->
    <measure number="28" width="467.05">
      <harmony>
        <root>
          <root-step>D</root-step>
        </root>
        <kind text="7">dominant</kind>
      </harmony>
      <note>
        <rest />
        <duration>5040</duration>
        <type>eighth</type>
      </note>
      <note>
        <pitch>
          <step>E</step>
          <octave>4</octave>
        </pitch>
        <duration>5040</duration>
        <type>eighth</type>
        <stem>up</stem>
        <beam number="1">begin</beam>
        <lyric name="1" number="1">
          <syllabic>single</syllabic>
          <text>But</text>
        </lyric>
      </note>
      <note>
        <pitch>
          <step>F</step>
          <alter>1</alter>
          <octave>4</octave>
        </pitch>
        <duration>5040</duration>
        <type>eighth</type>
        <accidental>sharp</accidental>
        <stem>up</stem>
        <beam number="1">continue</beam>
        <lyric name="1" number="1">
          <syllabic>single</syllabic>
          <text>now</text>
        </lyric>
      </note>
      <note>
        <pitch>
          <step>B</step>
          <octave>4</octave>
        </pitch>
        <duration>5040</duration>
        <type>eighth</type>
        <stem>up</stem>
        <beam number="1">end</beam>
        <lyric name="1" number="1">
          <syllabic>single</syllabic>
          <text>we're</text>
        </lyric>
      </note>
      <note>
        <pitch>
          <step>E</step>
          <octave>5</octave>
        </pitch>
        <duration>10080</duration>
        <type>quarter</type>
        <stem>down</stem>
        <lyric name="1" number="1">
          <syllabic>begin</syllabic>
          <text>say</text>
        </lyric>
      </note>
      <note>
        <pitch>
          <step>B</step>
          <octave>4</octave>
        </pitch>
        <duration>5040</duration>
        <type>eighth</type>
        <stem>up</stem>
        <beam number="1">begin</beam>
        <lyric name="1" number="1">
          <syllabic>end</syllabic>
          <text>ing</text>
        </lyric>
      </note>
      <note>
        <pitch>
          <step>A</step>
          <octave>4</octave>
        </pitch>
        <duration>5040</duration>
        <type>eighth</type>
        <stem>up</stem>
        <beam number="1">end</beam>
        <lyric name="1" number="1">
          <syllabic>begin</syllabic>
          <text>"Good</text>
        </lyric>
      </note>
    </measure>
    <!--========================= Measure 29 =========================-->
    <measure number="29" width="282.74">
      <print new-system="yes">
        <system-layout>
          <system-margins>
            <left-margin>3</left-margin>
            <right-margin>0</right-margin>
          </system-margins>
          <system-distance>166.96</system-distance>
        </system-layout>
      </print>
      <harmony>
        <root>
          <root-step>G</root-step>
        </root>
        <kind text="7">dominant</kind>
      </harmony>
      <note>
        <pitch>
          <step>E</step>
          <octave>4</octave>
        </pitch>
        <duration>40320</duration>
        <type>whole</type>
        <lyric name="1" number="1">
          <syllabic>end</syllabic>
          <text>bye"</text>
        </lyric>
      </note>
    </measure>
    <!--========================= Measure 30 =========================-->
    <measure number="30" width="455.45">
      <note>
        <rest />
        <duration>5040</duration>
        <type>eighth</type>
      </note>
      <note>
        <pitch>
          <step>D</step>
          <octave>4</octave>
        </pitch>
        <duration>5040</duration>
        <type>eighth</type>
        <stem>up</stem>
        <beam number="1">begin</beam>
        <lyric name="1" number="1">
          <syllabic>single</syllabic>
          <text>The</text>
        </lyric>
      </note>
      <note>
        <pitch>
          <step>E</step>
          <octave>4</octave>
        </pitch>
        <duration>5040</duration>
        <type>eighth</type>
        <stem>up</stem>
        <beam number="1">continue</beam>
        <lyric name="1" number="1">
          <syllabic>begin</syllabic>
          <text>part</text>
        </lyric>
      </note>
      <note>
        <pitch>
          <step>G</step>
          <octave>4</octave>
        </pitch>
        <duration>5040</duration>
        <type>eighth</type>
        <stem>up</stem>
        <beam number="1">end</beam>
        <lyric name="1" number="1">
          <syllabic>end</syllabic>
          <text>ing</text>
        </lyric>
      </note>
      <harmony>
        <root>
          <root-step>A</root-step>
        </root>
        <kind text="m6">minor-sixth</kind>
      </harmony>
      <note>
        <pitch>
          <step>A</step>
          <octave>4</octave>
        </pitch>
        <duration>10080</duration>
        <type>quarter</type>
        <stem>up</stem>
        <lyric name="1" number="1">
          <syllabic>single</syllabic>
          <text>hour</text>
        </lyric>
      </note>
      <harmony>
        <root>
          <root-step>G</root-step>
        </root>
        <kind text="7">dominant</kind>
      </harmony>
      <note>
        <pitch>
          <step>D</step>
          <octave>5</octave>
        </pitch>
        <duration>10080</duration>
        <type>quarter</type>
        <stem>down</stem>
        <lyric name="1" number="1">
          <syllabic>single</syllabic>
          <text>is</text>
        </lyric>
      </note>
    </measure>
    <!--========================= Measure 31 =========================-->
    <measure number="31" width="285.39">
      <harmony>
        <root>
          <root-step>C</root-step>
        </root>
        <kind>major</kind>
      </harmony>
      <note>
        <pitch>
          <step>C</step>
          <octave>5</octave>
        </pitch>
        <duration>40320</duration>
        <tie type="start" />
        <type>whole</type>
        <notations>
          <tied type="start" />
        </notations>
        <lyric name="1" number="1">
          <syllabic>begin</syllabic>
          <text>here.</text>
        </lyric>
      </note>
    </measure>
    <!--========================= Measure 32 =========================-->
    <measure number="32" width="306.75">
      <note>
        <pitch>
          <step>C</step>
          <octave>5</octave>
        </pitch>
        <duration>10080</duration>
        <tie type="stop" />
        <type>quarter</type>
        <stem>down</stem>
        <notations>
          <tied type="stop" />
        </notations>
      </note>
      <note>
        <rest />
        <duration>10080</duration>
        <type>quarter</type>
      </note>
      <note>
        <rest />
        <duration>20160</duration>
        <type>half</type>
      </note>
      <barline location="right">
        <bar-style>light-heavy</bar-style>
      </barline>
    </measure>
  </part>
</score-partwise>